<svg width="22" height="24" viewBox="0 0 22 24" fill="none" xmlns="http://www.w3.org/2000/svg">
<path d="M0.00630765 12.4881C0.00630765 9.4336 0.00420509 6.37932 0 3.32524C0 3.0867 0.0700848 2.99652 0.363039 3.00059C1.4844 3.01513 2.60575 2.97906 3.72711 3.02153C3.9619 3.03026 4.03478 3.10182 4.02918 3.2816C4.0217 3.56242 4.0217 3.84343 4.02918 4.12464C4.03478 4.33234 3.93737 4.42077 3.67875 4.41554C3.20007 4.4039 2.72069 4.40798 2.24201 4.41554C1.85164 4.42077 1.68834 4.55633 1.67573 4.87516C1.66802 5.0689 1.67573 5.26323 1.67573 5.45697V19.9439C1.67573 20.5193 1.77595 20.606 2.45717 20.6066C7.17622 20.6066 11.8953 20.6066 16.6143 20.6066C17.2009 20.6066 17.3236 20.5013 17.3236 20.0027C17.3236 15.029 17.3236 10.055 17.3236 5.08054C17.3236 4.48768 17.2346 4.41612 16.512 4.41496C16.1034 4.41496 15.6941 4.40739 15.2855 4.41496C15.0577 4.41961 14.9673 4.33641 14.9687 4.15663C14.9687 3.85584 14.9729 3.55505 14.9687 3.25484C14.9652 3.10008 15.0353 3.02735 15.2322 3.02212C16.4111 2.98255 17.5906 3.01048 18.7701 3.00873C18.9278 3.00873 19.0007 3.07331 18.9923 3.20887C18.9839 3.35433 18.9923 3.49978 18.9923 3.64523C18.9923 9.64712 18.9949 15.649 19 21.6509C19 21.9343 18.918 22 18.5795 22C12.5176 21.9899 6.45575 21.9899 0.393877 22C0.0841017 22 0.0035042 21.9447 0.00420505 21.6858C0.0154186 18.622 0.0112136 15.5577 0.0112136 12.4933L0.00630765 12.4881Z" fill="#E9E9E9"/>
<path d="M9.34051 5.27001C8.18921 5.27001 7.03772 5.27001 5.88603 5.27001C5.25139 5.27001 5.02754 5.07019 5.01641 4.44551C5 3.54776 5.01055 2.64883 5 1.75225C5 1.50086 5.09845 1.41354 5.3516 1.41882C5.9962 1.43288 6.6408 1.41882 7.2854 1.42643C7.47058 1.42643 7.56844 1.37194 7.61649 1.18325C7.77764 0.543918 8.24058 0.20228 8.84358 0.0592954C9.87494 -0.185067 10.918 0.34878 11.0774 1.23891C11.1102 1.42058 11.2444 1.42468 11.3892 1.42409C12.0426 1.42409 12.6965 1.43171 13.3505 1.41882C13.596 1.41413 13.6746 1.50965 13.6728 1.74463C13.6658 2.66172 13.6728 3.5794 13.6681 4.49884C13.6634 5.01686 13.405 5.26884 12.8841 5.2706C11.7021 5.27294 10.5213 5.27001 9.34051 5.27001Z" fill="#E9E9E9"/>
<path d="M9.17589 8.72469H4.5084C4.00081 8.72469 4.00081 8.72469 4.00016 8.25238C4.00016 8.01798 4.00534 7.78358 4.00016 7.54918C3.99562 7.37338 4.08832 7.29954 4.27373 7.3013C4.34892 7.3013 4.42477 7.3013 4.50062 7.3013H13.9004C14.4087 7.3013 14.4087 7.3013 14.4093 7.74842C14.4093 7.96348 14.3951 8.17913 14.4093 8.39302C14.4301 8.6491 14.3186 8.7329 14.0359 8.73114C12.4166 8.72001 10.7959 8.72469 9.17589 8.72469Z" fill="#E9E9E9"/>
<path d="M9.2069 12.0631H4.57322C4.00016 12.0631 4.00016 12.0631 4.00016 11.5304C4.00016 11.3153 4.00535 11.1009 4.00016 10.8858C3.99563 10.71 4.08573 10.635 4.27308 10.6367C4.34827 10.6367 4.42412 10.6367 4.49932 10.6367H13.8989C14.4072 10.6367 14.4072 10.6367 14.4072 11.0839C14.4072 11.289 14.3916 11.4941 14.4104 11.6986C14.4363 11.9787 14.3177 12.0725 14.0052 12.0701C12.5039 12.0584 11.0026 12.0648 9.50121 12.0648L9.2069 12.0631Z" fill="#E9E9E9"/>
<path d="M9.20846 13.9709C10.7964 13.9709 12.3843 13.9709 13.9722 13.9709C14.3955 13.9709 14.4046 13.9814 14.4059 14.3676C14.4059 14.5827 14.4059 14.7972 14.4059 15.0122C14.4059 15.3908 14.3968 15.3966 13.9625 15.399H4.46613C4.0013 15.399 4.0013 15.399 4 14.973C4 14.7776 4 14.5823 4 14.387C4 13.9715 4 13.9703 4.47715 13.9697L9.20846 13.9709Z" fill="#E9E9E9"/>
<path d="M9.17149 18.7361C7.59407 18.7361 6.01665 18.7361 4.43922 18.7361C4.01137 18.7361 4.0023 18.7256 4.00035 18.3435C4.00035 18.0898 4.00813 17.836 4.00035 17.5817C3.99322 17.3784 4.0937 17.2946 4.31087 17.308C4.36467 17.311 4.41913 17.308 4.47293 17.308H13.9362C14.4062 17.308 14.4062 17.308 14.4075 17.7282C14.4075 17.9526 14.3938 18.1782 14.4107 18.4015C14.4308 18.6605 14.3102 18.7408 14.0334 18.7396C12.6507 18.7314 11.268 18.7361 9.88457 18.7361H9.17149Z" fill="#E9E9E9"/>
<path d="M14 13.25C12.4812 13.25 11.25 14.4812 11.25 16V20C11.25 21.5188 12.4812 22.75 14 22.75H18C19.5188 22.75 20.75 21.5188 20.75 20V16C20.75 14.4812 19.5188 13.25 18 13.25H14Z" fill="#1B1F23" stroke="#E9E9E9" stroke-width="1.5"/>
<path d="M14 18H18" stroke="#E9E9E9" stroke-width="1.5" stroke-linecap="round" stroke-linejoin="round"/>
<path d="M16 16V20" stroke="#E9E9E9" stroke-width="1.5" stroke-linecap="round" stroke-linejoin="round"/>
</svg>
