<svg width="50" height="50" viewBox="0 0 50 50" fill="none" xmlns="http://www.w3.org/2000/svg">
<g clip-path="url(#clip0_5080_6378)">
<path d="M25.1638 50.0142C38.9708 50.0142 50.1636 38.8214 50.1636 25.0144C50.1636 11.2074 38.9708 0.0146484 25.1638 0.0146484C11.3568 0.0146484 0.164063 11.2074 0.164063 25.0144C0.164063 38.8214 11.3568 50.0142 25.1638 50.0142Z" fill="#DC1010"/>
<g clip-path="url(#clip1_5080_6378)">
<path d="M25.4993 10.917C17.4421 10.917 10.916 17.443 10.916 25.5003C10.916 33.5576 17.4421 40.0837 25.4993 40.0837C33.5566 40.0837 40.0827 33.5576 40.0827 25.5003C40.0827 17.443 33.5566 10.917 25.4993 10.917ZM13.8327 25.5003C13.8327 19.0545 19.0535 13.8337 25.4993 13.8337C28.1973 13.8337 30.6691 14.7597 32.6452 16.291L16.29 32.6462C14.7587 30.6701 13.8327 28.1982 13.8327 25.5003ZM25.4993 37.167C22.8014 37.167 20.3296 36.241 18.3535 34.7097L34.7087 18.3545C36.24 20.3305 37.166 22.8024 37.166 25.5003C37.166 31.9462 31.9452 37.167 25.4993 37.167Z" fill="white"/>
</g>
</g>
<defs>
<clipPath id="clip0_5080_6378">
<rect width="50" height="50" fill="white"/>
</clipPath>
<clipPath id="clip1_5080_6378">
<rect width="35" height="35" fill="white" transform="translate(8 8)"/>
</clipPath>
</defs>
</svg>
