<svg xmlns="http://www.w3.org/2000/svg" width="21" height="20" viewBox="0 0 21 20" fill="none">
  <g clip-path="url(#clip0_7581_9684)">
    <path d="M0 10.8215V9.18142C0.0205444 9.03467 0.0430455 8.88793 0.0611441 8.73776C0.252892 7.15828 0.776286 5.69229 1.69687 4.39848C3.94111 1.24393 7.0081 -0.22793 10.8812 0.0288757C12.3051 0.122793 13.6395 0.547378 14.8795 1.25176C18.6861 3.40354 20.6966 7.60488 19.8244 11.8933C19.0246 15.8251 16.6077 18.3912 12.7884 19.6263C12.1491 19.8332 11.4834 19.9198 10.8186 20H9.17798C8.81845 19.9482 8.45305 19.9213 8.0994 19.841C4.13106 18.943 1.5436 16.5492 0.337026 12.6598C0.151637 12.0616 0.0763079 11.4413 0 10.8215ZM18.7879 9.63193C18.7794 9.19525 18.7302 8.76031 18.6411 8.33274C17.815 4.06634 13.9565 0.99691 9.59718 1.2136C8.43743 1.26595 7.2995 1.54723 6.24893 2.04125C3.10857 3.518 1.05266 6.80511 1.2131 10.3192C1.25933 11.4915 1.53469 12.6435 2.02363 13.71C2.33307 14.3784 2.72766 15.004 3.19759 15.5712C3.22596 15.6055 3.24651 15.6583 3.29983 15.6534C3.36635 15.647 3.3595 15.5771 3.37956 15.5331C3.39283 15.4963 3.40378 15.4587 3.41233 15.4206C3.88127 13.914 4.76027 12.7056 6.04936 11.7955C6.47429 11.4931 6.93416 11.2431 7.41898 11.051C7.54519 11.002 7.58285 10.9463 7.45225 10.8553C7.42535 10.8371 7.39954 10.8173 7.37496 10.7961C6.06354 9.68525 5.52694 8.27649 5.87815 6.59576C6.33453 4.4112 8.36598 3.02054 10.5867 3.3062C12.5923 3.56447 14.1947 5.32983 14.2285 7.34905C14.2525 8.77347 13.7022 9.94156 12.5844 10.8328C12.4269 10.9585 12.4299 10.9712 12.6172 11.0524C14.6296 11.9251 15.9629 13.4088 16.617 15.5037C16.6336 15.5575 16.6302 15.6348 16.6943 15.6505C16.7584 15.6661 16.7887 15.5927 16.8234 15.5497C18.2117 13.8225 18.851 11.8429 18.7879 9.63193ZM10.1152 18.7987C10.4689 18.7801 10.9629 18.7664 11.4511 18.6813C12.9207 18.4321 14.3035 17.815 15.4704 16.8875C15.524 16.8517 15.5654 16.8004 15.5891 16.7405C15.6128 16.6805 15.6177 16.6148 15.603 16.552C15.5099 15.9597 15.3225 15.3861 15.0478 14.8531C13.6875 12.2641 10.7623 11.0984 8.02309 12.1339C5.99066 12.9019 4.78979 14.4227 4.39308 16.5667C4.37701 16.6265 4.38098 16.6899 4.40439 16.7472C4.4278 16.8046 4.46936 16.8526 4.52271 16.8841C4.69978 17.0049 4.86512 17.1463 5.04072 17.2661C6.53117 18.2738 8.17864 18.7874 10.1152 18.7987ZM13.0012 7.49042C13.006 7.09487 12.9317 6.70236 12.7827 6.33591C12.6338 5.96945 12.4131 5.63644 12.1337 5.35641C11.8543 5.07638 11.5218 4.85497 11.1557 4.70518C10.7896 4.55538 10.3973 4.48021 10.0017 4.48408C8.15516 4.48066 6.98168 6.00046 6.99244 7.48455C7.00467 9.16234 8.32783 10.5007 10.0056 10.4987C10.4003 10.4995 10.7912 10.4221 11.1558 10.271C11.5204 10.12 11.8514 9.89821 12.1299 9.61854C12.4083 9.33886 12.6287 9.00682 12.7781 8.64156C12.9276 8.2763 13.0032 7.88506 13.0007 7.49042H13.0012Z" fill="#707175"/>
  </g>
  <defs>
    <clipPath id="clip0_7581_9684">
      <rect width="20.0264" height="20" fill="white"/>
    </clipPath>
  </defs>
</svg>