<svg xmlns="http://www.w3.org/2000/svg" width="20" height="20" viewBox="0 0 20 20" fill="none">
  <g clip-path="url(#clip0_7633_3004)">
    <path d="M19.9855 9.19342V10.8325C19.9397 11.1464 19.9103 11.4639 19.8445 11.7731C19.0073 15.7519 16.644 18.3574 12.7827 19.6226C12.1455 19.8307 11.4811 19.9153 10.818 19.9988H9.17896L8.73687 19.9365C6.43587 19.6367 4.45821 18.6655 2.85092 16.9971C0.734516 14.8031 -0.206107 12.1646 0.0349278 9.11935C0.146113 7.74256 0.552761 6.40591 1.22717 5.20048C3.26832 1.49912 7.4588 -0.659607 11.7669 0.179899C15.7457 0.953561 18.3406 3.36273 19.6046 7.20753C19.8151 7.85186 19.9021 8.52323 19.9855 9.19342ZM18.6463 10.0165C18.648 8.30623 18.1425 6.63392 17.1937 5.21096C16.245 3.788 14.8956 2.6783 13.3163 2.02216C11.7369 1.36602 9.99848 1.1929 8.32074 1.5247C6.643 1.8565 5.10131 2.67831 3.89059 3.88622C2.67988 5.09414 1.85451 6.63393 1.51884 8.3109C1.18316 9.98787 1.35226 11.7267 2.00475 13.3076C2.65724 14.8885 3.76382 16.2404 5.18459 17.1924C6.60535 18.1444 8.27649 18.6538 9.98672 18.6561C12.2795 18.6561 14.4788 17.7468 16.1021 16.1277C17.7255 14.5085 18.6404 12.3116 18.6463 10.0188V10.0165Z" fill="#707175"/>
    <path d="M9.32127 12.4586C9.32127 11.9248 9.32127 11.3921 9.32127 10.8595C9.32642 10.8252 9.32471 10.7902 9.31624 10.7566C9.30777 10.7229 9.29271 10.6913 9.27193 10.6635C9.25116 10.6358 9.22507 10.6124 9.19519 10.5948C9.16532 10.5771 9.13224 10.5656 9.09788 10.5609C7.78923 10.1364 6.99793 9.23929 6.79687 7.87892C6.56995 6.33277 7.52703 4.86892 9.03085 4.38568C9.32127 4.29279 9.32127 4.29279 9.32127 3.98474C9.32127 3.75663 9.32127 3.52971 9.32127 3.30161C9.32236 3.1223 9.39464 2.95078 9.5222 2.82476C9.64976 2.69874 9.82216 2.62856 10.0015 2.62965C10.1808 2.63074 10.3523 2.70302 10.4783 2.83058C10.6043 2.95814 10.6745 3.13053 10.6734 3.30984C10.6734 3.55675 10.6852 3.80484 10.6734 4.05058C10.6617 4.2387 10.7263 4.32689 10.9086 4.37862C11.6101 4.57527 12.2203 5.01226 12.6323 5.61319C12.8815 5.96592 12.8392 6.36922 12.5323 6.60084C12.2254 6.83247 11.8175 6.77721 11.5435 6.42095C11.3633 6.17451 11.1334 5.96862 10.8686 5.8166C10.7357 5.7437 10.6722 5.75311 10.6722 5.93418C10.6769 7.02687 10.6769 8.11917 10.6722 9.21107C10.6722 9.36628 10.7381 9.41919 10.8757 9.46387C12.1232 9.85893 12.9156 10.6914 13.1649 11.9789C13.315 12.7537 13.1733 13.5566 12.7673 14.2333C12.3612 14.91 11.7193 15.4128 10.965 15.6449C10.6746 15.7378 10.6746 15.7378 10.6746 16.0459C10.6746 16.2669 10.6746 16.488 10.6746 16.709C10.6687 17.1205 10.3865 17.4145 10.0044 17.4215C9.62227 17.4286 9.32715 17.1229 9.32245 16.7008C9.32245 16.4598 9.30952 16.2187 9.32245 15.9789C9.33421 15.7907 9.26836 15.7037 9.08729 15.652C8.39814 15.4592 7.79672 15.0343 7.38476 14.4492C7.11198 14.0753 7.14961 13.6696 7.46237 13.4298C7.77512 13.1899 8.17841 13.2546 8.46413 13.6249C8.63694 13.862 8.85818 14.0596 9.11316 14.2046C9.29305 14.3022 9.32245 14.2846 9.32362 14.0811C9.32245 13.5368 9.32127 12.9971 9.32127 12.4586ZM9.32127 7.4815C9.32127 6.96298 9.32127 6.44329 9.32127 5.92477C9.32127 5.77074 9.27424 5.73429 9.1402 5.80719C8.51469 6.15993 8.15725 6.6855 8.13962 7.40978C8.11963 8.16698 8.46883 8.72665 9.11786 9.10172C9.27894 9.19461 9.31892 9.16639 9.31892 8.97709C9.32245 8.48091 9.32127 7.98121 9.32127 7.48621V7.4815ZM10.6758 12.5691C10.6758 13.0747 10.6758 13.5814 10.6758 14.087C10.6758 14.2787 10.7075 14.301 10.8768 14.2046C11.4976 13.846 11.8468 13.3145 11.8563 12.5891C11.8657 11.8636 11.5212 11.2957 10.8898 10.9277C10.7181 10.8266 10.6758 10.8536 10.6758 11.0512C10.6746 11.5568 10.6758 12.0623 10.6758 12.5691Z" fill="#707175"/>
  </g>
  <defs>
    <clipPath id="clip0_7633_3004">
      <rect width="19.9859" height="20" fill="white"/>
    </clipPath>
  </defs>
</svg>