<svg width="34" height="32" viewBox="0 0 34 32" fill="none" xmlns="http://www.w3.org/2000/svg">
<path d="M16.987 1.03084C20.6659 1.03084 24.3473 1.11742 28.0236 1.00241C30.951 0.911955 33.0394 3.38015 32.9898 5.91295C32.897 10.9049 32.9662 15.9007 32.9623 20.894C32.9623 23.83 30.9772 25.7838 27.9962 25.7877C24.6649 25.7877 21.3311 25.7955 18.0037 25.7813C17.5264 25.7743 17.0616 25.9329 16.6903 26.2297C14.8032 27.6511 12.9003 29.0455 10.9962 30.4476C10.7178 30.653 10.4421 30.8662 10.0905 30.9451C8.96532 31.1971 8.14851 30.5677 8.0897 29.3504C8.04919 28.4911 8.07794 27.6292 8.07664 26.7659C8.07664 25.7993 8.07663 25.8071 7.12 25.7955C6.10193 25.7838 5.08518 25.8678 4.08933 25.4957C2.34464 24.8495 1.02861 23.1567 1.02077 21.3075C0.99855 16.0338 0.988095 10.7589 1.02077 5.48651C1.03776 3.05063 3.09349 1.06444 5.55435 1.04764C9.36392 1.0205 13.1735 1.03989 16.983 1.03989L16.987 1.03084ZM16.9674 3.31295C13.2872 3.31295 9.60569 3.3052 5.9255 3.31295C4.45134 3.31295 3.41629 4.34675 3.41367 5.79148C3.40583 10.8312 3.40583 15.871 3.41367 20.9108C3.41367 22.4899 4.33764 23.3971 5.92812 23.4113C7.21279 23.4216 8.49876 23.4268 9.78343 23.4113C10.2827 23.4035 10.4931 23.5819 10.4813 24.0897C10.4591 25.1235 10.4722 26.1573 10.4813 27.1911C10.4813 27.3539 10.4055 27.5788 10.5885 27.6628C10.7714 27.7468 10.8956 27.5516 11.0276 27.456C12.6533 26.2633 14.2843 25.0757 15.8957 23.8636C16.2879 23.5563 16.7769 23.3953 17.2771 23.4087C20.8057 23.4242 24.3343 23.419 27.8629 23.4151C29.6925 23.4151 30.5838 22.5351 30.5851 20.7195C30.5851 15.8314 30.5851 10.9428 30.5851 6.05381C30.5851 4.22011 29.6703 3.31424 27.8158 3.31295C24.2001 3.31209 20.584 3.31295 16.9674 3.31553V3.31295Z" fill="white" stroke="white"/>
<path d="M17.4694 17.5178C15.4458 17.5178 13.4169 17.5178 11.3973 17.5178C10.7358 17.5178 10.2508 17.271 10.0482 16.6234C9.99748 16.4563 9.98662 16.2798 10.0164 16.1079C10.0462 15.9359 10.1159 15.7731 10.22 15.6323C10.3241 15.4914 10.4598 15.3763 10.6164 15.2959C10.773 15.2156 10.9463 15.1722 11.1227 15.1692C15.3451 15.1399 19.5675 15.1399 23.7899 15.1692C24.5377 15.1692 24.973 15.7069 24.9442 16.3881C24.9181 17.0344 24.4213 17.5049 23.6736 17.5114C21.6055 17.5295 19.5375 17.5114 17.4694 17.5114V17.5178Z" fill="white" stroke="white"/>
<path d="M17.4547 11.5966C15.4324 11.5966 13.4088 11.5966 11.3865 11.5966C10.5015 11.5966 10.0243 11.2088 10.0008 10.4901C9.97726 9.77145 10.4832 9.31516 11.3904 9.31516C15.4568 9.30999 19.5241 9.30999 23.5922 9.31516C24.5739 9.31516 25.1439 9.96146 24.8994 10.7784C24.7177 11.3782 24.2772 11.6044 23.6562 11.6005C21.5869 11.5888 19.5214 11.5966 17.4547 11.5966Z" fill="white" stroke="white"/>
</svg>
