<svg width="32" height="32" viewBox="0 0 32 32" fill="none" xmlns="http://www.w3.org/2000/svg">
<path d="M16.2455 0C13.1653 0 10.1543 0.925714 7.59325 2.66008C5.03219 4.39444 3.03608 6.85956 1.85735 9.7437C0.678623 12.6278 0.370214 15.8015 0.971124 18.8633C1.57204 21.9251 3.05528 24.7375 5.23328 26.9449C7.41129 29.1523 10.1862 30.6556 13.2072 31.2647C16.2282 31.8737 19.3595 31.5611 22.2052 30.3665C25.0509 29.1718 27.4832 27.1487 29.1945 24.5531C30.9057 21.9574 31.8191 18.9057 31.8191 15.784C31.8191 13.7112 31.4163 11.6587 30.6336 9.7437C29.851 7.82871 28.7038 6.08869 27.2577 4.62302C25.8115 3.15734 24.0947 1.9947 22.2052 1.20148C20.3158 0.408265 18.2906 0 16.2455 0Z" fill="white"/>
<path d="M15.7359 6.31358C14.2903 6.31358 12.9039 6.89562 11.8816 7.93164C10.8594 8.96766 10.2852 10.3728 10.2852 11.838C10.2852 12.2566 10.4492 12.6581 10.7413 12.9541C11.0334 13.2501 11.4295 13.4164 11.8425 13.4164C12.2556 13.4164 12.6517 13.2501 12.9437 12.9541C13.2358 12.6581 13.3999 12.2566 13.3999 11.838C13.3999 11.3697 13.5369 10.912 13.7936 10.5226C14.0503 10.1333 14.4151 9.8298 14.842 9.6506C15.2688 9.4714 15.7385 9.42452 16.1917 9.51587C16.6448 9.60722 17.061 9.83271 17.3877 10.1638C17.7144 10.4949 17.9369 10.9168 18.0271 11.3761C18.1172 11.8353 18.0709 12.3114 17.8941 12.744C17.7173 13.1766 17.4179 13.5464 17.0338 13.8066C16.6496 14.0667 16.1979 14.2056 15.7359 14.2056C15.3229 14.2056 14.9268 14.3719 14.6347 14.6679C14.3426 14.9639 14.1786 15.3653 14.1786 15.784V18.9408C14.1786 19.3594 14.3426 19.7608 14.6347 20.0569C14.9268 20.3529 15.3229 20.5192 15.7359 20.5192C16.149 20.5192 16.5451 20.3529 16.8371 20.0569C17.1292 19.7608 17.2933 19.3594 17.2933 18.9408V17.1098C18.5518 16.7373 19.635 15.9163 20.3434 14.7982C21.0517 13.68 21.3373 12.34 21.1477 11.0252C20.958 9.71039 20.3058 8.50938 19.3113 7.64352C18.3168 6.77767 17.047 6.30534 15.7359 6.31358Z" fill="#389CE3"/>
<path d="M16.0535 25.2545C16.9136 25.2545 17.6108 24.5478 17.6108 23.6761C17.6108 22.8043 16.9136 22.0977 16.0535 22.0977C15.1933 22.0977 14.4961 22.8043 14.4961 23.6761C14.4961 24.5478 15.1933 25.2545 16.0535 25.2545Z" fill="#389CE3"/>
</svg>
