<svg width="32" height="32" viewBox="0 0 32 32" fill="none" xmlns="http://www.w3.org/2000/svg">
<path d="M16.1787 0C13.0569 0 10.0052 0.938256 7.40951 2.69612C4.81381 4.45398 2.79071 6.9525 1.59604 9.87572C0.40137 12.7989 0.0887905 16.0156 0.697827 19.1188C1.30686 22.2221 2.81016 25.0727 5.01762 27.31C7.22508 29.5473 10.0376 31.071 13.0994 31.6883C16.1612 32.3055 19.3349 31.9887 22.2191 30.7779C25.1033 29.567 27.5684 27.5166 29.3028 24.8857C31.0372 22.2549 31.9629 19.1619 31.9629 15.9978C31.9629 13.897 31.5547 11.8167 30.7614 9.87572C29.9682 7.93478 28.8055 6.17119 27.3398 4.68565C25.8742 3.20012 24.1341 2.02173 22.2191 1.21776C20.3041 0.413796 18.2515 0 16.1787 0ZM16.1787 28.7961C13.6813 28.7961 11.2399 28.0455 9.16335 26.6392C7.08679 25.2329 5.46831 23.2341 4.51258 20.8955C3.55684 18.5569 3.30678 15.9836 3.79401 13.501C4.28124 11.0184 5.48388 8.73796 7.24985 6.94809C9.01581 5.15822 11.2658 3.9393 13.7153 3.44548C16.1647 2.95166 18.7037 3.2051 21.011 4.17377C23.3184 5.14244 25.2905 6.78283 26.678 8.88749C28.0655 10.9922 28.8061 13.4666 28.8061 15.9978C28.8061 19.3921 27.4757 22.6474 25.1076 25.0476C22.7395 27.4477 19.5277 28.7961 16.1787 28.7961Z" fill="white"/>
<path d="M15.6651 6.39928C14.1999 6.39928 12.7947 6.9892 11.7587 8.03926C10.7227 9.08932 10.1406 10.5135 10.1406 11.9985C10.1406 12.4228 10.3069 12.8297 10.6029 13.1297C10.8989 13.4298 11.3004 13.5983 11.719 13.5983C12.1377 13.5983 12.5391 13.4298 12.8352 13.1297C13.1312 12.8297 13.2975 12.4228 13.2975 11.9985C13.2975 11.5239 13.4363 11.06 13.6965 10.6653C13.9566 10.2707 14.3264 9.96313 14.759 9.78151C15.1917 9.59988 15.6677 9.55236 16.127 9.64495C16.5863 9.73754 17.0081 9.96609 17.3393 10.3017C17.6704 10.6373 17.8959 11.0649 17.9872 11.5304C18.0786 11.9959 18.0317 12.4783 17.8525 12.9168C17.6733 13.3553 17.3698 13.7301 16.9805 13.9938C16.5911 14.2575 16.1334 14.3982 15.6651 14.3982C15.2465 14.3982 14.845 14.5667 14.549 14.8668C14.253 15.1668 14.0867 15.5737 14.0867 15.998V19.1975C14.0867 19.6218 14.253 20.0287 14.549 20.3288C14.845 20.6288 15.2465 20.7973 15.6651 20.7973C16.0837 20.7973 16.4852 20.6288 16.7812 20.3288C17.0772 20.0287 17.2435 19.6218 17.2435 19.1975V17.3418C18.519 16.9642 19.6169 16.1321 20.3348 14.9988C21.0527 13.8655 21.3423 12.5074 21.15 11.1747C20.9578 9.84211 20.2968 8.62482 19.2888 7.74724C18.2809 6.86965 16.9939 6.39092 15.6651 6.39928Z" fill="white"/>
<path d="M15.9847 25.5965C16.8564 25.5965 17.5631 24.8803 17.5631 23.9968C17.5631 23.1132 16.8564 22.397 15.9847 22.397C15.1129 22.397 14.4062 23.1132 14.4062 23.9968C14.4062 24.8803 15.1129 25.5965 15.9847 25.5965Z" fill="white"/>
</svg>
