<svg xmlns="http://www.w3.org/2000/svg" viewBox="0 0 31.57 32"><defs><style>.cls-1{fill:#fff;}</style></defs><g id="Layer_2" data-name="Layer 2"><g id="Layer_1-2" data-name="Layer 1"><path class="cls-1" d="M15.78,0A15.64,15.64,0,0,0,7,2.7,15.94,15.94,0,0,0,1.2,9.88,16.14,16.14,0,0,0,4.62,27.31a15.74,15.74,0,0,0,8.08,4.38,15.56,15.56,0,0,0,9.12-.91,15.84,15.84,0,0,0,7.09-5.89,16.19,16.19,0,0,0,1.46-15A16.06,16.06,0,0,0,27,4.69a15.68,15.68,0,0,0-5.13-3.47A15.45,15.45,0,0,0,15.78,0Zm0,28.8a12.49,12.49,0,0,1-7-2.16A12.76,12.76,0,0,1,4.12,20.9,12.91,12.91,0,0,1,6.86,7,12.53,12.53,0,0,1,20.62,4.17a12.63,12.63,0,0,1,5.66,4.72,12.92,12.92,0,0,1-1.57,16.16A12.55,12.55,0,0,1,15.78,28.8Z"/><path class="cls-1" d="M15.27,6.4A5.51,5.51,0,0,0,11.36,8a5.65,5.65,0,0,0-1.61,4,1.6,1.6,0,0,0,.46,1.13,1.56,1.56,0,0,0,1.11.47A1.59,1.59,0,0,0,12.9,12a2.39,2.39,0,0,1,.4-1.33,2.35,2.35,0,0,1,1.06-.89,2.39,2.39,0,0,1,1.37-.14,2.45,2.45,0,0,1,1.21.66,2.34,2.34,0,0,1,.65,1.23,2.44,2.44,0,0,1-.13,1.39A2.34,2.34,0,0,1,16.59,14a2.31,2.31,0,0,1-1.32.41,1.58,1.58,0,0,0-1.12.47A1.62,1.62,0,0,0,13.69,16v3.2a1.64,1.64,0,0,0,.46,1.13,1.57,1.57,0,0,0,2.24,0,1.64,1.64,0,0,0,.46-1.13V17.34A5.56,5.56,0,0,0,19.94,15a5.61,5.61,0,0,0-1.05-7.25A5.42,5.42,0,0,0,15.27,6.4Z"/><path class="cls-1" d="M15.59,25.6A1.6,1.6,0,1,0,14,24,1.59,1.59,0,0,0,15.59,25.6Z"/></g></g></svg>