<svg xmlns="http://www.w3.org/2000/svg" width="34" height="34" viewBox="0 0 34 34" fill="none">
<path d="M4.43867 24.8414C4.43867 23.3529 4.43303 21.8644 4.44368 20.3765C4.44368 20.09 4.36846 19.9665 4.06255 19.9608C3.19561 19.9433 2.42583 19.6599 1.83219 19.0059C0.713251 17.772 0.766534 16.0396 1.95756 14.8112C2.53741 14.2137 3.13292 13.6319 3.72154 13.0431C7.36526 9.40062 11.0083 5.75772 14.6508 2.11441C14.8174 1.94284 14.993 1.78022 15.1767 1.62722C15.65 1.24412 16.1797 1.06292 16.8066 1.01213C17.9211 0.91808 18.7354 1.3783 19.4883 2.13572C23.6255 6.2982 27.7737 10.4509 31.9327 14.5937C32.1615 14.8225 32.3921 15.0508 32.5664 15.3229C33.1795 16.2816 33.1933 17.3124 32.7407 18.3018C32.2806 19.3094 31.4243 19.8411 30.3003 19.9427C29.6258 20.0054 29.6647 19.8655 29.6641 20.6167C29.6641 23.4374 29.6641 26.2589 29.6641 29.0812C29.6641 29.6857 29.6196 30.2845 29.3832 30.8563C29.1259 31.4808 28.6907 32.0158 28.1317 32.3948C27.5728 32.7739 26.9148 32.9802 26.2395 32.9881C24.5539 32.9944 22.8683 32.9881 21.1827 32.9881C20.4762 32.9881 20.1001 32.6169 20.0995 31.9128C20.097 29.4771 20.097 27.0414 20.0995 24.6057C20.0995 23.906 19.8023 23.3862 19.1517 23.0902C18.9592 23.0095 18.7514 22.9721 18.543 22.9805C17.5544 22.9805 16.5659 22.9742 15.5773 22.9805C14.6433 22.9912 14.012 23.6307 14.0108 24.5712C14.007 26.9856 14.007 29.4002 14.0108 31.815C14.0108 32.6495 13.6692 32.9925 12.8398 32.9925C11.2269 32.9925 9.61338 32.9668 8.0011 32.9994C6.03841 33.0358 4.50073 31.4125 4.47315 29.7126C4.47315 29.5985 4.44243 29.485 4.44243 29.3709C4.43992 27.8619 4.43992 26.3527 4.44243 24.8433L4.43867 24.8414ZM27.7076 24.2878C27.7076 22.5397 27.7045 20.791 27.7076 19.0423C27.7076 18.4153 28.095 18.0309 28.7206 18.0215C29.1369 18.0159 29.5531 18.0184 29.9693 18.0215C30.4476 18.0215 30.8237 17.8472 31.0287 17.3945C31.2212 16.9719 31.1234 16.5506 30.7479 16.1744C26.4435 11.8689 22.139 7.56349 17.8346 3.25806C17.3375 2.76147 16.7577 2.76022 16.2643 3.25305C11.9545 7.56433 7.64421 11.8769 3.33352 16.1907C2.99313 16.5311 2.86651 16.9261 3.06271 17.382C3.25077 17.8265 3.62187 18.009 4.08512 18.0165C4.46124 18.024 4.83735 18.0165 5.20845 18.0165C6.05722 18.0165 6.39258 18.3563 6.39321 19.2141C6.39321 22.5961 6.39321 25.9786 6.39321 29.3615C6.39321 30.4136 7.03198 31.0607 8.08134 31.067C9.28867 31.0739 10.4954 31.0613 11.7027 31.0745C11.9823 31.0776 12.0569 30.9786 12.0556 30.7121C12.0468 28.8311 12.0506 26.945 12.0506 25.0609C12.0506 24.7593 12.0613 24.4596 12.0901 24.158C12.2556 22.4281 13.7199 21.0499 15.4513 21.023C16.5232 21.0061 17.5952 20.9985 18.6665 21.023C19.6594 21.0493 20.495 21.4575 21.1607 22.2018C21.8064 22.9228 22.0477 23.7862 22.0484 24.7323C22.0484 26.7199 22.0534 28.7082 22.0446 30.6958C22.0446 30.9779 22.1248 31.0751 22.417 31.072C23.603 31.0569 24.7896 31.0682 25.9756 31.0645C27.0695 31.0645 27.7076 30.4243 27.7083 29.3377C27.7108 27.6569 27.7106 25.9736 27.7076 24.2878Z" fill="white" stroke="white" stroke-width="1.75"/>
</svg>