<svg width="33" height="33" viewBox="0 0 33 33" fill="none" xmlns="http://www.w3.org/2000/svg">
<path d="M32.0649 14.3143C31.8573 13.9912 31.6111 13.6947 31.3316 13.4313C27.4407 9.5803 23.5497 5.70433 19.6588 1.80342C19.2499 1.34262 18.7399 0.98263 18.1688 0.75158C17.5976 0.520531 16.9808 0.424683 16.3665 0.471528C15.6003 0.500463 14.8646 0.778984 14.2714 1.26468C14.0583 1.42314 13.8581 1.59829 13.6728 1.78846L3.49649 12.0246L2.70334 12.8178L1.83536 13.6708C1.13118 14.3644 0.723622 15.3043 0.6985 16.2924C0.673378 17.2805 1.03265 18.2399 1.70067 18.9684C2.27381 19.5989 3.04427 20.0158 3.88558 20.1507V24.3858C3.88558 25.598 3.88558 26.7952 3.88558 27.9924V28.3964C3.93578 29.4922 4.40767 30.5261 5.20255 31.2819C5.99744 32.0377 7.05377 32.457 8.15064 32.452C9.1533 32.452 10.156 32.452 11.1437 32.452H12.6402C12.9244 32.4779 13.2108 32.4405 13.4788 32.3424C13.7469 32.2443 13.9898 32.088 14.1902 31.8848C14.3905 31.6816 14.5433 31.4365 14.6376 31.1671C14.7319 30.8977 14.7652 30.6108 14.7353 30.3269C14.7353 28.0822 14.7353 25.8374 14.7353 23.5627C14.7353 23.2484 14.8849 23.0988 15.2142 23.0988H18.2072C18.3718 23.1736 18.4915 23.2484 18.4915 23.5777V30.4167C18.4764 30.686 18.5182 30.9555 18.6144 31.2075C18.7105 31.4595 18.8588 31.6883 19.0496 31.879C19.2403 32.0697 19.4691 32.218 19.7211 32.3142C19.9731 32.4103 20.2425 32.4522 20.5118 32.437H25.2408C26.0746 32.4303 26.8875 32.175 27.5754 31.7037C28.2529 31.2405 28.7746 30.5832 29.0719 29.8181C29.3261 29.1656 29.4432 28.4677 29.4161 27.7679V20.1507C30.0197 20.0663 30.5919 19.8297 31.0789 19.4632C31.5658 19.0967 31.9515 18.6123 32.1996 18.0555C32.5033 17.4737 32.6506 16.823 32.627 16.1671C32.6034 15.5112 32.4097 14.8727 32.0649 14.3143ZM12.8347 30.3718H12.4905C12.5619 30.3252 12.6273 30.2699 12.6851 30.2072C12.7475 30.1531 12.7985 30.0869 12.8347 30.0127C12.8273 30.1023 12.8273 30.1924 12.8347 30.282C12.8373 30.3119 12.8373 30.342 12.8347 30.3718ZM20.5418 30.3718V30.0127C20.6231 30.1557 20.7356 30.2784 20.871 30.3718H20.5418ZM28.7726 16.4243H27.5754C27.3215 16.4183 27.0689 16.4635 26.8329 16.5575C26.597 16.6514 26.3824 16.792 26.2021 16.9709C26.0218 17.1498 25.8795 17.3633 25.7838 17.5985C25.688 17.8338 25.6408 18.0859 25.6449 18.3399V27.9625C25.6449 28.4264 25.5102 28.576 25.0463 28.576H22.3825V23.6525C22.4006 22.5568 22.0174 21.4922 21.305 20.6595C20.9267 20.2342 20.4669 19.8892 19.9527 19.6449C19.4386 19.4007 18.8806 19.2623 18.312 19.2378H15.1693C14.1305 19.2656 13.1375 19.6718 12.377 20.3799C11.6164 21.0881 11.1406 22.0496 11.0389 23.0838C11.0389 23.3831 11.0389 23.6974 11.0389 24.0266V28.6359H8.30029C7.8663 28.6359 7.71665 28.4862 7.71665 28.0522V18.4895C7.74025 18.2085 7.70148 17.9257 7.60313 17.6613C7.50477 17.397 7.34925 17.1576 7.14768 16.9603C6.9461 16.763 6.70345 16.6127 6.43704 16.52C6.17064 16.4274 5.88706 16.3947 5.60657 16.4243H4.57398L10.56 10.4383C12.5953 8.35815 14.6305 6.32289 16.6658 4.28763L28.8624 16.4243L29.7902 16.8284L28.7726 16.4243Z" fill="white"/>
</svg>
