<svg xmlns="http://www.w3.org/2000/svg" width="32" height="32" viewBox="0 0 32 32" fill="none">
  <g clip-path="url(#clip0_7799_3816)">
    <path d="M3.40854 23.8432C3.40854 22.3546 3.4029 20.8659 3.41355 19.3779C3.41355 19.0914 3.33839 18.9678 3.03273 18.9622C2.16649 18.9446 1.39734 18.6612 0.804191 18.0072C-0.313836 16.7731 -0.260597 15.0406 0.92946 13.8122C1.50883 13.2146 2.10386 12.6327 2.692 12.0439C6.33274 8.40108 9.97285 4.75788 13.6123 1.11425C13.7788 0.942677 13.9542 0.780042 14.1378 0.627032C14.6107 0.2439 15.14 0.0626795 15.7663 0.0118878C16.88 -0.0821708 17.6936 0.378089 18.4458 1.13557C22.5797 5.2984 26.7245 9.4514 30.8801 13.5946C31.1087 13.8235 31.3392 14.0517 31.5133 14.3238C32.1259 15.2826 32.1396 16.3135 31.6874 17.303C31.2277 18.3107 30.3721 18.8424 29.2491 18.944C28.5751 19.0067 28.6139 18.8669 28.6133 19.6181C28.6133 22.439 28.6133 25.2608 28.6133 28.0834C28.6133 28.6879 28.5688 29.2867 28.3327 29.8586C28.0756 30.4831 27.6407 31.0182 27.0822 31.3972C26.5238 31.7763 25.8663 31.9826 25.1916 31.9906C23.5073 31.9968 21.8231 31.9906 20.1389 31.9906C19.433 31.9906 19.0572 31.6193 19.0565 30.9152C19.054 28.4793 19.054 26.0433 19.0565 23.6074C19.0565 22.9076 18.7596 22.3878 18.1095 22.0918C17.9172 22.0112 17.7096 21.9737 17.5013 21.9821C16.5136 21.9821 15.5258 21.9758 14.5381 21.9821C13.6048 21.9928 12.9741 22.6324 12.9728 23.5729C12.9691 25.9875 12.9691 28.4023 12.9728 30.8173C12.9728 31.652 12.6315 31.995 11.8028 31.995C10.1912 31.995 8.57902 31.9692 6.96806 32.0019C5.00697 32.0382 3.47054 30.4148 3.44298 28.7148C3.44298 28.6007 3.41229 28.4872 3.41229 28.3731C3.40979 26.864 3.40979 25.3546 3.41229 23.8451L3.40854 23.8432ZM26.6585 23.2895C26.6585 21.5413 26.6554 19.7924 26.6585 18.0436C26.6585 17.4165 27.0456 17.0321 27.6707 17.0227C28.0866 17.0171 28.5024 17.0196 28.9183 17.0227C29.3962 17.0227 29.7721 16.8484 29.9769 16.3956C30.1692 15.973 30.0714 15.5516 29.6963 15.1754C25.3954 10.8696 21.0944 6.5638 16.7935 2.25801C16.2969 1.76138 15.7175 1.76012 15.2245 2.25299C10.9182 6.56464 6.61146 10.8775 2.30429 15.1917C1.96418 15.5322 1.83766 15.9272 2.03371 16.3831C2.22161 16.8277 2.59241 17.0102 3.05528 17.0177C3.43108 17.0252 3.80689 17.0177 4.17769 17.0177C5.02576 17.0177 5.36086 17.3576 5.36148 18.2154C5.36148 21.5977 5.36148 24.9805 5.36148 28.3637C5.36148 29.4159 5.99973 30.063 7.04823 30.0693C8.25457 30.0762 9.46029 30.0636 10.6666 30.0768C10.946 30.0799 11.0205 29.9808 11.0193 29.7143C11.0105 27.8332 11.0143 25.947 11.0143 24.0627C11.0143 23.7611 11.0249 23.4613 11.0537 23.1597C11.2191 21.4297 12.6822 20.0514 14.4122 20.0244C15.4832 20.0075 16.5543 20 17.6247 20.0244C18.6168 20.0508 19.4518 20.459 20.1169 21.2033C20.7621 21.9244 21.0032 22.7879 21.0038 23.7341C21.0038 25.7219 21.0089 27.7103 21.0001 29.698C21.0001 29.9802 21.0803 30.0774 21.3721 30.0743C22.5572 30.0592 23.7428 30.0705 24.9279 30.0668C26.0209 30.0668 26.6585 29.4265 26.6591 28.3398C26.6616 26.6589 26.6614 24.9755 26.6585 23.2895Z" fill="white"/>
  </g>
  <defs>
    <clipPath id="clip0_7799_3816">
      <rect width="32" height="32" fill="white"/>
    </clipPath>
  </defs>
</svg>