<svg xmlns="http://www.w3.org/2000/svg" width="32" height="32" viewBox="0 0 32 32" fill="none">
<path d="M14.761 6.50733H14.6732C13.2976 6.50733 11.9122 6.50733 10.5366 6.50733H10.4195C10.4195 6.50733 10.4195 6.50734 10.4195 6.6049C10.4195 7.98051 10.4195 9.36587 10.4195 10.7512C10.4167 10.7837 10.4167 10.8163 10.4195 10.8488H14.761V10.761C14.761 9.37561 14.761 7.9805 14.761 6.59513C14.7707 6.53659 14.7707 6.51709 14.761 6.50733ZM14.761 6.50733H14.6732C13.2976 6.50733 11.9122 6.50733 10.5366 6.50733H10.4195C10.4195 6.50733 10.4195 6.50734 10.4195 6.6049C10.4195 7.98051 10.4195 9.36587 10.4195 10.7512C10.4167 10.7837 10.4167 10.8163 10.4195 10.8488H14.761V10.761C14.761 9.37561 14.761 7.9805 14.761 6.59513C14.7707 6.53659 14.7707 6.51709 14.761 6.50733ZM14.761 6.50733H14.6732C13.2976 6.50733 11.9122 6.50733 10.5366 6.50733H10.4195C10.4195 6.50733 10.4195 6.50734 10.4195 6.6049C10.4195 7.98051 10.4195 9.36587 10.4195 10.7512C10.4167 10.7837 10.4167 10.8163 10.4195 10.8488H14.761V10.761C14.761 9.37561 14.761 7.9805 14.761 6.59513C14.7707 6.53659 14.7707 6.51709 14.761 6.50733ZM14.761 6.50733H14.6732C13.2976 6.50733 11.9122 6.50733 10.5366 6.50733H10.4195C10.4195 6.50733 10.4195 6.50734 10.4195 6.6049C10.4195 7.98051 10.4195 9.36587 10.4195 10.7512C10.4167 10.7837 10.4167 10.8163 10.4195 10.8488H14.761V10.761C14.761 9.37561 14.761 7.9805 14.761 6.59513C14.7707 6.53659 14.7707 6.51709 14.761 6.50733ZM14.761 6.50733H14.6732C13.2976 6.50733 11.9122 6.50733 10.5366 6.50733H10.4195C10.4195 6.50733 10.4195 6.50734 10.4195 6.6049C10.4195 7.98051 10.4195 9.36587 10.4195 10.7512C10.4167 10.7837 10.4167 10.8163 10.4195 10.8488H14.761V10.761C14.761 9.37561 14.761 7.9805 14.761 6.59513C14.7707 6.53659 14.7707 6.51709 14.761 6.50733ZM14.761 6.50733H14.6732C13.2976 6.50733 11.9122 6.50733 10.5366 6.50733H10.4195C10.4195 6.50733 10.4195 6.50734 10.4195 6.6049C10.4195 7.98051 10.4195 9.36587 10.4195 10.7512C10.4167 10.7837 10.4167 10.8163 10.4195 10.8488H14.761V10.761C14.761 9.37561 14.761 7.9805 14.761 6.59513C14.7707 6.53659 14.7707 6.51709 14.761 6.50733ZM14.761 6.50733H14.6732C13.2976 6.50733 11.9122 6.50733 10.5366 6.50733H10.4195C10.4195 6.50733 10.4195 6.50734 10.4195 6.6049C10.4195 7.98051 10.4195 9.36587 10.4195 10.7512C10.4167 10.7837 10.4167 10.8163 10.4195 10.8488H14.761V10.761C14.761 9.37561 14.761 7.9805 14.761 6.59513C14.7707 6.53659 14.7707 6.51709 14.761 6.50733ZM14.761 6.50733H14.6732C13.2976 6.50733 11.9122 6.50733 10.5366 6.50733H10.4195C10.4195 6.50733 10.4195 6.50734 10.4195 6.6049C10.4195 7.98051 10.4195 9.36587 10.4195 10.7512C10.4167 10.7837 10.4167 10.8163 10.4195 10.8488H14.761V10.761C14.761 9.37561 14.761 7.9805 14.761 6.59513C14.7707 6.53659 14.7707 6.51709 14.761 6.50733ZM14.761 6.50733H14.6732C13.2976 6.50733 11.9122 6.50733 10.5366 6.50733H10.4195C10.4195 6.50733 10.4195 6.50734 10.4195 6.6049C10.4195 7.98051 10.4195 9.36587 10.4195 10.7512C10.4167 10.7837 10.4167 10.8163 10.4195 10.8488H14.761V10.761C14.761 9.37561 14.761 7.9805 14.761 6.59513C14.7707 6.53659 14.7707 6.51709 14.761 6.50733ZM14.761 6.50733H14.6732C13.2976 6.50733 11.9122 6.50733 10.5366 6.50733H10.4195C10.4195 6.50733 10.4195 6.50734 10.4195 6.6049C10.4195 7.98051 10.4195 9.36587 10.4195 10.7512C10.4167 10.7837 10.4167 10.8163 10.4195 10.8488H14.761V10.761C14.761 9.37561 14.761 7.9805 14.761 6.59513C14.7707 6.53659 14.7707 6.51709 14.761 6.50733ZM14.761 6.50733H14.6732C13.2976 6.50733 11.9122 6.50733 10.5366 6.50733H10.4195C10.4195 6.50733 10.4195 6.50734 10.4195 6.6049C10.4195 7.98051 10.4195 9.36587 10.4195 10.7512C10.4167 10.7837 10.4167 10.8163 10.4195 10.8488H14.761V10.761C14.761 9.37561 14.761 7.9805 14.761 6.59513C14.7707 6.53659 14.7707 6.51709 14.761 6.50733ZM14.761 6.50733H14.6732C13.2976 6.50733 11.9122 6.50733 10.5366 6.50733H10.4195C10.4195 6.50733 10.4195 6.50734 10.4195 6.6049C10.4195 7.98051 10.4195 9.36587 10.4195 10.7512C10.4167 10.7837 10.4167 10.8163 10.4195 10.8488H14.761V10.761C14.761 9.37561 14.761 7.9805 14.761 6.59513C14.7707 6.53659 14.7707 6.51709 14.761 6.50733ZM31.9805 2.66343C31.8846 2.21382 31.6997 1.78796 31.4366 1.41095C31.1736 1.03395 30.8377 0.713444 30.4488 0.468303C30.1024 0.271447 29.7318 0.120591 29.3463 0.0195312H6.68293H6.57561C6.11494 0.131582 5.67854 0.326634 5.2878 0.595137C4.77145 0.962226 4.37178 1.47029 4.13659 2.05855C3.999 2.42022 3.92634 2.80334 3.92195 3.19026V4.80975H3.6C3.2729 4.79916 2.94565 4.82535 2.62439 4.88781C1.89215 5.0516 1.23737 5.45949 0.767567 6.04454C0.297759 6.62958 0.040856 7.35699 0.0390301 8.10732V27.7561C0.0566917 28.8675 0.506699 29.9282 1.29357 30.7133C2.08044 31.4983 3.14224 31.9459 4.25366 31.961H27.8342C28.7634 31.9426 29.662 31.6252 30.3966 31.0558C31.1312 30.4864 31.6627 29.6954 31.9122 28.8L32.039 28.2537V2.76099L31.9805 2.66343ZM4.45854 29.2195C4.23342 29.2401 4.00651 29.2113 3.7937 29.1351C3.58089 29.0588 3.38732 28.9369 3.22654 28.778C3.06576 28.6191 2.94167 28.4269 2.86293 28.215C2.7842 28.0031 2.75272 27.7766 2.77073 27.5512V8.39025C2.749 8.17653 2.81207 7.9628 2.94634 7.79511C3.11684 7.66703 3.3293 7.60784 3.54147 7.62928H3.90244V27.5512C3.90208 27.9199 4.01648 28.2795 4.22976 28.5802C4.44305 28.8809 4.74464 29.1077 5.09268 29.2293L4.45854 29.2195ZM19.2878 5.99026C19.3851 5.98054 19.4832 5.98054 19.5805 5.99026H26.9756C27.7854 5.99026 27.9512 6.4 27.9512 6.74147C27.9552 6.93253 27.8853 7.11777 27.7561 7.25854C27.6473 7.34991 27.5214 7.41857 27.3857 7.46046C27.2499 7.50235 27.1072 7.51663 26.9659 7.50244H19.522C19.4442 7.51184 19.3656 7.51184 19.2878 7.50244C19.1136 7.48542 18.952 7.40399 18.8347 7.27405C18.7174 7.14412 18.6528 6.97505 18.6537 6.8C18.6429 6.70307 18.6516 6.60496 18.6793 6.51144C18.707 6.41792 18.7531 6.33089 18.8149 6.25545C18.8767 6.18001 18.953 6.11768 19.0392 6.07213C19.1254 6.02659 19.2199 5.99876 19.3171 5.99026H19.2878ZM27.2585 22.0976H19.6C19.4962 22.1073 19.3916 22.1073 19.2878 22.0976C19.1146 22.0737 18.9562 21.9869 18.8429 21.8537C18.7295 21.7206 18.6691 21.5504 18.6732 21.3756C18.6633 21.2018 18.7174 21.0305 18.8252 20.8939C18.9331 20.7572 19.0872 20.6649 19.2585 20.6341C19.3654 20.6206 19.4736 20.6206 19.5805 20.6341H27.2878C27.4767 20.6514 27.652 20.7394 27.7787 20.8805C27.9054 21.0217 27.974 21.2055 27.9707 21.3951C27.9634 21.5807 27.8857 21.7566 27.7534 21.8871C27.6212 22.0175 27.4442 22.0927 27.2585 22.0976ZM27.9707 24.2829C27.9734 24.4754 27.9001 24.6611 27.7668 24.7998C27.6335 24.9386 27.4509 25.0193 27.2585 25.0244H19.6C19.4962 25.0338 19.3917 25.0338 19.2878 25.0244C19.1146 25.0005 18.9562 24.9137 18.8429 24.7806C18.7295 24.6474 18.6691 24.4772 18.6732 24.3024C18.663 24.1275 18.7167 23.9549 18.8244 23.8166C18.9321 23.6784 19.0864 23.5841 19.2585 23.5512C19.3689 23.5421 19.4799 23.5421 19.5902 23.5512H27.2878C27.4725 23.5658 27.645 23.649 27.7714 23.7844C27.8977 23.9199 27.9689 24.0977 27.9707 24.2829ZM27.7854 18.9268C27.6718 19.0235 27.5396 19.0958 27.397 19.1395C27.2544 19.1831 27.1043 19.197 26.9561 19.1805H8.58537C8.4128 19.1594 8.25364 19.0767 8.13715 18.9477C8.02065 18.8186 7.95464 18.6519 7.95123 18.4781C7.93667 18.2945 7.99185 18.1122 8.10578 17.9675C8.21971 17.8229 8.38399 17.7265 8.56585 17.6976C8.67621 17.6879 8.78721 17.6879 8.89757 17.6976H26.9756C27.7854 17.6976 27.9512 18.1073 27.9512 18.4488C27.9533 18.6167 27.8944 18.7796 27.7854 18.9073V18.9268ZM27.3463 16.2342C27.2588 16.2442 27.1704 16.2442 27.0829 16.2342H8.94634C8.29268 16.2342 7.97073 15.9902 7.97073 15.4927C7.9653 15.3985 7.97892 15.3041 8.01077 15.2153C8.04262 15.1265 8.09205 15.0449 8.1561 14.9756C8.37687 14.793 8.66103 14.7053 8.94634 14.7317H27.0732C27.18 14.7175 27.2883 14.7175 27.3951 14.7317C27.5673 14.7623 27.7225 14.8543 27.832 14.9907C27.9414 15.127 27.9977 15.2985 27.9902 15.4732C28.0038 15.6591 27.944 15.8428 27.8236 15.9851C27.7032 16.1274 27.5319 16.2168 27.3463 16.2342ZM27.1902 13.3073H19.6098C19.4272 13.3277 19.2424 13.3008 19.0732 13.2293C18.9319 13.1596 18.8172 13.0456 18.7468 12.9046C18.6763 12.7637 18.6539 12.6036 18.6829 12.4488C18.6991 12.2967 18.7638 12.1539 18.8675 12.0414C18.9712 11.929 19.1083 11.8529 19.2585 11.8244C19.3687 11.8104 19.4801 11.8104 19.5902 11.8244H27.2098C27.31 11.8231 27.4096 11.8419 27.5025 11.8796C27.5954 11.9174 27.6798 11.9734 27.7508 12.0444C27.8217 12.1153 27.8777 12.1997 27.9155 12.2926C27.9533 12.3855 27.972 12.4851 27.9707 12.5854C27.9709 12.6861 27.9505 12.7858 27.9108 12.8784C27.8711 12.971 27.813 13.0546 27.74 13.124C27.6669 13.1933 27.5805 13.2471 27.486 13.282C27.3915 13.3169 27.2908 13.3321 27.1902 13.3268V13.3073ZM19.2878 8.89756C19.3884 8.88818 19.4896 8.88818 19.5902 8.89756H27.0049C27.1184 8.88634 27.2328 8.88634 27.3463 8.89756C27.5282 8.92644 27.6925 9.02284 27.8064 9.16751C27.9203 9.31218 27.9755 9.4945 27.961 9.67806C27.9594 9.85143 27.8937 10.0181 27.7767 10.1459C27.6596 10.2738 27.4994 10.3539 27.3268 10.3707C27.2491 10.3801 27.1705 10.3801 27.0927 10.3707H19.6488C19.5353 10.3826 19.4208 10.3826 19.3073 10.3707C19.1339 10.3516 18.9736 10.2696 18.8567 10.1401C18.7398 10.0106 18.6745 9.84272 18.6732 9.6683C18.667 9.48521 18.7297 9.30645 18.8489 9.16736C18.9681 9.02827 19.1352 8.93897 19.3171 8.91709L19.2878 8.89756ZM7.94146 5.31709C7.92833 5.14205 7.95314 4.96622 8.0142 4.80165C8.07525 4.63708 8.17112 4.48765 8.29524 4.36354C8.41936 4.23942 8.5688 4.14356 8.73337 4.08251C8.89794 4.02145 9.07374 3.99664 9.24877 4.00977H15.9122C16.0918 3.99327 16.2729 4.0165 16.4426 4.07783C16.6122 4.13917 16.7663 4.23707 16.8939 4.36464C17.0215 4.49221 17.1194 4.64628 17.1807 4.81594C17.2421 4.9856 17.2653 5.1667 17.2488 5.34635V11.9805C17.2651 12.158 17.2423 12.3369 17.182 12.5046C17.1218 12.6723 17.0255 12.8248 16.8999 12.9513C16.7743 13.0778 16.6226 13.1752 16.4553 13.2367C16.288 13.2982 16.1093 13.3223 15.9317 13.3073H9.25854C9.08095 13.3223 8.90222 13.2982 8.73495 13.2367C8.56767 13.1752 8.41592 13.0778 8.29036 12.9513C8.1648 12.8248 8.06849 12.6723 8.00821 12.5046C7.94793 12.3369 7.92514 12.158 7.94146 11.9805V5.31709ZM16.6049 27.9219H8.58537C8.41198 27.9028 8.25164 27.8208 8.13475 27.6913C8.01786 27.5618 7.95257 27.3939 7.95123 27.2195C7.93691 27.0371 7.99241 26.856 8.10651 26.7129C8.22061 26.5698 8.38479 26.4754 8.56585 26.4488C8.67295 26.4391 8.7807 26.4391 8.8878 26.4488H16.2537C16.377 26.4374 16.5011 26.4374 16.6244 26.4488C16.8065 26.4732 16.9721 26.567 17.0866 26.7106C17.2011 26.8542 17.2558 27.0366 17.239 27.2195C17.2425 27.3973 17.1794 27.57 17.0621 27.7036C16.9447 27.8372 16.7816 27.922 16.6049 27.9415V27.9219ZM16.6049 24.9951H16.361H8.87805C8.77747 25.0048 8.6762 25.0048 8.57562 24.9951C8.40223 24.976 8.24189 24.8939 8.125 24.7645C8.00811 24.635 7.9428 24.4671 7.94146 24.2927C7.92715 24.1102 7.98266 23.9292 8.09676 23.7861C8.21086 23.643 8.37504 23.5486 8.5561 23.522C8.65668 23.5123 8.75795 23.5123 8.85854 23.522H16.2732C16.3867 23.5107 16.5011 23.5107 16.6146 23.522C16.7957 23.5486 16.9599 23.643 17.074 23.7861C17.1881 23.9292 17.2436 24.1102 17.2293 24.2927C17.2333 24.4675 17.1729 24.6377 17.0596 24.7708C16.9462 24.9039 16.7878 24.9907 16.6146 25.0146L16.6049 24.9951ZM16.6049 22.0683H8.85854C8.78077 22.0777 8.70215 22.0777 8.62438 22.0683C8.45183 22.0514 8.29161 21.9714 8.17454 21.8435C8.05747 21.7156 7.99183 21.549 7.99024 21.3756C7.97569 21.192 8.03089 21.0097 8.14481 20.8651C8.25874 20.7204 8.42302 20.624 8.60488 20.5951C8.7022 20.5854 8.80025 20.5854 8.89757 20.5951H16.6244C16.8132 20.6172 16.9866 20.7099 17.1098 20.8548C17.2329 20.9996 17.2965 21.1857 17.2878 21.3756C17.2829 21.5655 17.2052 21.7463 17.0709 21.8807C16.9365 22.015 16.7558 22.0926 16.5659 22.0976L16.6049 22.0683ZM27.9415 27.4829C27.893 27.5895 27.82 27.683 27.7284 27.756C27.6369 27.8289 27.5293 27.8791 27.4146 27.9024C27.3082 27.9216 27.1991 27.9216 27.0927 27.9024H19.4732C19.373 27.9065 19.273 27.8899 19.1795 27.8537C19.086 27.8175 19.0009 27.7625 18.9296 27.6921C18.8582 27.6216 18.8021 27.5373 18.7647 27.4442C18.7273 27.3512 18.7094 27.2515 18.7122 27.1512C18.7108 27.0505 18.7299 26.9506 18.7684 26.8575C18.8069 26.7645 18.8639 26.6802 18.9361 26.6099C19.0082 26.5396 19.0939 26.4848 19.1879 26.4487C19.2819 26.4126 19.3823 26.396 19.4829 26.4H27.122C27.2759 26.3825 27.4315 26.4101 27.5701 26.4793C27.7086 26.5486 27.8241 26.6566 27.9024 26.7902C27.9668 26.8997 28.0007 27.0243 28.0007 27.1512C28.0007 27.2782 27.9668 27.4028 27.9024 27.5122L27.9415 27.4829ZM10.4781 10.8195H14.8098V10.7317C14.8098 9.34634 14.8098 7.95123 14.8098 6.56586C14.8098 6.50733 14.8098 6.48782 14.8098 6.47806H14.722C13.3463 6.47806 11.961 6.47806 10.5854 6.47806H10.4683C10.4683 6.47806 10.4683 6.47804 10.4683 6.5756C10.4683 7.95121 10.4683 9.33658 10.4683 10.7219C10.4655 10.7544 10.4655 10.787 10.4683 10.8195H10.4781ZM14.8 6.47806H14.7122C13.3366 6.47806 11.9512 6.47806 10.5756 6.47806H10.4585C10.4585 6.47806 10.4585 6.47804 10.4585 6.5756C10.4585 7.95121 10.4585 9.33658 10.4585 10.7219C10.4557 10.7544 10.4557 10.787 10.4585 10.8195H14.8V10.7317C14.8 9.34634 14.8 7.95123 14.8 6.56586C14.7707 6.5366 14.7707 6.51709 14.761 6.50733L14.8 6.47806ZM14.8 6.47806H14.7122C13.3366 6.47806 11.9512 6.47806 10.5756 6.47806H10.4585C10.4585 6.47806 10.4585 6.47804 10.4585 6.5756C10.4585 7.95121 10.4585 9.33658 10.4585 10.7219C10.4557 10.7544 10.4557 10.787 10.4585 10.8195H14.8V10.7317C14.8 9.34634 14.8 7.95123 14.8 6.56586C14.7707 6.5366 14.7707 6.51709 14.761 6.50733L14.8 6.47806ZM14.8 6.47806H14.7122C13.3366 6.47806 11.9512 6.47806 10.5756 6.47806H10.4585C10.4585 6.47806 10.4585 6.47804 10.4585 6.5756C10.4585 7.95121 10.4585 9.33658 10.4585 10.7219C10.4557 10.7544 10.4557 10.787 10.4585 10.8195H14.8V10.7317C14.8 9.34634 14.8 7.95123 14.8 6.56586C14.7707 6.5366 14.7707 6.51709 14.761 6.50733L14.8 6.47806ZM14.8 6.47806H14.7122C13.3366 6.47806 11.9512 6.47806 10.5756 6.47806H10.4585C10.4585 6.47806 10.4585 6.47804 10.4585 6.5756C10.4585 7.95121 10.4585 9.33658 10.4585 10.7219C10.4557 10.7544 10.4557 10.787 10.4585 10.8195H14.8V10.7317C14.8 9.34634 14.8 7.95123 14.8 6.56586C14.7707 6.5366 14.7707 6.51709 14.761 6.50733L14.8 6.47806ZM14.8 6.47806H14.7122C13.3366 6.47806 11.9512 6.47806 10.5756 6.47806H10.4585C10.4585 6.47806 10.4585 6.47804 10.4585 6.5756C10.4585 7.95121 10.4585 9.33658 10.4585 10.7219C10.4557 10.7544 10.4557 10.787 10.4585 10.8195H14.8V10.7317C14.8 9.34634 14.8 7.95123 14.8 6.56586C14.7707 6.5366 14.7707 6.51709 14.761 6.50733L14.8 6.47806ZM14.8 6.47806H14.7122C13.3366 6.47806 11.9512 6.47806 10.5756 6.47806H10.4585C10.4585 6.47806 10.4585 6.47804 10.4585 6.5756C10.4585 7.95121 10.4585 9.33658 10.4585 10.7219C10.4557 10.7544 10.4557 10.787 10.4585 10.8195H14.8V10.7317C14.8 9.34634 14.8 7.95123 14.8 6.56586C14.7707 6.5366 14.7707 6.51709 14.761 6.50733L14.8 6.47806ZM14.8 6.47806H14.7122C13.3366 6.47806 11.9512 6.47806 10.5756 6.47806H10.4585C10.4585 6.47806 10.4585 6.47804 10.4585 6.5756C10.4585 7.95121 10.4585 9.33658 10.4585 10.7219C10.4557 10.7544 10.4557 10.787 10.4585 10.8195H14.8V10.7317C14.8 9.34634 14.8 7.95123 14.8 6.56586C14.7707 6.5366 14.7707 6.51709 14.761 6.50733L14.8 6.47806ZM14.8 6.47806H14.7122C13.3366 6.47806 11.9512 6.47806 10.5756 6.47806H10.4585C10.4585 6.47806 10.4585 6.47804 10.4585 6.5756C10.4585 7.95121 10.4585 9.33658 10.4585 10.7219C10.4557 10.7544 10.4557 10.787 10.4585 10.8195H14.8V10.7317C14.8 9.34634 14.8 7.95123 14.8 6.56586C14.7707 6.5366 14.7707 6.51709 14.761 6.50733L14.8 6.47806ZM14.8 6.47806H14.7122C13.3366 6.47806 11.9512 6.47806 10.5756 6.47806H10.4585C10.4585 6.47806 10.4585 6.47804 10.4585 6.5756C10.4585 7.95121 10.4585 9.33658 10.4585 10.7219C10.4557 10.7544 10.4557 10.787 10.4585 10.8195H14.8V10.7317C14.8 9.34634 14.8 7.95123 14.8 6.56586C14.7707 6.5366 14.7707 6.51709 14.761 6.50733L14.8 6.47806ZM14.8 6.47806H14.7122C13.3366 6.47806 11.9512 6.47806 10.5756 6.47806H10.4585C10.4585 6.47806 10.4585 6.47804 10.4585 6.5756C10.4585 7.95121 10.4585 9.33658 10.4585 10.7219C10.4557 10.7544 10.4557 10.787 10.4585 10.8195H14.8V10.7317C14.8 9.34634 14.8 7.95123 14.8 6.56586C14.7707 6.5366 14.7707 6.51709 14.761 6.50733L14.8 6.47806Z" fill="white"/>
</svg>