<svg xmlns="http://www.w3.org/2000/svg" width="32" height="32" viewBox="0 0 32 32" fill="none">
  <g clip-path="url(#clip0_10436_4007)">
    <path d="M32 2.66343C31.9042 2.21382 31.7192 1.78796 31.4562 1.41095C31.1931 1.03395 30.8572 0.713444 30.4683 0.468303C30.1219 0.271447 29.7513 0.120591 29.3659 0.0195312H6.70248H6.59516C6.13449 0.131582 5.69809 0.326634 5.30735 0.595137C4.88326 0.892062 4.53626 1.28604 4.29528 1.74424C4.0543 2.20244 3.92632 2.71158 3.92199 3.22927C3.92199 3.59024 3.92199 3.95122 3.92199 4.30244V4.84878H3.60003C3.27293 4.83819 2.94568 4.86439 2.62442 4.92685C1.89219 5.09063 1.23741 5.49852 0.767599 6.08357C0.297791 6.66861 0.0408884 7.39602 0.0390625 8.14635V27.7951C0.0567241 28.9065 0.506731 29.9673 1.2936 30.7523C2.08047 31.5374 3.14227 31.9849 4.25369 32H27.8342C28.7635 31.9817 29.662 31.6642 30.3967 31.0948C31.1313 30.5254 31.6627 29.7344 31.9122 28.839L32.0391 28.2927V2.76099L32 2.66343ZM29.2683 27.5317C29.2896 27.8952 29.1847 28.2549 28.9714 28.55C28.7581 28.8451 28.4494 29.0574 28.0976 29.1512C27.9065 29.2017 27.7099 29.2279 27.5122 29.2293H4.41954C4.19442 29.2499 3.96751 29.2211 3.7547 29.1448C3.54189 29.0685 3.34833 28.9467 3.18755 28.7878C3.02678 28.6288 2.90267 28.4367 2.82393 28.2248C2.7452 28.0129 2.71374 27.7863 2.73174 27.561V8.39025C2.71001 8.17653 2.77307 7.9628 2.90734 7.79511C3.07784 7.66703 3.2903 7.60784 3.50247 7.62928H3.86345V26.5366C3.84386 26.6953 3.84386 26.8559 3.86345 27.0146C3.92935 27.3435 4.11392 27.6366 4.382 27.8381C4.65008 28.0396 4.98291 28.1354 5.3171 28.1073C5.647 28.0848 5.95776 27.9442 6.19246 27.7113C6.42717 27.4784 6.57013 27.1687 6.59516 26.839C6.59516 26.722 6.59516 26.6049 6.59516 26.4878V3.4439C6.59516 2.97561 6.80979 2.76098 7.27809 2.75123H28.5659C28.7237 2.75123 28.8751 2.81391 28.9867 2.92552C29.0983 3.03713 29.161 3.1885 29.161 3.34633C29.1659 3.43407 29.1659 3.52203 29.161 3.60977L29.2683 27.5317Z" fill="white"/>
    <path d="M15.9121 4.02957H9.24871C9.07368 4.01644 8.89788 4.04125 8.73331 4.10231C8.56874 4.16336 8.4193 4.25922 8.29518 4.38334C8.17106 4.50745 8.07519 4.65691 8.01414 4.82148C7.95308 4.98605 7.92827 5.16185 7.9414 5.33688V12.0003C7.92508 12.1778 7.94787 12.3567 8.00815 12.5244C8.06843 12.6921 8.16474 12.8446 8.2903 12.9711C8.41586 13.0976 8.56761 13.195 8.73489 13.2565C8.90216 13.318 9.08089 13.3421 9.25848 13.3271H15.9316C16.1092 13.3421 16.288 13.318 16.4552 13.2565C16.6225 13.195 16.7743 13.0976 16.8998 12.9711C17.0254 12.8446 17.1217 12.6921 17.182 12.5244C17.2423 12.3567 17.265 12.1778 17.2487 12.0003V5.36615C17.2652 5.1865 17.242 5.00543 17.1807 4.83577C17.1193 4.66611 17.0214 4.51203 16.8938 4.38447C16.7663 4.2569 16.6122 4.15897 16.4425 4.09763C16.2729 4.0363 16.0918 4.01306 15.9121 4.02957ZM14.7707 6.59543C14.7707 7.9808 14.7707 9.37591 14.7707 10.7613V10.8491H10.4292C10.4264 10.8166 10.4264 10.784 10.4292 10.7515C10.4292 9.36617 10.4292 7.9808 10.4292 6.6052C10.4292 6.54666 10.4292 6.51738 10.4292 6.50763H10.5463C11.9219 6.50763 13.3073 6.50763 14.6829 6.50763H14.7707C14.7707 6.50763 14.7707 6.53689 14.7707 6.59543Z" fill="white"/>
    <path d="M27.9708 15.5119C27.9745 15.6881 27.9128 15.8596 27.7974 15.9929C27.6821 16.1263 27.5214 16.2121 27.3464 16.2338C27.2589 16.2439 27.1705 16.2439 27.083 16.2338H8.94637C8.29272 16.2338 7.97077 15.9899 7.97077 15.4923C7.96534 15.3981 7.97896 15.3038 8.01081 15.215C8.04266 15.1261 8.09208 15.0446 8.15613 14.9753C8.37691 14.7926 8.66107 14.7049 8.94637 14.7314H27.0732C27.1801 14.7171 27.2883 14.7171 27.3952 14.7314C27.5709 14.7668 27.7271 14.8663 27.8335 15.0106C27.9399 15.1548 27.9888 15.3335 27.9708 15.5119Z" fill="white"/>
    <path d="M27.9708 18.4197C27.9754 18.5123 27.9614 18.605 27.9296 18.6921C27.8977 18.7793 27.8487 18.8591 27.7854 18.927C27.6718 19.0236 27.5396 19.096 27.397 19.1396C27.2544 19.1832 27.1044 19.1972 26.9561 19.1806H8.58541C8.41284 19.1595 8.25368 19.0768 8.13718 18.9478C8.02069 18.8188 7.95468 18.652 7.95127 18.4782C7.93671 18.2946 7.99189 18.1123 8.10582 17.9677C8.21975 17.823 8.38403 17.7266 8.56589 17.6977C8.67625 17.688 8.78725 17.688 8.89761 17.6977H26.9756C27.7854 17.6684 27.961 18.0782 27.9708 18.4197Z" fill="white"/>
    <path d="M17.2488 21.3854C17.2422 21.5673 17.169 21.7403 17.043 21.8716C16.9171 22.0029 16.7473 22.0834 16.5659 22.0976H8.81956C8.74179 22.107 8.66317 22.107 8.58541 22.0976C8.41286 22.0808 8.25263 22.0007 8.13556 21.8728C8.01849 21.745 7.95285 21.5783 7.95127 21.405C7.93671 21.2214 7.99189 21.0391 8.10582 20.8944C8.21975 20.7498 8.38403 20.6534 8.56589 20.6245C8.66321 20.6148 8.76126 20.6148 8.85858 20.6245H16.5854C16.7708 20.6463 16.9414 20.7362 17.064 20.8769C17.1866 21.0176 17.2525 21.1989 17.2488 21.3854Z" fill="white"/>
    <path d="M27.9707 21.3659C27.9708 21.5566 27.8964 21.7399 27.7633 21.8766C27.6303 22.0132 27.4492 22.0925 27.2585 22.0976H19.6C19.4961 22.1073 19.3916 22.1073 19.2878 22.0976C19.1146 22.0737 18.9562 21.9869 18.8429 21.8538C18.7295 21.7207 18.6691 21.5505 18.6731 21.3757C18.6633 21.2019 18.7174 21.0305 18.8252 20.8939C18.9331 20.7573 19.0872 20.6649 19.2585 20.6342C19.3654 20.6206 19.4736 20.6206 19.5805 20.6342H27.2878C27.4716 20.6509 27.6429 20.7348 27.7689 20.8698C27.8948 21.0047 27.9667 21.1813 27.9707 21.3659Z" fill="white"/>
    <path d="M17.239 24.3124C17.2379 24.4853 17.174 24.6519 17.0591 24.7812C16.9442 24.9104 16.7862 24.9935 16.6146 25.0148H16.3707H8.88777C8.78718 25.0245 8.68591 25.0245 8.58533 25.0148C8.41195 24.9957 8.2516 24.9136 8.13471 24.7841C8.01782 24.6546 7.95253 24.4868 7.95119 24.3124C7.93687 24.1299 7.99237 23.9488 8.10647 23.8057C8.22057 23.6627 8.38476 23.5683 8.56581 23.5416C8.66639 23.5319 8.76767 23.5319 8.86825 23.5416H16.2829C16.3964 23.5304 16.5108 23.5304 16.6244 23.5416C16.8054 23.5683 16.9696 23.6627 17.0837 23.8057C17.1978 23.9488 17.2533 24.1299 17.239 24.3124Z" fill="white"/>
    <path d="M27.9708 24.2825C27.9734 24.4749 27.9002 24.6606 27.7669 24.7994C27.6336 24.9382 27.451 25.0188 27.2586 25.024H19.6001C19.4962 25.0334 19.3917 25.0334 19.2879 25.024C19.1147 25 18.9563 24.9133 18.8429 24.7801C18.7296 24.647 18.6692 24.4768 18.6732 24.302C18.663 24.1271 18.7168 23.9544 18.8245 23.8162C18.9322 23.678 19.0865 23.5837 19.2586 23.5508C19.369 23.5417 19.4799 23.5417 19.5903 23.5508H27.2879C27.4725 23.5654 27.645 23.6486 27.7714 23.784C27.8978 23.9194 27.9689 24.0973 27.9708 24.2825Z" fill="white"/>
    <path d="M17.239 27.2393C17.2376 27.4137 17.1723 27.5815 17.0555 27.711C16.9386 27.8405 16.7782 27.9226 16.6048 27.9417H8.58533C8.41195 27.9226 8.2516 27.8405 8.13471 27.711C8.01782 27.5815 7.95253 27.4137 7.95119 27.2393C7.93687 27.0568 7.99237 26.8757 8.10647 26.7326C8.22057 26.5896 8.38476 26.4952 8.56581 26.4685C8.67291 26.4588 8.78067 26.4588 8.88777 26.4685H16.2536C16.3769 26.4571 16.501 26.4571 16.6244 26.4685C16.8064 26.4929 16.972 26.5867 17.0866 26.7304C17.2011 26.874 17.2557 27.0563 17.239 27.2393Z" fill="white"/>
    <path d="M27.9024 27.5119C27.8539 27.6184 27.7809 27.712 27.6894 27.7849C27.5978 27.8578 27.4903 27.908 27.3756 27.9314C27.2691 27.9506 27.1601 27.9506 27.0536 27.9314H19.4341C19.3339 27.9354 19.234 27.9188 19.1405 27.8827C19.0469 27.8465 18.9619 27.7915 18.8905 27.721C18.8192 27.6506 18.763 27.5662 18.7256 27.4732C18.6883 27.3801 18.6704 27.2804 18.6731 27.1802C18.6717 27.0795 18.6909 26.9795 18.7293 26.8865C18.7678 26.7934 18.8249 26.7092 18.897 26.6389C18.9691 26.5686 19.0548 26.5137 19.1488 26.4776C19.2428 26.4415 19.3432 26.425 19.4439 26.4289H27.1219C27.2758 26.4115 27.4315 26.439 27.5701 26.5083C27.7086 26.5776 27.8241 26.6856 27.9024 26.8192C27.9614 26.9251 27.9923 27.0443 27.9923 27.1655C27.9923 27.2868 27.9614 27.406 27.9024 27.5119Z" fill="white"/>
    <path d="M27.9708 6.72242C27.9748 6.91348 27.9049 7.09872 27.7757 7.23949C27.6669 7.33087 27.5409 7.39953 27.4052 7.44142C27.2695 7.48331 27.1268 7.49758 26.9854 7.4834H19.5415C19.4638 7.4928 19.3851 7.4928 19.3074 7.4834C19.1331 7.46638 18.9716 7.38491 18.8543 7.25498C18.737 7.12504 18.6724 6.956 18.6732 6.78096C18.6612 6.599 18.7176 6.41911 18.8313 6.27654C18.945 6.13397 19.1078 6.039 19.2879 6.01022C19.3852 6.0005 19.4832 6.0005 19.5805 6.01022H26.9757C27.7854 5.97119 27.961 6.38096 27.9708 6.72242Z" fill="white"/>
    <path d="M27.961 9.69709C27.9594 9.87046 27.8938 10.0371 27.7767 10.165C27.6597 10.2929 27.4994 10.3729 27.3269 10.3898C27.2491 10.3992 27.1705 10.3992 27.0927 10.3898H19.6488C19.5353 10.4017 19.4209 10.4017 19.3074 10.3898C19.134 10.3707 18.9736 10.2886 18.8568 10.1591C18.7399 10.0296 18.6746 9.86175 18.6732 9.68733C18.6612 9.50537 18.7176 9.32551 18.8313 9.18294C18.945 9.04037 19.1078 8.9454 19.2879 8.91662C19.3885 8.90724 19.4897 8.90724 19.5903 8.91662H27.0049C27.1185 8.9054 27.2329 8.9054 27.3464 8.91662C27.5283 8.9455 27.6925 9.0419 27.8065 9.18657C27.9204 9.33124 27.9756 9.51353 27.961 9.69709Z" fill="white"/>
    <path d="M27.9707 12.5849C27.9708 12.6857 27.9504 12.7854 27.9108 12.878C27.8711 12.9706 27.813 13.0541 27.7399 13.1235C27.6669 13.1929 27.5805 13.2467 27.486 13.2816C27.3914 13.3165 27.2908 13.3317 27.1902 13.3264H19.6097C19.4271 13.3468 19.2424 13.3199 19.0731 13.2484C18.9318 13.1787 18.8172 13.0647 18.7468 12.9238C18.6763 12.7828 18.6539 12.6227 18.6829 12.4679C18.6991 12.3158 18.7638 12.173 18.8675 12.0605C18.9711 11.9481 19.1082 11.872 19.2585 11.8435C19.3686 11.8295 19.4801 11.8295 19.5902 11.8435H27.2097C27.3084 11.8422 27.4063 11.8603 27.498 11.8969C27.5896 11.9335 27.6731 11.9877 27.7438 12.0566C27.8145 12.1254 27.8709 12.2075 27.9098 12.2982C27.9487 12.3888 27.9694 12.4863 27.9707 12.5849Z" fill="white"/>
  </g>
  <defs>
    <clipPath id="clip0_10436_4007">
      <rect width="32" height="32" fill="white"/>
    </clipPath>
  </defs>
</svg>