<svg width="27" height="37" viewBox="0 0 27 37" fill="none" xmlns="http://www.w3.org/2000/svg">
<path d="M18.6806 0.90686C23.2537 0.90686 26.9494 2.82852 27 7.71347V34.9758C27 35.2811 26.9325 35.5865 26.7975 35.8558C26.5781 36.2869 26.2069 36.6101 25.7513 36.7538C25.3125 36.8975 24.8231 36.8256 24.4181 36.5742L13.4831 30.7554L2.53125 36.5742C2.27981 36.7161 1.99125 36.8077 1.70438 36.8077C0.759375 36.8077 0 35.9816 0 34.9758V7.71347C0 2.82852 3.7125 0.90686 8.26875 0.90686H18.6806ZM19.8281 11.7543H7.12125C6.39563 11.7543 5.805 12.3829 5.805 13.1731C5.805 13.9615 6.39563 14.5919 7.12125 14.5919H19.8281C20.5537 14.5919 21.1444 13.9615 21.1444 13.1731C21.1444 12.3829 20.5537 11.7543 19.8281 11.7543Z" fill="url(#paint0_linear_84_3455)"/>
<defs>
<linearGradient id="paint0_linear_84_3455" x1="0" y1="0.90686" x2="27.1994" y2="1.05846" gradientUnits="userSpaceOnUse">
<stop stop-color="#6BA5CF"/>
<stop offset="1" stop-color="#389CE3"/>
</linearGradient>
</defs>
</svg>
