<svg width="21" height="28" viewBox="0 0 21 28" fill="none" xmlns="http://www.w3.org/2000/svg">
<path id="Vector" d="M14.5294 0C18.0863 0 20.9606 1.49794 21 5.30579V26.557C21 26.795 20.9475 27.033 20.8425 27.2429C20.6719 27.5789 20.3831 27.8309 20.0288 27.9429C19.6875 28.0549 19.3069 27.9989 18.9919 27.8029L10.4869 23.2671L1.96875 27.8029C1.77319 27.9135 1.54875 27.9849 1.32563 27.9849C0.590625 27.9849 0 27.3409 0 26.557V5.30579C0 1.49794 2.8875 0 6.43125 0H14.5294ZM15.4219 8.45567H5.53875C4.97438 8.45567 4.515 8.94565 4.515 9.56163C4.515 10.1762 4.97438 10.6676 5.53875 10.6676H15.4219C15.9862 10.6676 16.4456 10.1762 16.4456 9.56163C16.4456 8.94565 15.9862 8.45567 15.4219 8.45567Z" fill="white"/>
</svg>
