<svg width="40" height="40" viewBox="0 0 40 40" fill="none" xmlns="http://www.w3.org/2000/svg">
<g id="Group 85">
<circle id="Ellipse 4" cx="20" cy="20" r="20" fill="#AE642E"/>
<path id="Vector" d="M20.0714 11.6333C19.2143 12.4778 19.2143 13.7444 20.0714 14.5889L20.7143 15.2222H15.1429C13.8571 15.2222 13 16.0667 13 17.3333C13 18.6 13.8571 19.4444 15.1429 19.4444H25.8571C26.7143 19.4444 27.5714 19.0222 27.7857 18.1778C28 17.3333 28 16.4889 27.3571 15.8556L23.0714 11.6333C22.2143 10.7889 20.9286 10.7889 20.0714 11.6333ZM28 23.6667C28 22.4 27.1429 21.5556 25.8571 21.5556H15.1429C14.2857 21.5556 13.4286 21.9778 13.2143 22.8222C13 23.6667 13 24.5111 13.6429 25.1444L17.9286 29.3667C18.3571 29.7889 19 30 19.4286 30C19.8571 30 20.5 29.7889 20.9286 29.3667C21.7857 28.5222 21.7857 27.2556 20.9286 26.4111L20.2857 25.7778H25.8571C27.1429 25.7778 28 24.9333 28 23.6667Z" fill="#D6D6D6"/>
</g>
</svg>
