<svg width="40" height="40" viewBox="0 0 40 40" fill="none" xmlns="http://www.w3.org/2000/svg">
<g id="Group 54">
<g id="Group 54_2">
<g id="Group 48">
<circle id="Ellipse 7" cx="20" cy="20" r="20" fill="#7692F8"/>
</g>
<path id="?" d="M17.5943 24.4566V24.184C17.6015 22.9187 17.7246 21.912 17.9635 21.164C18.2097 20.416 18.5573 19.8147 19.0062 19.3603C19.4551 18.899 20.0018 18.476 20.6462 18.0915C21.0879 17.8259 21.4825 17.5357 21.8301 17.2212C22.1849 16.8996 22.4637 16.5431 22.6664 16.1516C22.8691 15.7531 22.9705 15.3092 22.9705 14.8198C22.9705 14.2676 22.8366 13.7887 22.5687 13.3832C22.3008 12.9778 21.9387 12.6632 21.4825 12.4395C21.0336 12.2158 20.5304 12.1039 19.9728 12.1039C19.4588 12.1039 18.97 12.2123 18.5066 12.429C18.0504 12.6387 17.6703 12.9603 17.3662 13.3937C17.0693 13.8201 16.9028 14.3619 16.8666 15.0191H13C13.0362 13.6908 13.3693 12.5793 13.9992 11.6845C14.6364 10.7896 15.4763 10.1185 16.519 9.67111C17.5689 9.2237 18.7274 9 19.9946 9C21.3776 9 22.594 9.23419 23.6439 9.70257C24.7011 10.171 25.5229 10.8386 26.1094 11.7054C26.7031 12.5653 27 13.586 27 14.7674C27 15.5643 26.866 16.2774 26.5981 16.9066C26.3375 17.5357 25.9646 18.095 25.4794 18.5844C24.9943 19.0737 24.4187 19.5106 23.7525 19.8951C23.166 20.2447 22.6845 20.6082 22.308 20.9857C21.9387 21.3632 21.6636 21.8071 21.4825 22.3174C21.3088 22.8208 21.2183 23.443 21.211 24.184V24.4566H17.5943ZM19.4841 31C18.8324 31 18.2713 30.7763 17.8006 30.3289C17.33 29.8815 17.0946 29.3362 17.0946 28.693C17.0946 28.0639 17.33 27.5256 17.8006 27.0782C18.2713 26.6308 18.8324 26.4071 19.4841 26.4071C20.1285 26.4071 20.6861 26.6308 21.1567 27.0782C21.6346 27.5256 21.8735 28.0639 21.8735 28.693C21.8735 29.1195 21.7613 29.5075 21.5369 29.857C21.3196 30.2065 21.03 30.4862 20.668 30.6959C20.3132 30.8986 19.9185 31 19.4841 31Z" fill="white"/>
</g>
</g>
</svg>
