<svg width="40" height="40" viewBox="0 0 40 40" fill="none" xmlns="http://www.w3.org/2000/svg">
<g id="Group 51">
<circle id="Ellipse 5" cx="20" cy="20" r="20" fill="#C79D07"/>
<path id="Vector" d="M25.9625 11.1875C25.8438 10.8313 25.725 10.3563 25.4875 10H15.6312C15.3938 10.3563 15.275 10.8313 15.1562 11.1875H11C11 14.9875 13.2562 18.075 16.4625 19.6188C17.175 20.6875 18.2438 21.4 19.3125 21.6375V25.4375H18.125V26.625H16.9375V29H24.0625V26.625H22.875V25.4375H21.6875V21.6375C22.875 21.2812 23.825 20.5688 24.6562 19.5C27.625 18.1938 30 14.9875 30 11.1875H25.9625ZM12.3062 12.375H14.9188C14.6813 12.9688 14.6812 13.4437 14.6812 14.1562C14.6812 15.3438 14.9187 16.2937 15.275 17.2438C13.6125 15.9375 12.5437 14.5125 12.3062 12.375ZM25.8438 17.125C26.2 16.175 26.4375 15.3438 26.4375 14.1562C26.4375 13.5625 26.4375 13.0875 26.3187 12.4937H28.8125C28.4562 14.3937 27.3875 15.9375 25.8438 17.125Z" fill="#D6D6D6"/>
</g>
</svg>
