<svg width="40" height="40" viewBox="0 0 40 40" fill="none" xmlns="http://www.w3.org/2000/svg">
<g id="Group 53">
<g id="Group 48">
<circle id="Ellipse 7" cx="20" cy="20" r="20" fill="#078340"/>
<g id="Graduation Cap">
<path id="Vector" d="M35.5926 15.1302L20.078 7.03564L4.56348 15.1302L20.078 23.2247C27.5722 19.3191 26.8235 19.7711 26.8235 19.5754L19.7542 15.7238C19.5968 15.6343 19.4814 15.486 19.4333 15.3114C19.3852 15.1369 19.4085 14.9504 19.4979 14.7929C19.5874 14.6355 19.7357 14.52 19.9103 14.472C20.0848 14.4239 20.2714 14.4471 20.4288 14.5366L27.8488 18.5839C28.5233 18.9751 27.4845 19.3731 29.5487 18.3006L35.5926 15.1302Z" fill="#D6D6D6"/>
<path id="Vector_2" d="M20.0784 24.7491L10.6348 19.8519V24.5737C10.6348 28.1083 20.8204 30.0443 26.8239 27.4001V21.2347L20.0784 24.7491ZM29.522 24.5737V19.8519L28.173 20.5264V26.6581C28.5483 26.444 28.8667 26.143 29.1015 25.7803C29.3363 25.4176 29.4805 25.0038 29.522 24.5737ZM26.8239 21.2347L28.173 20.5264V19.1773C28.173 18.9278 28.2809 18.948 26.8239 19.7102V21.2347ZM26.8239 31.508C25.9267 32.0274 26.1493 32.7964 26.1493 35.3664H28.8475V32.6683C28.8461 32.4328 28.7831 32.2019 28.6647 31.9983C28.5464 31.7948 28.3769 31.6258 28.173 31.508V26.6581C27.7502 26.9515 27.2981 27.2002 26.8239 27.4001V31.508Z" fill="#D6D6D6"/>
</g>
</g>
</g>
</svg>
