<svg width="40" height="40" viewBox="0 0 40 40" fill="none" xmlns="http://www.w3.org/2000/svg">
<g id="Group 58">
<circle id="Ellipse 4" cx="20" cy="20" r="20" fill="#DC1010"/>
<path id="!" d="M23 10L22.5357 23.5385H18.4644L18.0001 10H23ZM20.5001 30C19.8096 30 19.2173 29.7404 18.7233 29.2212C18.2352 28.6955 17.9942 28.0577 18.0001 27.3077C17.9942 26.5769 18.2352 25.9519 18.7233 25.4327C19.2173 24.9135 19.8096 24.6538 20.5001 24.6538C21.1548 24.6538 21.7322 24.9135 22.2322 25.4327C22.7381 25.9519 22.994 26.5769 23 27.3077C22.994 27.8077 22.872 28.2628 22.6339 28.6731C22.4018 29.0769 22.0982 29.4006 21.7232 29.6442C21.3482 29.8814 20.9405 30 20.5001 30Z" fill="white"/>
</g>
</svg>
