<svg width="60" height="56" viewBox="0 0 60 56" fill="none" xmlns="http://www.w3.org/2000/svg">
<g id="Contentions Given">
<ellipse id="Ellipse 6" cx="30" cy="27.8793" rx="30" ry="27.8793" fill="#FCF324"/>
<path id="!" d="M43.1222 17.84L32.8399 33.6803L27.5983 30.5464L36.6852 13.9913L43.1222 17.84ZM25.5969 39.8441C24.708 39.3126 24.1312 38.5461 23.8666 37.5446C23.6142 36.54 23.7602 35.5913 24.3043 34.6986C24.8194 33.8197 25.5768 33.2575 26.5766 33.012C27.5841 32.771 28.5323 32.9163 29.4212 33.4478C30.2642 33.9518 30.8218 34.7068 31.0941 35.7129C31.374 36.7236 31.2564 37.6684 30.7413 38.5473C30.376 39.1409 29.8933 39.5915 29.2933 39.8991C28.7056 40.2035 28.0832 40.3572 27.4262 40.36C26.7737 40.3551 26.164 40.1831 25.5969 39.8441Z" fill="white"/>
</g>
</svg>
