<svg width="40" height="40" viewBox="0 0 40 40" fill="none" xmlns="http://www.w3.org/2000/svg">
<g id="Group 50">
<circle id="Ellipse 6" cx="20" cy="20" r="20" fill="#FCF324"/>
<path id="Vector" d="M30.0172 17.8281C30.1652 17.4829 30.392 17.049 30.4511 16.625L23.0845 10.0768C22.6703 10.1853 22.266 10.4614 21.9405 10.6488L18.8341 7.88755C16.3095 10.7277 15.9447 14.5343 17.3154 17.8182C17.1379 19.0904 17.4633 20.333 18.1044 21.2205L15.5798 24.0607L14.6922 23.2717L13.9033 24.1593L13.0157 23.3703L11.4379 25.1454L16.7632 29.879L18.341 28.1039L17.4535 27.315L18.2424 26.4275L17.3549 25.6385L19.8794 22.7984C21.0037 23.321 22.1871 23.4196 23.5184 23.1731C26.6051 24.1691 30.5103 23.3506 33.0349 20.5105L30.0172 17.8281ZM19.0215 9.64292L20.9741 11.3786C20.4021 11.6646 20.0865 12.0196 19.6132 12.5521C18.8243 13.4397 18.3706 14.3075 18.0057 15.2542C17.631 13.1734 17.7789 11.3983 19.0215 9.64292ZM25.9838 22.1869C26.8812 21.7136 27.611 21.2501 28.3999 20.3625C28.7944 19.9188 29.11 19.5637 29.4157 19.0411L31.2795 20.6978C29.751 21.8812 27.9266 22.325 25.9838 22.1869Z" fill="white"/>
</g>
</svg>
