<svg width="40" height="40" viewBox="0 0 40 40" fill="none" xmlns="http://www.w3.org/2000/svg">
<g id="Group 84">
<g id="Group 55">
<circle id="Ellipse 4" cx="20" cy="20" r="20" fill="#82C2E7"/>
</g>
<path id="Vector" d="M27 18.5H21.5V13C21.5 12.6022 21.342 12.2206 21.0607 11.9393C20.7794 11.658 20.3978 11.5 20 11.5C19.6022 11.5 19.2206 11.658 18.9393 11.9393C18.658 12.2206 18.5 12.6022 18.5 13V18.5H13C12.6022 18.5 12.2206 18.658 11.9393 18.9393C11.658 19.2206 11.5 19.6022 11.5 20C11.5 20.3978 11.658 20.7794 11.9393 21.0607C12.2206 21.342 12.6022 21.5 13 21.5H18.5V27C18.5 27.3978 18.658 27.7794 18.9393 28.0607C19.2206 28.342 19.6022 28.5 20 28.5C20.3978 28.5 20.7794 28.342 21.0607 28.0607C21.342 27.7794 21.5 27.3978 21.5 27V21.5H27C27.3978 21.5 27.7794 21.342 28.0607 21.0607C28.342 20.7794 28.5 20.3978 28.5 20C28.5 19.6022 28.342 19.2206 28.0607 18.9393C27.7794 18.658 27.3978 18.5 27 18.5Z" fill="white" stroke="white"/>
</g>
</svg>
