<svg width="40" height="40" viewBox="0 0 40 40" fill="none" xmlns="http://www.w3.org/2000/svg">
<g id="Group 53">
<g id="Group 48">
<circle id="Ellipse 7" cx="20" cy="20" r="20" fill="#0DD76A"/>
<g id="Graduation Cap">
<path id="Vector" d="M35.5926 15.1302L20.078 7.03564L4.56348 15.1302L20.078 23.2247C27.5722 19.3191 26.8235 19.7711 26.8235 19.5754L19.7542 15.7238C19.5968 15.6343 19.4814 15.486 19.4333 15.3114C19.3852 15.1369 19.4085 14.9504 19.4979 14.7929C19.5874 14.6355 19.7357 14.52 19.9103 14.472C20.0848 14.4239 20.2714 14.4471 20.4288 14.5366L27.8488 18.5839C28.5233 18.9751 27.4845 19.3731 29.5487 18.3006L35.5926 15.1302Z" fill="white"/>
<path id="Vector_2" d="M20.0779 24.7493L10.6343 19.8521V24.5739C10.6343 28.1086 20.8199 30.0445 26.8234 27.4003V21.2349L20.0779 24.7493ZM29.5216 24.5739V19.8521L28.1725 20.5267V26.6583C28.5478 26.4443 28.8662 26.1432 29.101 25.7805C29.3358 25.4178 29.48 25.004 29.5216 24.5739ZM26.8234 21.2349L28.1725 20.5267V19.1776C28.1725 18.928 28.2804 18.9482 26.8234 19.7105V21.2349ZM26.8234 31.5083C25.9262 32.0277 26.1488 32.7967 26.1488 35.3667H28.847V32.6685C28.8456 32.4331 28.7826 32.2021 28.6642 31.9986C28.5459 31.795 28.3764 31.626 28.1725 31.5083V26.6583C27.7497 26.9517 27.2976 27.2004 26.8234 27.4003V31.5083Z" fill="white"/>
</g>
</g>
</g>
</svg>
