<svg width="361" height="284" viewBox="0 0 361 284" fill="none" xmlns="http://www.w3.org/2000/svg">
<g clip-path="url(#clip0_3056_6780)">
<path d="M336.509 124.002C338.767 116.198 338.515 107.88 335.788 100.227C338.684 96.0818 340.603 91.3355 341.403 86.3433C342.203 81.3511 341.862 76.2426 340.406 71.4009C338.951 66.5591 336.418 62.1097 332.998 58.3862C329.578 54.6627 325.359 51.7617 320.658 49.9008C319.284 39.9912 315.361 30.608 309.274 22.6686C303.186 14.7292 295.143 8.50534 285.93 4.60562C276.717 0.705902 266.649 -0.736203 256.712 0.420314C246.775 1.57683 237.307 5.29238 229.236 11.2037C225.179 6.94343 219.943 3.99152 214.198 2.72618C208.452 1.46085 202.46 1.93972 196.989 4.10145C191.518 6.26317 186.817 10.0093 183.488 14.8597C180.159 19.7102 178.355 25.4441 178.305 31.3268C170.703 32.8517 163.63 36.3319 157.783 41.4241C151.936 46.5164 147.517 53.0448 144.963 60.3654C142.408 67.6861 141.806 75.5462 143.216 83.1706C144.626 90.7949 147.999 97.9201 153.002 103.843C150.555 108.256 149.134 113.164 148.845 118.201C148.556 123.239 149.407 128.277 151.333 132.941C153.26 137.604 156.213 141.773 159.974 145.138C163.734 148.503 168.205 150.976 173.053 152.375C178.713 154.015 184.705 154.129 190.424 152.707C198.173 163.386 209.705 170.708 222.667 173.18C235.629 175.651 249.045 173.086 260.181 166.007C265.606 178.608 270.059 197.513 260.469 216.051C295.304 212.636 320.456 179.228 315.327 148.614C320.422 146.28 324.952 142.872 328.608 138.624C332.264 134.376 334.959 129.388 336.509 124.002Z" fill="#121415"/>
<path d="M269.691 209.135C269.597 209.135 269.503 209.117 269.415 209.081C269.327 209.045 269.247 208.992 269.18 208.926C269.087 208.833 269.022 208.717 268.99 208.59C268.958 208.463 268.962 208.33 269 208.205C273.906 191.115 269.432 174.731 264.821 163.996L262.479 158.557L257.479 161.734C247.432 168.123 235.326 170.44 223.629 168.212C211.933 165.985 201.526 159.38 194.531 149.745L192.528 146.986L189.228 147.807C183.837 149.149 178.171 148.886 172.927 147.05C167.683 145.214 163.09 141.886 159.713 137.475C156.335 133.063 154.321 127.761 153.917 122.22C153.513 116.678 154.738 111.14 157.44 106.286L159.119 103.245L156.878 100.594C152.439 95.3416 149.446 89.023 148.193 82.2612C146.94 75.4993 147.472 68.5278 149.736 62.034C151.999 55.5403 155.916 49.7488 161.101 45.2306C166.285 40.7125 172.558 37.6237 179.3 36.269L183.306 35.4621L183.349 31.3842C183.386 26.5034 184.88 21.7449 187.64 17.7191C190.399 13.6932 194.299 10.5836 198.838 8.78904C203.377 6.99448 208.349 6.59679 213.115 7.647C217.882 8.6972 222.226 11.1474 225.591 14.6834L228.646 17.8823L232.248 15.2742C239.614 9.87141 248.256 6.4735 257.328 5.41297C266.401 4.35244 275.594 5.66561 284.007 9.22399C292.42 12.7824 299.765 18.464 305.323 25.7129C310.882 32.9618 314.463 41.5296 315.716 50.5778L316.127 53.4598L318.857 54.5405C322.85 56.1211 326.433 58.5856 329.338 61.749C332.242 64.9123 334.392 68.6924 335.627 72.8055C336.862 76.9186 337.149 81.258 336.467 85.4979C335.785 89.7379 334.151 93.7683 331.689 97.2867L330.205 99.4122L331.077 101.862C333.915 109.853 333.656 118.618 330.351 126.428C327.046 134.238 320.935 140.526 313.223 144.053L309.714 145.667L310.356 149.471C312.517 162.534 308.605 176.799 299.548 188.615C292.07 198.412 281.685 205.592 269.879 209.127C269.817 209.139 269.754 209.141 269.691 209.135ZM262.811 156.791C262.88 156.781 262.951 156.781 263.02 156.791C263.119 156.822 263.21 156.875 263.287 156.944C263.364 157.014 263.426 157.099 263.466 157.195L266.14 163.405C270.736 174.09 275.182 190.272 270.729 207.305C281.737 203.725 291.394 196.88 298.417 187.679C307.221 176.151 311.054 162.318 308.936 149.651L308.216 145.329C308.188 145.173 308.213 145.012 308.285 144.871C308.358 144.73 308.476 144.618 308.619 144.55L312.625 142.713C319.995 139.335 325.834 133.32 328.993 125.854C332.151 118.387 332.401 110.008 329.693 102.366L328.699 99.5707C328.661 99.4619 328.65 99.3455 328.666 99.2315C328.682 99.1174 328.726 99.0089 328.793 98.915L330.486 96.4798C332.824 93.1405 334.376 89.3148 335.024 85.2899C335.673 81.2651 335.401 77.1456 334.229 73.2409C333.057 69.3362 331.016 65.7476 328.259 62.7446C325.502 59.7417 322.1 57.4023 318.31 55.9022L315.183 54.663C315.065 54.6159 314.961 54.5385 314.883 54.4385C314.804 54.3386 314.754 54.2196 314.736 54.0938L314.268 50.7724C313.053 41.9675 309.572 33.6292 304.166 26.5745C298.759 19.5197 291.613 13.9905 283.427 10.5286C275.24 7.06665 266.295 5.79082 257.467 6.82607C248.64 7.86132 240.232 11.1721 233.069 16.4341L228.984 19.4097C228.844 19.5128 228.671 19.5616 228.497 19.547C228.324 19.5324 228.162 19.4555 228.04 19.3305L224.546 15.6776C222.388 13.4268 219.798 11.6348 216.93 10.4092C214.063 9.1835 210.978 8.54939 207.86 8.54484C201.781 8.54459 195.948 10.9449 191.63 15.2236C187.313 19.5022 184.859 25.313 184.804 31.3914L184.754 36.0601C184.757 36.2286 184.701 36.3931 184.596 36.5247C184.491 36.6563 184.343 36.7469 184.177 36.7806L179.602 37.7028C173.109 39.0087 167.067 41.9841 162.073 46.3358C157.08 50.6875 153.306 56.2652 151.124 62.5194C148.943 68.7735 148.428 75.4882 149.632 82.0017C150.835 88.5152 153.715 94.6027 157.988 99.6643L160.546 102.698C160.64 102.809 160.698 102.947 160.712 103.092C160.726 103.238 160.696 103.384 160.625 103.512L158.708 106.984C157.718 108.767 156.93 110.654 156.359 112.611C155.041 117.179 154.949 122.013 156.091 126.628C157.234 131.243 159.571 135.476 162.868 138.901C166.164 142.326 170.305 144.823 174.873 146.141C179.44 147.459 184.275 147.552 188.889 146.409L192.665 145.473C192.804 145.438 192.95 145.445 193.085 145.494C193.219 145.543 193.337 145.631 193.421 145.746L195.705 148.895C202.478 158.249 212.567 164.663 223.912 166.826C235.256 168.989 246.998 166.737 256.737 160.531L262.451 156.928C262.556 156.851 262.681 156.803 262.811 156.791Z" fill="#3A3A3A"/>
<path d="M259.817 94.172L240.508 91.1531L240.803 89.2222C241.141 86.4966 241.94 83.8482 243.166 81.3906C244.242 79.4452 245.668 77.7157 247.374 76.2896C249.108 74.8486 252.883 72.3845 258.7 68.8974C261.791 67.0818 263.484 65.2518 263.743 63.3857C263.914 62.5931 263.916 61.7733 263.748 60.98C263.58 60.1867 263.247 59.4376 262.771 58.7818C261.834 57.5786 260.242 56.8005 258.008 56.4547C256.908 56.2458 255.776 56.2659 254.684 56.5139C253.592 56.7618 252.563 57.2322 251.661 57.8956C249.835 59.2453 248.394 61.8679 247.338 65.7633L228 60.2516C229.806 53.1092 233.351 47.684 238.634 43.9759C243.918 40.2678 251.3 39.1535 260.782 40.6329C268.169 41.7808 273.892 44.2497 277.951 48.0394C283.465 53.1693 285.682 59.2069 284.601 66.1524C284.117 69.0797 282.844 71.8197 280.919 74.0777C278.912 76.5081 275.148 79.27 269.63 82.3632C265.787 84.5487 263.289 86.3907 262.136 87.8893C260.848 89.7553 260.05 91.9161 259.817 94.172ZM239.045 96.1965L259.73 99.4171L256.891 117.66L236.206 114.439L239.045 96.1965Z" fill="#484848"/>
<path d="M92.4671 145.185C86.3769 145.174 80.4027 143.519 75.1755 140.393C67.8626 136.071 62.6968 129.284 60.9388 121.812C55.8403 121.457 51.0478 119.249 47.4646 115.605C43.8813 111.961 41.7548 107.131 41.4857 102.028C39.9509 100.963 38.594 99.6618 37.4654 98.1731C34.7241 94.6799 33.3697 90.2972 33.6622 85.8664C33.9548 81.4356 35.8737 77.2691 39.0505 74.1666C37.845 69.0437 37.9719 63.6973 39.4193 58.6373C40.8666 53.5774 43.5861 48.9725 47.3183 45.262C51.0506 41.5514 55.6712 38.8588 60.7395 37.4409C65.8078 36.0231 71.1548 35.9273 76.2707 37.1626C77.3868 34.6133 79.1471 32.3983 81.3785 30.7353C83.61 29.0723 86.2357 28.0186 88.9977 27.6777C91.7597 27.3368 94.5629 27.7205 97.1317 28.791C99.7005 29.8615 101.947 31.5821 103.649 33.7835C104.439 34.8054 105.104 35.918 105.63 37.0978C109.659 36.4358 113.789 36.8171 117.628 38.2052C121.467 39.5934 124.887 41.9421 127.56 45.0273C130.234 48.1125 132.072 51.8313 132.899 55.8288C133.727 59.8264 133.517 63.9693 132.288 67.8624C134.926 70.1093 136.864 73.0649 137.874 76.3794C138.884 79.6939 138.922 83.2284 137.985 86.5641C137.048 89.8998 135.175 92.8972 132.587 95.2011C129.999 97.505 126.805 99.0189 123.383 99.5637C121.839 105.404 118.41 110.571 113.628 114.262C110.618 116.598 107.158 118.289 103.465 119.229C99.7724 120.169 95.9253 120.337 92.1645 119.723C92.0925 126.719 93.7136 136.207 101.531 142.994C101.606 143.062 101.663 143.148 101.694 143.244C101.726 143.34 101.732 143.443 101.711 143.542C101.689 143.641 101.641 143.733 101.571 143.806C101.501 143.88 101.413 143.933 101.315 143.96C98.4379 144.783 95.4593 145.195 92.4671 145.185ZM68.9722 37.422C64.4759 37.4357 60.0414 38.4702 56.0032 40.4474C51.9649 42.4246 48.4283 45.293 45.6601 48.8361C42.8919 52.3793 40.9644 56.5047 40.0229 60.9014C39.0814 65.298 39.1504 69.851 40.2249 74.2171C40.2496 74.3148 40.2473 74.4174 40.2181 74.5139C40.1889 74.6103 40.1339 74.697 40.0592 74.7646C36.9826 77.6519 35.0981 81.5861 34.7768 85.7931C34.4554 90 35.7204 94.1749 38.3228 97.4959C39.4673 98.9662 40.8448 100.239 42.4008 101.264C42.4762 101.313 42.539 101.379 42.584 101.456C42.6291 101.534 42.6552 101.621 42.6601 101.711C42.8554 106.653 44.8926 111.343 48.3712 114.859C51.8498 118.375 56.5179 120.462 61.4575 120.71C61.5811 120.717 61.699 120.764 61.7928 120.845C61.8866 120.926 61.9511 121.035 61.9763 121.157C63.5685 128.484 68.6047 135.141 75.7807 139.421C83.0516 143.806 91.7618 145.137 100.011 143.124C92.2798 135.919 90.8388 126.077 91.0262 119.017C91.0291 118.935 91.0495 118.855 91.086 118.781C91.1224 118.708 91.174 118.643 91.2374 118.591C91.3008 118.54 91.3745 118.502 91.4536 118.481C91.5327 118.46 91.6154 118.456 91.6962 118.469C98.3381 119.725 105.209 118.4 110.907 114.764C116.605 111.127 120.702 105.454 122.36 98.9008C122.385 98.7907 122.444 98.691 122.528 98.615C122.611 98.539 122.716 98.4904 122.828 98.4757C126.105 98.0227 129.179 96.623 131.673 94.4484C134.166 92.2738 135.97 89.4188 136.865 86.2335C137.759 83.0483 137.704 79.6713 136.707 76.5168C135.709 73.3622 133.813 70.5673 131.251 68.4748C131.162 68.4031 131.097 68.306 131.065 68.1967C131.033 68.0873 131.035 67.9707 131.071 67.8624C132.324 64.1078 132.577 60.0912 131.803 56.2092C131.03 52.3271 129.258 48.7139 126.661 45.7261C124.065 42.7383 120.734 40.4793 116.998 39.1721C113.262 37.8649 109.249 37.5547 105.357 38.2722C105.229 38.2968 105.097 38.2766 104.983 38.2149C104.868 38.1531 104.779 38.0537 104.73 37.9335C103.601 35.1958 101.683 32.8563 99.2193 31.2132C96.7557 29.5701 93.8586 28.698 90.8974 28.7081C87.9362 28.7181 85.0451 29.6099 82.5928 31.2696C80.1404 32.9294 78.238 35.2819 77.128 38.0272C77.0754 38.1529 76.9799 38.2559 76.8586 38.3178C76.7373 38.3798 76.5979 38.3968 76.4652 38.3658C74.0171 37.7375 71.4996 37.4204 68.9722 37.422Z" fill="#646464"/>
<path d="M93.2568 84.7787L83.307 87.1203L83.0764 86.126C82.6997 84.7377 82.5657 83.2947 82.6801 81.8608C82.8167 80.7089 83.1661 79.5924 83.7104 78.5682C84.9287 76.5452 86.2764 74.603 87.7451 72.7538C88.8907 71.2624 89.3518 70.0448 89.1213 69.0866C89.0505 68.6683 88.8911 68.2699 88.6538 67.9182C88.4164 67.5666 88.1066 67.2697 87.7451 67.0476C86.8827 66.6276 85.8912 66.5579 84.9785 66.8531C84.4044 66.9693 83.8605 67.2027 83.3808 67.5386C82.901 67.8746 82.4957 68.3059 82.1902 68.8056C81.5706 69.8215 81.3905 71.3705 81.6426 73.4671L71.2173 74.5767C70.6081 71.1303 71.2904 67.5802 73.1337 64.6052C74.9638 61.7665 78.326 59.7731 83.2205 58.6252C87.0247 57.727 90.2836 57.7966 92.9975 58.8341C96.6767 60.2319 98.939 62.7223 99.7844 66.3055C100.136 67.8237 100.061 69.4094 99.5683 70.8878C99.0879 72.4585 97.8079 74.5382 95.7281 77.1272C94.2871 78.9428 93.4393 80.3261 93.1848 81.2772C92.9153 82.432 92.94 83.636 93.2568 84.7787ZM83.5879 89.8221L94.2511 87.3148L96.4342 96.7099L85.807 99.1884L83.5879 89.8221Z" fill="#4B4444"/>
<path d="M113.555 162.382L112.893 162.102C113.414 160.958 113.765 159.744 113.937 158.499L114.658 158.578C114.477 159.893 114.106 161.175 113.555 162.382ZM113.274 154.14C112.604 152.643 111.562 151.342 110.246 150.362C108.931 149.382 107.386 148.756 105.76 148.542L105.875 147.822C107.62 148.054 109.276 148.728 110.686 149.781C112.095 150.834 113.212 152.231 113.93 153.838L113.274 154.14Z" fill="#407BFF"/>
<path d="M109.513 169.63L102.409 172.873L102.092 172.152C101.606 171.173 101.292 170.118 101.163 169.032C101.094 168.148 101.189 167.259 101.444 166.41C102.059 164.718 102.78 163.067 103.605 161.467C104.239 160.185 104.4 159.203 104.088 158.521C103.972 158.219 103.793 157.945 103.563 157.718C103.333 157.49 103.058 157.315 102.755 157.202C102.047 157.022 101.298 157.118 100.658 157.469C100.247 157.644 99.8758 157.901 99.5674 158.224C99.2589 158.547 99.0196 158.93 98.8642 159.349C98.552 160.19 98.6481 161.376 99.1524 162.908L91.5009 165.3C90.544 162.807 90.544 160.048 91.5009 157.555C92.4615 155.154 94.6758 153.167 98.1437 151.597C100.853 150.358 103.302 149.932 105.485 150.3C106.823 150.461 108.096 150.968 109.178 151.77C110.261 152.572 111.116 153.642 111.66 154.875C112.146 155.958 112.326 157.155 112.179 158.333C111.831 160.174 111.173 161.943 110.233 163.564C109.602 164.638 109.167 165.817 108.951 167.044C108.921 167.939 109.114 168.828 109.513 169.63ZM103.029 174.847L110.622 171.432L113.67 178.125L106.076 181.518L103.029 174.847Z" fill="#234696"/>
<path d="M168.658 281.406C168.063 281.407 167.48 281.244 166.971 280.935C166.463 280.626 166.05 280.184 165.776 279.656C162.894 274.065 159.241 267.501 152.699 260.397C152.323 259.989 152.058 259.491 151.932 258.95C151.805 258.41 151.822 257.846 151.979 257.313C154.407 248.877 158.225 237.342 158.261 237.226C158.383 236.81 158.588 236.422 158.863 236.086C159.139 235.75 159.479 235.472 159.863 235.271C160.248 235.069 160.669 234.947 161.102 234.911C161.535 234.876 161.97 234.928 162.383 235.064C162.795 235.201 163.175 235.419 163.502 235.705C163.828 235.992 164.093 236.342 164.281 236.733C164.469 237.124 164.577 237.55 164.597 237.983C164.618 238.417 164.551 238.851 164.4 239.258C164.364 239.366 161.071 249.302 158.686 257.378C163.771 263.242 168.085 269.731 171.525 276.687C171.778 277.181 171.9 277.732 171.879 278.286C171.858 278.841 171.695 279.38 171.406 279.854C171.117 280.327 170.711 280.719 170.228 280.991C169.744 281.262 169.198 281.406 168.644 281.406H168.658Z" fill="#23438A"/>
<path d="M174.04 284.001H148.975L162.26 276.464L173.392 276.897L174.04 284.001Z" fill="#263238"/>
<path d="M171.647 253.634C183.056 250.067 189.908 239.51 186.952 230.053C183.996 220.596 172.35 215.821 160.942 219.388C149.533 222.954 142.681 233.512 145.637 242.969C148.593 252.425 160.239 257.2 171.647 253.634Z" fill="#263238"/>
<path d="M109.261 224.748C108.515 224.745 107.793 224.484 107.217 224.01C106.641 223.536 106.247 222.877 106.101 222.145C105.956 221.414 106.067 220.654 106.417 219.995C106.767 219.336 107.334 218.819 108.022 218.53C108.582 218.296 109.074 217.924 109.451 217.45C109.829 216.975 110.081 216.412 110.183 215.814C110.248 215.11 110.542 214.447 111.019 213.927C111.497 213.406 112.132 213.057 112.828 212.932C113.63 212.768 114.423 212.564 115.205 212.32C119.586 211.044 125.011 209.438 142.086 214.236C158.931 204.819 159.126 187.153 159.126 186.389C159.126 185.533 159.464 184.712 160.068 184.104C160.671 183.497 161.49 183.153 162.346 183.147C163.199 183.147 164.018 183.484 164.624 184.084C165.23 184.685 165.574 185.5 165.581 186.353C165.581 187.297 165.48 209.474 143.967 220.576C143.234 220.957 142.382 221.039 141.589 220.807C125.306 216.109 120.695 217.449 117.042 218.523L116.048 218.811C115.567 220.084 114.831 221.246 113.884 222.223C112.938 223.201 111.801 223.974 110.544 224.496C110.138 224.666 109.701 224.752 109.261 224.748Z" fill="#263238"/>
<path d="M147.037 201.613C140.905 177.246 124.572 114.391 176.915 110.551C223.876 107.1 236.758 169.631 239.892 191.245C241.462 202.182 242.314 213.21 242.443 224.258C242.503 229.846 240.609 235.28 237.089 239.621C233.569 243.962 228.643 246.938 223.163 248.034C197.579 253.236 173.37 253.971 157.059 247.537C154.916 246.672 153.111 245.138 151.912 243.163C150.714 241.187 150.186 238.878 150.408 236.578C151.035 229.604 151.05 217.543 147.037 201.613Z" fill="#416AC7"/>
<path opacity="0.1" d="M239.921 191.259C236.967 170.855 225.353 114.168 184.689 110.565C182.369 110.33 180.032 110.787 177.972 111.878C175.911 112.969 174.22 114.646 173.111 116.697C171.295 120.213 171.353 124.471 174.069 128.685C183.003 142.612 204.38 190.647 201.152 216.822C199.711 228.732 192.211 238.242 198.71 251.629C206.924 250.91 215.09 249.707 223.163 248.026C228.643 246.93 233.569 243.955 237.089 239.614C240.609 235.273 242.503 229.839 242.443 224.25C242.322 213.21 241.48 202.19 239.921 191.259Z" fill="black"/>
<path d="M232.888 224.597C232.804 224.597 232.722 224.564 232.662 224.504C232.601 224.445 232.566 224.364 232.564 224.28C232.442 213.246 231.592 202.232 230.021 191.31C222.24 137.519 201.295 110.321 169.428 112.67C169.386 112.673 169.343 112.667 169.302 112.654C169.262 112.64 169.225 112.618 169.192 112.59C169.16 112.562 169.134 112.528 169.115 112.49C169.096 112.451 169.085 112.41 169.082 112.367C169.078 112.282 169.108 112.198 169.164 112.133C169.22 112.069 169.3 112.029 169.385 112.021C201.627 109.644 222.823 137.036 230.626 191.217C232.196 202.168 233.048 213.21 233.177 224.273C233.177 224.359 233.142 224.441 233.082 224.502C233.021 224.563 232.938 224.597 232.852 224.597H232.888Z" fill="#263238"/>
<path d="M232.399 255.357C243.808 251.791 250.66 241.233 247.704 231.777C244.748 222.32 233.102 217.545 221.694 221.112C210.285 224.678 203.433 235.236 206.389 244.692C209.345 254.149 220.99 258.924 232.399 255.357Z" fill="#263238"/>
<path d="M234.374 281.406C233.779 281.408 233.195 281.245 232.687 280.936C232.178 280.627 231.765 280.184 231.492 279.656C228.61 274.065 224.957 267.501 218.408 260.397C218.034 259.988 217.772 259.489 217.646 258.949C217.519 258.409 217.534 257.846 217.687 257.313C220.123 248.877 223.934 237.342 223.977 237.226C224.111 236.824 224.322 236.451 224.599 236.131C224.877 235.81 225.214 235.547 225.593 235.356C225.972 235.166 226.385 235.052 226.808 235.021C227.231 234.99 227.656 235.043 228.059 235.177C228.461 235.31 228.834 235.521 229.155 235.799C229.476 236.076 229.739 236.414 229.929 236.793C230.119 237.172 230.233 237.585 230.264 238.008C230.295 238.431 230.242 238.856 230.109 239.258C230.073 239.366 226.787 249.302 224.402 257.378C229.487 263.24 233.799 269.729 237.234 276.687C237.487 277.181 237.609 277.732 237.588 278.286C237.567 278.841 237.404 279.381 237.115 279.854C236.826 280.328 236.42 280.719 235.936 280.991C235.452 281.263 234.907 281.406 234.352 281.406H234.374Z" fill="#23438A"/>
<path d="M227.587 182.895C226.864 182.896 226.162 182.654 225.593 182.209C225.023 181.764 224.619 181.141 224.445 180.44C224.271 179.738 224.337 178.999 224.632 178.339C224.927 177.679 225.435 177.137 226.074 176.8C226.693 176.468 240.764 168.781 244.713 150.308C235.346 146.388 218.473 137.534 214.784 133.081C214.421 132.65 214.173 132.135 214.063 131.582C213.637 128.922 213.885 126.197 214.784 123.657L213.083 120.372C212.69 119.607 212.616 118.718 212.878 117.899C213.14 117.08 213.717 116.399 214.481 116.005C215.245 115.612 216.135 115.538 216.954 115.8C217.772 116.062 218.454 116.639 218.847 117.403L221.29 122.13C221.553 122.624 221.681 123.179 221.664 123.739C221.646 124.299 221.482 124.844 221.189 125.321C220.529 126.638 220.25 128.113 220.382 129.579C224.539 133.333 241.276 142.217 249.511 145.264C250.209 145.523 250.796 146.015 251.173 146.657C251.55 147.299 251.693 148.052 251.579 148.787C247.926 172.398 229.863 182.124 229.1 182.528C228.633 182.772 228.113 182.898 227.587 182.895Z" fill="#263238"/>
<path d="M217.277 132.633C216.986 132.632 216.701 132.553 216.451 132.403C216.202 132.254 215.997 132.04 215.859 131.785C215.72 131.529 215.653 131.241 215.664 130.95C215.675 130.66 215.764 130.378 215.922 130.133C216.037 129.96 218.703 125.933 222.767 124.845C222.972 124.79 223.185 124.776 223.395 124.804C223.606 124.832 223.808 124.9 223.992 125.006C224.176 125.112 224.337 125.254 224.466 125.422C224.595 125.59 224.69 125.782 224.744 125.987C224.799 126.192 224.813 126.405 224.786 126.616C224.758 126.826 224.689 127.029 224.583 127.212C224.477 127.396 224.336 127.557 224.168 127.686C223.999 127.815 223.807 127.91 223.602 127.965C220.771 128.728 218.646 131.87 218.631 131.899C218.485 132.124 218.284 132.31 218.047 132.438C217.811 132.566 217.546 132.634 217.277 132.633Z" fill="#263238"/>
<path d="M239.755 284.001H214.689L227.975 276.464L239.107 276.897L239.755 284.001Z" fill="#263238"/>
<path d="M187.266 187.465C196.747 186.626 203.821 179.027 203.065 170.494C202.309 161.96 194.011 155.723 184.53 156.562C175.049 157.401 167.976 165 168.731 173.534C169.487 182.067 177.785 188.305 187.266 187.465Z" fill="white"/>
<path d="M184.046 181.841C186.561 181.125 187.542 176.834 186.238 172.257C184.934 167.68 181.839 164.55 179.325 165.266C176.811 165.982 175.829 170.273 177.133 174.85C178.437 179.427 181.532 182.557 184.046 181.841Z" fill="#263238"/>
<path d="M166.288 174.933C177.167 173.535 198.709 167.39 202.261 164.911C199.466 156.727 186.411 149.723 174.797 153.672C164.27 157.224 166.288 174.933 166.288 174.933Z" fill="#263238"/>
<path d="M168.398 180.193C181.907 177.628 199.466 173.319 204.487 170.56C204.178 179.364 201.606 188.291 187.83 191.31C176.562 193.767 168.398 180.193 168.398 180.193Z" fill="#263238"/>
<path d="M157.271 188.663C162.156 185.431 162.8 177.799 158.709 171.617C154.619 165.434 147.343 163.043 142.458 166.275C137.573 169.507 136.929 177.139 141.02 183.321C145.11 189.503 152.386 191.895 157.271 188.663Z" fill="white"/>
<path d="M150.105 177.685C150.92 181.547 150.214 184.768 148.52 184.89C146.827 185.013 144.796 181.965 143.974 178.103C143.153 174.242 143.866 171.028 145.552 170.899C147.238 170.769 149.284 173.824 150.105 177.685Z" fill="#263238"/>
<path d="M136.712 176.209C144.01 177.066 158.507 176.108 160.913 174.768C159.133 167.829 150.502 159.904 142.656 160.913C135.581 161.821 136.712 176.209 136.712 176.209Z" fill="#263238"/>
<path d="M138.066 180.755C147.137 181.165 158.96 180.935 162.332 179.66C162.022 186.584 160.207 193.183 150.941 193.075C143.376 192.989 138.066 180.755 138.066 180.755Z" fill="#263238"/>
<path d="M190.272 149.313C182.028 149.358 173.965 146.896 167.152 142.252C166.469 141.735 166.019 140.968 165.902 140.12C165.784 139.271 166.008 138.411 166.525 137.728C167.042 137.044 167.809 136.595 168.658 136.477C169.506 136.36 170.367 136.584 171.05 137.101C178.675 142.074 187.926 143.909 196.872 142.223C197.289 142.144 197.717 142.148 198.132 142.235C198.548 142.321 198.942 142.489 199.292 142.728C199.643 142.966 199.943 143.272 200.176 143.627C200.408 143.982 200.568 144.379 200.647 144.796C200.726 145.212 200.723 145.641 200.636 146.056C200.55 146.471 200.382 146.865 200.143 147.216C199.904 147.566 199.599 147.867 199.244 148.099C198.889 148.332 198.492 148.492 198.075 148.571C195.503 149.06 192.891 149.309 190.272 149.313Z" fill="#263238"/>
<path d="M132.483 143.744C131.965 143.741 131.456 143.615 130.998 143.375C130.539 143.136 130.145 142.79 129.847 142.367C129.549 141.944 129.357 141.456 129.287 140.943C129.217 140.431 129.27 139.909 129.442 139.421C131.15 134.651 133.996 131.561 137.886 130.221C144.933 127.792 152.527 132.512 152.851 132.713C153.558 133.178 154.056 133.902 154.235 134.73C154.415 135.557 154.263 136.422 153.813 137.139C153.362 137.856 152.648 138.367 151.824 138.564C151 138.76 150.133 138.626 149.407 138.189C147.966 137.274 143.376 135.156 139.969 136.337C138.009 137.022 136.553 138.744 135.523 141.611C135.297 142.236 134.883 142.776 134.339 143.157C133.795 143.539 133.147 143.744 132.483 143.744Z" fill="#263238"/>
<path d="M157.951 198.269C157.861 198.269 157.771 198.255 157.685 198.226C157.44 198.157 157.233 197.994 157.109 197.773C156.985 197.551 156.953 197.289 157.022 197.045C157.308 196.265 157.746 195.55 158.31 194.94C158.874 194.331 159.553 193.839 160.307 193.493C164.011 191.583 169.674 191.98 177.102 194.667C177.222 194.71 177.332 194.777 177.427 194.863C177.521 194.95 177.597 195.054 177.65 195.17C177.704 195.286 177.734 195.411 177.739 195.539C177.744 195.666 177.723 195.794 177.678 195.913C177.636 196.033 177.57 196.143 177.484 196.238C177.398 196.332 177.295 196.408 177.18 196.461C177.064 196.515 176.939 196.545 176.812 196.55C176.685 196.555 176.558 196.534 176.439 196.49C167.916 193.406 163.47 194.069 161.309 195.178C160.23 195.636 159.372 196.497 158.917 197.578C158.855 197.783 158.727 197.963 158.552 198.088C158.377 198.213 158.166 198.277 157.951 198.269Z" fill="#263238"/>
<path d="M127.439 194.718C116.165 195.719 105.201 198.939 95.1758 204.192C100.738 203.14 120.645 227.774 125.76 246.765C135.206 243.271 146.215 240.886 157.951 239.02C150.84 219.445 137.836 197.261 127.439 194.718Z" fill="#407BFF"/>
<path opacity="0.6" d="M127.439 194.718C116.165 195.719 105.201 198.939 95.1758 204.192C100.738 203.14 120.645 227.774 125.76 246.765C135.206 243.271 146.215 240.886 157.951 239.02C150.84 219.445 137.836 197.261 127.439 194.718Z" fill="#2B2B2B"/>
<path d="M127.439 194.718C115.133 193.327 95.1539 203.63 95.1539 203.63C91.6163 205.885 92.5745 210.115 94.5054 211.909C96.3571 209.25 117.006 202.333 124.766 201.404C120.911 197.83 124.499 195.208 127.439 194.718Z" fill="#407BFF"/>
<path opacity="0.2" d="M127.439 194.718C115.133 193.327 95.1539 203.63 95.1539 203.63C91.6163 205.885 92.5745 210.115 94.5054 211.909C96.3571 209.25 117.006 202.333 124.766 201.404C120.911 197.83 124.499 195.208 127.439 194.718Z" fill="white"/>
<path d="M109.268 224.747C108.732 224.75 108.203 224.619 107.729 224.368C107.256 224.116 106.851 223.752 106.552 223.306C104.211 219.704 105.673 214.236 105.99 213.169C106.26 212.378 106.826 211.723 107.569 211.339C108.311 210.956 109.174 210.876 109.975 211.114C110.776 211.352 111.453 211.892 111.866 212.619C112.278 213.346 112.393 214.204 112.186 215.014C111.66 216.822 111.552 219.135 111.97 219.769C112.438 220.488 112.601 221.362 112.424 222.201C112.247 223.04 111.744 223.775 111.026 224.243C110.503 224.581 109.891 224.757 109.268 224.747Z" fill="#263238"/>
</g>
<defs>
<clipPath id="clip0_3056_6780">
<rect width="360.242" height="284" fill="white"/>
</clipPath>
</defs>
</svg>
