<svg width="27" height="36" viewBox="0 0 27 36" fill="none" xmlns="http://www.w3.org/2000/svg">
<path id="Vector" d="M18.6806 0C23.2537 0 26.9494 1.92593 27 6.82174V34.1447C27 34.4507 26.9325 34.7567 26.7975 35.0266C26.5781 35.4586 26.2069 35.7826 25.7513 35.9266C25.3125 36.0706 24.8231 35.9986 24.4181 35.7466L13.4831 29.9148L2.53125 35.7466C2.27981 35.8888 1.99125 35.9806 1.70438 35.9806C0.759375 35.9806 0 35.1526 0 34.1447V6.82174C0 1.92593 3.7125 0 8.26875 0H18.6806ZM19.8281 10.8716H7.12125C6.39563 10.8716 5.805 11.5016 5.805 12.2935C5.805 13.0837 6.39563 13.7155 7.12125 13.7155H19.8281C20.5537 13.7155 21.1444 13.0837 21.1444 12.2935C21.1444 11.5016 20.5537 10.8716 19.8281 10.8716Z" fill="#5A616C"/>
</svg>
