<svg width="45" height="45" viewBox="0 0 45 45" fill="none" xmlns="http://www.w3.org/2000/svg">
<circle cx="22.1026" cy="22.1026" r="22.1026" fill="url(#paint0_linear_532_10731)"/>
<path d="M14.4979 25.1156C14.0713 24.9836 14.0002 25.1969 14.051 25.6743C14.244 27.7261 14.4065 29.7779 14.5588 31.8398C14.5791 32.1446 14.6807 32.2766 14.9854 32.3376C17.8295 32.9369 20.6635 33.5565 23.5076 34.1761C23.7717 34.237 23.9443 34.2776 23.9748 33.9018C24.178 31.3726 24.3913 28.8536 24.6046 26.3243C24.635 26.0196 24.4522 25.9993 24.2389 25.979C22.2176 25.8063 20.1962 25.6235 18.1749 25.4508C16.9662 25.3289 15.7777 25.2273 14.4979 25.1156Z" fill="#FBB501"/>
<path d="M20.6026 18.2587C18.3782 19.7518 16.1537 21.245 13.8175 22.8194C14.0409 21.8849 14.2339 21.0926 14.4269 20.2902C14.8535 18.5126 15.2801 16.7452 15.7169 14.9676C15.7677 14.7645 15.7982 14.5613 16.0318 14.4293C18.5813 13.0377 21.0394 11.4633 23.6499 10.1733C23.7819 10.1124 23.9038 10.0006 24.1171 10.0616C23.8226 11.0164 23.528 11.961 23.2233 12.9666C23.7515 12.8041 24.1679 12.6517 24.3203 12.0525C24.5539 11.118 24.8586 10.2038 25.1735 9.28962C25.2954 8.94427 25.1735 8.84269 24.8688 8.78175C24.0054 8.61923 23.1826 8.7208 22.4005 9.09663C19.3634 10.5491 16.3162 11.9712 13.3096 13.4745C11.3086 14.4699 10.3538 16.217 10.2522 18.4009C10.1506 20.5746 10.9835 22.3521 12.8728 23.571C13.2791 23.825 13.5838 23.8453 14.0104 23.5507C16.113 22.0982 18.236 20.6761 20.369 19.2846C20.7855 18.99 20.8871 18.7158 20.6026 18.2587Z" fill="#FBB501"/>
<path d="M34.0716 19.8428C31.6541 21.5289 29.3077 23.1541 26.9613 24.7895C26.5043 25.1043 26.0472 25.4294 25.5799 25.7443C25.3869 25.8763 25.2752 26.0287 25.2549 26.2725C25.0619 28.9032 24.8587 31.534 24.6556 34.1648C24.8486 34.1953 24.9298 34.0429 25.0416 33.9515C27.7841 31.6661 30.5165 29.3705 33.259 27.0851C33.4621 26.9124 33.5942 26.7295 33.6145 26.4553C33.7668 24.3425 33.9294 22.2399 34.0817 20.1272C34.0919 20.0662 34.0817 19.9951 34.0716 19.8428Z" fill="#FBB501"/>
<path d="M20.5109 15.1915C20.8766 16.7963 21.2422 18.4114 21.6079 20.0163C21.8415 21.0422 22.0853 22.0579 22.3088 23.0838C22.3799 23.419 22.4611 23.5409 22.8268 23.3581C25.2341 22.2001 27.6415 21.0625 30.0589 19.9248C30.3129 19.803 30.3637 19.6709 30.3129 19.417C30.0285 18.127 29.7441 16.8471 29.4698 15.5571C29.4292 15.3438 29.287 15.2524 29.1143 15.1712C27.6821 14.4804 26.2499 13.7897 24.8278 13.0889C24.6247 12.9873 24.4622 12.9975 24.259 13.099C23.1112 13.6678 21.9533 14.2265 20.7953 14.7852C20.6328 14.8664 20.4093 14.9071 20.5109 15.1915ZM23.2026 17.2737C24.3911 17.8527 25.5287 18.3911 26.6562 18.9599C26.9812 19.1224 26.6562 19.2341 26.5648 19.3052C25.5084 20.1483 24.452 20.9914 23.3855 21.8243C23.3347 21.8649 23.2737 21.8954 23.2026 21.8446C23.2026 20.3515 23.2026 18.8482 23.2026 17.2737ZM27.1742 16.7151C27.1945 16.7151 27.2148 16.7151 27.2453 16.7151C27.2453 17.1011 27.2352 17.4972 27.2453 17.8832C27.2555 18.1574 27.1742 18.2184 26.9304 18.0965C25.9248 17.5988 24.9294 17.1112 23.9238 16.6338C23.6597 16.5018 23.6902 16.4104 23.9035 16.258C24.4825 15.8415 25.0615 15.4352 25.6201 14.9883C25.9248 14.7445 26.1585 14.7242 26.5241 14.8867C27.0015 15.1 27.2555 15.3641 27.1844 15.9126C27.1437 16.1666 27.1742 16.4408 27.1742 16.7151ZM28.1189 17.1214C28.0985 17.1214 28.0782 17.1214 28.0579 17.1214C28.0579 16.8167 28.0478 16.5119 28.0681 16.2072C28.0782 16.0447 27.936 15.7806 28.19 15.7501C28.3931 15.7298 28.6166 15.8619 28.6775 16.126C28.8604 16.9284 29.0533 17.741 29.2463 18.5434C29.287 18.6958 29.287 18.7974 29.0737 18.7974C28.3525 18.8075 28.1595 18.6552 28.129 17.934C28.1087 17.6597 28.1189 17.3855 28.1189 17.1214ZM24.5942 13.9726C24.7263 14.0437 24.9396 14.0945 25.0107 14.2164C25.0919 14.389 24.8583 14.4398 24.7466 14.5211C24.2793 14.8766 23.7918 15.2219 23.3144 15.5673C22.6948 16.0142 22.6948 16.0142 22.1463 15.4657C22.1361 15.4556 22.1259 15.4454 22.1056 15.4352C21.8822 15.2626 21.933 15.161 22.1666 15.0493C22.8878 14.7242 23.6089 14.3789 24.3301 14.0538C24.4114 14.0335 24.4926 14.0132 24.5942 13.9726ZM28.4642 19.6811C27.7735 20.0163 27.0929 20.3616 26.4022 20.6968C26.3819 20.6562 26.3616 20.6156 26.3413 20.5749C27.0523 20.2905 27.3977 19.2748 28.4642 19.6811ZM21.7095 16.4002C21.9634 16.5526 22.2885 16.6338 22.2885 16.969C22.2986 17.5277 22.2885 18.0965 22.2885 18.6552C22.2478 18.6552 22.2174 18.6653 22.1767 18.6653C22.0345 17.9137 21.872 17.1519 21.7095 16.4002Z" fill="#FBB501"/>
<path d="M33.8279 19.2438C32.8324 19.1422 31.9284 19.0508 31.0346 18.9593C30.933 18.9492 30.7908 18.939 30.8213 19.0812C30.8924 19.4063 30.7705 19.8634 31.3088 19.9345C31.258 20.1275 31.0752 20.1681 30.9533 20.2595C29.0234 21.5495 27.0935 22.8192 25.1636 24.1092C24.9096 24.2819 24.6658 24.353 24.3611 24.3225C21.9233 24.099 19.4754 23.8857 17.0376 23.6724C17.0071 23.4591 17.1798 23.4388 17.2814 23.3677C18.4901 22.5551 19.6988 21.7527 20.9177 20.9502C21.192 20.7674 21.2732 20.1275 21.0396 19.8938C20.8771 19.7313 20.7654 19.9345 20.6536 19.9954C19.3535 20.8486 18.0533 21.712 16.7633 22.5754C15.9203 23.1341 15.0772 23.6927 14.224 24.2615C14.356 24.4444 14.5185 24.3733 14.6607 24.3834C17.8806 24.678 21.1006 24.9624 24.3205 25.2671C24.7979 25.3078 25.1839 25.2163 25.5902 24.9319C28.1702 23.1341 30.7705 21.3565 33.3606 19.5688C33.4825 19.4977 33.6146 19.3961 33.8279 19.2438Z" fill="#FBB501"/>
<path d="M31.6234 11.199C31.6741 11.006 31.5319 10.9349 31.3593 10.8638C30.9733 10.7013 30.5771 10.5489 30.1912 10.3762C30.0388 10.3051 29.9169 10.3051 29.7645 10.3965C29.277 10.6708 28.7996 10.945 28.3019 11.199C28.0175 11.3412 28.0073 11.585 27.9768 11.8389C27.926 12.2655 27.6315 12.7835 27.8448 13.1086C28.0581 13.4133 28.5964 13.4946 29.0027 13.6672C29.5817 13.911 30.1607 14.1345 30.7295 14.3884C30.9123 14.4697 31.0444 14.49 31.085 14.2361C31.2678 13.2203 31.4507 12.2249 31.6234 11.199ZM30.7397 13.0375C30.7397 13.1898 30.7498 13.3422 30.7397 13.4946C30.7295 13.6063 30.8006 13.7485 30.6787 13.8196C30.5568 13.8907 30.4654 13.7587 30.374 13.6977C30.1404 13.5352 29.9067 13.3727 29.6731 13.2102C29.1043 12.8039 29.1043 12.8039 29.7239 12.4687C30.6686 11.9202 30.6686 11.9202 30.7397 13.0375ZM30.4857 11.6764C30.0286 11.9303 29.6325 12.1436 29.2364 12.3569C29.1551 12.3976 29.0129 12.4788 28.9926 12.3366C28.9519 11.9608 28.8504 11.5545 29.023 11.2091C29.1043 11.0365 29.3379 10.9044 29.5817 11.0771C29.8661 11.2701 30.1404 11.4428 30.4857 11.6764ZM28.6574 12.0116C28.6574 12.1639 28.6574 12.296 28.6574 12.428C28.6574 12.6413 28.5355 12.7328 28.3425 12.7226C28.0784 12.7124 28.2003 12.5194 28.2003 12.3874C28.2105 12.2554 28.2409 12.1233 28.2714 11.9913C28.3222 11.7983 28.2714 11.4529 28.5355 11.4834C28.7386 11.5139 28.6066 11.8389 28.6574 12.0116ZM30.0794 10.6606C30.313 10.752 30.5771 10.8638 30.8311 10.9755C30.9327 11.0263 31.1358 11.0263 31.0342 11.2193C30.9631 11.3513 30.8412 11.524 30.6381 11.392C30.3943 11.2396 30.1607 11.0771 29.9271 10.9247C29.8763 10.8841 29.8153 10.8435 29.8356 10.7724C29.8763 10.6606 29.9677 10.6809 30.0794 10.6606Z" fill="#FBB501"/>
<path d="M18.5506 18.1162C18.6522 17.2934 18.9061 16.623 19.5867 16.1355C18.7842 16.0034 18.0935 15.78 17.5958 15.0791C17.5044 15.8917 17.22 16.5519 16.448 17.1004C17.3723 17.1919 18.0631 17.4356 18.5506 18.1162Z" fill="#FBB501"/>
<path d="M26.8596 8.20247C27.4996 8.61893 27.8348 9.07601 27.916 9.83782C28.3325 9.22837 28.7692 8.87286 29.5615 8.80176C28.9216 8.37515 28.5966 7.9079 28.5051 7.15625C28.0887 7.78601 27.6418 8.13137 26.8596 8.20247Z" fill="#FBB501"/>
<path d="M31.5421 15.6572C32.0703 16.0533 32.4055 16.5104 32.4766 17.2519C32.8931 16.6831 33.3298 16.2971 34.1018 16.2463C33.5228 15.7994 33.1064 15.3728 33.1064 14.5703C32.6391 15.2001 32.2227 15.6064 31.5421 15.6572Z" fill="#FBB501"/>
<path d="M25.844 19.1424C25.2853 18.8681 24.7571 18.604 24.2188 18.3704C24.0563 18.2993 23.7414 18.1368 23.7312 18.5025C23.7312 18.7462 23.457 19.183 24.0258 19.2338C24.4931 19.2744 24.9603 19.3151 25.4275 19.3659C25.6002 19.3862 25.7221 19.3354 25.844 19.1424Z" fill="#FBB501"/>
<defs>
<linearGradient id="paint0_linear_532_10731" x1="39.2321" y1="1.12721e-06" x2="22.1026" y2="44.2051" gradientUnits="userSpaceOnUse">
<stop stop-color="#FFF3D3"/>
<stop offset="1" stop-color="#FCF2D8"/>
</linearGradient>
</defs>
</svg>
