<svg width="74" height="74" viewBox="0 0 74 74" fill="none" xmlns="http://www.w3.org/2000/svg">
<g filter="url(#filter0_i_711_4281)">
<circle cx="37" cy="37" r="36.5" fill="url(#paint0_linear_711_4281)" stroke="#DDBE8F"/>
</g>
<g clip-path="url(#clip0_711_4281)">
<path d="M37.0428 16.0215C43.2327 16.0215 49.4227 16.0429 55.6127 16C56.7226 16 57.0001 16.3861 57.0001 17.4157C56.9787 29.857 56.9787 42.2983 57.0001 54.7181C57.0001 55.8335 56.5945 56.1982 55.5486 56.0695C54.6095 55.9622 53.8197 56.0266 53.9264 57.335C53.9691 57.8069 53.5849 58 53.1367 58C51.5358 58 49.935 57.9786 48.3341 58C47.6297 58 47.523 57.5495 47.5444 56.9918C47.5871 56.284 47.2455 56.0695 46.5839 56.0695C40.1804 56.0909 33.777 56.0909 27.3736 56.0695C26.6692 56.0695 26.4131 56.3698 26.4344 57.0347C26.4558 57.764 26.1143 58.0429 25.3885 58.0215C23.9584 57.9785 22.5497 58 21.1196 58.0215C20.3939 58.0429 19.9456 57.8284 20.0097 56.9918C20.0737 56.1767 19.6041 56.0695 18.9424 56.0695C16.9574 56.0909 17.0001 56.3054 17.0001 54.0746C17.0001 41.9122 17.0001 29.7712 17.0001 17.6088C17.0001 16.0215 17.0001 16.0215 18.5796 16.0215C24.7482 16.0215 30.8955 16.0215 37.0428 16.0215ZM37.1281 21.2983C32.6884 21.2983 28.2274 21.3197 23.7877 21.2768C22.9126 21.2768 22.571 21.5557 22.6351 22.4566C22.6991 23.4648 22.6564 24.4515 22.6351 25.4597C22.6351 25.8243 22.6564 26.2962 22.2295 26.3391C21.2263 26.4678 21.333 27.1542 21.333 27.8407C21.333 28.5485 21.3544 29.2778 21.333 29.9857C21.333 30.5649 21.3757 31.0582 22.1228 31.144C22.571 31.1869 22.6351 31.573 22.6351 31.9591C22.6351 34.383 22.6351 36.8284 22.6351 39.2523C22.6351 39.5741 22.6351 39.9816 22.1868 39.9816C21.2263 39.9602 21.3117 40.6037 21.3117 41.2257C21.3117 42.1267 21.3117 43.0061 21.333 43.9071C21.333 44.3146 21.3544 44.7436 21.888 44.7865C22.571 44.8509 22.6564 45.3013 22.6564 45.8376C22.6564 46.9745 22.6991 48.1328 22.6351 49.2697C22.6137 50.0204 22.8485 50.192 23.5956 50.2564C26.157 50.4709 28.7183 50.192 31.2583 50.2349C34.8443 50.2778 38.4302 50.3422 42.0161 50.3207C43.4035 50.3207 44.7909 50.1491 46.1783 50.2564C47.5657 50.3636 48.9531 50.3207 50.3405 50.2564C51.3437 50.2135 51.5785 49.8274 51.5785 48.8836C51.5358 40.1318 51.5358 31.38 51.5785 22.6067C51.5785 21.4699 51.1943 21.2339 50.1698 21.2554C45.8154 21.3197 41.4611 21.2983 37.1281 21.2983Z" fill="#FF9900"/>
<path d="M37.17 23.3359C40.8627 23.3359 44.5766 23.3574 48.2693 23.3145C49.2084 23.3145 49.5286 23.6362 49.5073 24.5586C49.4859 32.1091 49.4859 39.6383 49.5073 47.1888C49.5073 48.0468 49.1444 48.3042 48.3547 48.3042C40.8413 48.2828 33.3493 48.2828 25.836 48.3042C24.9608 48.3042 24.5766 47.9825 24.662 47.103C24.7047 46.6097 24.662 46.0948 24.6834 45.6015C24.6834 45.2583 24.7474 44.8936 25.1316 44.8507C26.0281 44.7864 25.9854 44.1857 25.9854 43.5422C25.9854 42.7915 25.964 42.0407 25.9854 41.2899C26.0067 40.6679 25.9427 40.1531 25.1743 40.0458C24.7901 40.0029 24.7047 39.6597 24.7047 39.3165C24.7047 36.8497 24.7047 34.3829 24.7047 31.9161C24.7047 31.5729 24.7474 31.2082 25.1316 31.1653C26.0708 31.0581 26.0067 30.4146 26.0067 29.7496C25.9854 29.1061 26.0067 28.4626 26.0067 27.819C26.0067 27.1326 26.1135 26.4677 25.1103 26.3175C24.5339 26.2317 24.7047 25.5668 24.7047 25.1163C24.662 23.3145 24.6834 23.3145 26.4123 23.3145C29.9769 23.3359 33.5841 23.3359 37.17 23.3359ZM27.9491 36.0775C27.9491 41.1612 32.0259 45.2368 37.0206 45.1939C42.0366 45.151 46.0281 41.0754 46.0281 35.9917C46.0281 30.9723 41.8872 26.8967 36.8712 26.9181C31.9619 26.9181 27.9491 31.0581 27.9491 36.0775Z" fill="#FF9900"/>
<path d="M35.9746 29.0847C36.4228 28.9989 36.5082 29.385 36.5296 29.8784C36.5296 30.2002 36.5082 30.5863 36.9565 30.6077C37.4901 30.6506 37.4901 30.2216 37.4687 29.857C37.426 29.1062 37.8529 29.0418 38.4292 29.1491C39.1336 29.2992 39.774 29.5781 40.4143 29.9213C41.14 30.3074 41.7804 30.715 40.7772 31.5086C40.521 31.7232 40.457 31.9591 40.7345 32.238C40.9906 32.4954 41.2467 32.4739 41.4602 32.2165C42.2499 31.2512 42.6768 31.8304 43.0824 32.5812C43.4453 33.2461 43.68 33.954 43.8508 34.6833C44.0002 35.3483 43.8081 35.6271 43.1251 35.6486C42.8263 35.6486 42.314 35.4341 42.3353 36.0347C42.3353 36.4852 42.7195 36.4852 43.0397 36.4852C43.9362 36.4852 44.0216 36.9571 43.8081 37.6864C43.616 38.3513 43.3812 38.9734 43.061 39.574C42.6555 40.3248 42.2286 40.8825 41.4388 39.9172C41.2254 39.6598 40.9693 39.6384 40.7131 39.8958C40.4356 40.1746 40.521 40.4106 40.7772 40.6251C41.6736 41.333 41.2681 41.7834 40.4783 42.1695C39.9234 42.4269 39.3898 42.7058 38.8134 42.8988C38.0877 43.1348 37.3407 43.3064 37.4474 42.0837C37.4687 41.762 37.3193 41.526 36.9351 41.5475C36.5509 41.5689 36.4869 41.8692 36.5082 42.1695C36.5723 43.1133 36.06 43.1562 35.3556 42.9632C34.7153 42.7701 34.0749 42.5771 33.4773 42.2339C32.7515 41.8263 32.1112 41.4188 33.1144 40.6251C33.3705 40.432 33.4132 40.1532 33.1571 39.8743C32.8796 39.5955 32.6235 39.7027 32.4314 39.9387C31.7057 40.8396 31.2788 40.3891 30.8946 39.6169C30.553 38.952 30.2329 38.2655 30.0835 37.5362C29.9554 36.9356 30.1048 36.571 30.7878 36.5281C31.108 36.5066 31.5989 36.6353 31.5776 36.0776C31.5562 35.6057 31.1293 35.6915 30.8305 35.67C30.0835 35.6486 29.934 35.2625 30.1048 34.5975C30.2756 33.8896 30.553 33.2461 30.8946 32.6026C31.3001 31.8304 31.7057 31.2727 32.4741 32.2809C32.6448 32.4954 32.8796 32.6026 33.1144 32.3667C33.3705 32.1522 33.4346 31.8519 33.1784 31.6159C32.0899 30.6721 32.9436 30.2645 33.6694 29.857C34.3311 29.4494 35.0354 29.2134 35.9746 29.0847ZM36.9565 38.5658C38.4079 38.5658 39.4324 37.5148 39.4538 36.0776C39.4538 34.5332 38.4506 33.525 36.9351 33.525C35.5904 33.525 34.4164 34.7048 34.4378 36.0561C34.4378 37.4075 35.6117 38.5658 36.9565 38.5658Z" fill="#FF9900"/>
</g>
<defs>
<filter id="filter0_i_711_4281" x="0" y="0" width="74" height="74" filterUnits="userSpaceOnUse" color-interpolation-filters="sRGB">
<feFlood flood-opacity="0" result="BackgroundImageFix"/>
<feBlend mode="normal" in="SourceGraphic" in2="BackgroundImageFix" result="shape"/>
<feColorMatrix in="SourceAlpha" type="matrix" values="0 0 0 0 0 0 0 0 0 0 0 0 0 0 0 0 0 0 127 0" result="hardAlpha"/>
<feOffset/>
<feGaussianBlur stdDeviation="2"/>
<feComposite in2="hardAlpha" operator="arithmetic" k2="-1" k3="1"/>
<feColorMatrix type="matrix" values="0 0 0 0 0 0 0 0 0 0 0 0 0 0 0 0 0 0 0.25 0"/>
<feBlend mode="normal" in2="shape" result="effect1_innerShadow_711_4281"/>
</filter>
<linearGradient id="paint0_linear_711_4281" x1="65.675" y1="1.88697e-06" x2="37" y2="74" gradientUnits="userSpaceOnUse">
<stop stop-color="#FFF3D3"/>
<stop offset="1" stop-color="#FCF2D8"/>
</linearGradient>
<clipPath id="clip0_711_4281">
<rect width="40" height="42" fill="white" transform="translate(17 16)"/>
</clipPath>
</defs>
</svg>
