<svg xmlns="http://www.w3.org/2000/svg" width="24" height="24" viewBox="0 0 24 24" fill="none">
  <path d="M20.6536 21.7959C19.6404 21.7959 18.6271 21.7959 17.6139 21.7959C15.4378 21.7959 13.2618 21.7959 11.0858 21.7959C9.04258 21.7959 6.99933 21.7959 4.95611 21.7959C4.44921 21.7959 3.94231 21.7959 3.4354 21.7959C3.12256 21.7959 2.80493 21.8077 2.4943 21.7672C2.59198 21.7803 2.68962 21.7934 2.78726 21.8065C2.63616 21.7843 2.48898 21.7505 2.34673 21.6943C2.43447 21.7313 2.52225 21.7683 2.60999 21.8054C2.52099 21.7675 2.43818 21.722 2.36097 21.6636C2.43531 21.721 2.50966 21.7784 2.584 21.8359C2.53047 21.7924 2.48331 21.7449 2.44091 21.6905C2.49836 21.7648 2.5558 21.8392 2.61325 21.9135C2.57924 21.8661 2.55108 21.817 2.52711 21.7639C2.56416 21.8516 2.60118 21.9394 2.63823 22.0271C2.61132 21.9606 2.59331 21.8934 2.58169 21.8227C2.59481 21.9203 2.60793 22.018 2.62105 22.1156C2.6059 21.9986 2.60985 21.8834 2.62539 21.7667C2.61227 21.8643 2.59915 21.9619 2.58603 22.0596C2.61906 21.85 2.68616 21.6504 2.76809 21.4551C2.73104 21.5429 2.69403 21.6307 2.65701 21.7184C2.75029 21.5045 2.90954 21.3074 3.03458 21.1116C3.31208 20.6768 3.58958 20.2421 3.86705 19.8074C4.35556 19.0421 4.84409 18.2768 5.33259 17.5114C6.11242 16.2898 6.89217 15.0681 7.67193 13.8464C8.24058 12.9555 8.80923 12.0645 9.37792 11.1736C9.55047 10.9033 9.72302 10.6329 9.89556 10.3626C10.0534 10.1153 10.1756 9.91077 10.1756 9.58075C10.1756 7.84219 10.1756 6.10362 10.1756 4.36509C10.1756 3.2774 10.1756 2.1897 10.1756 1.10197C9.80821 1.46932 9.44086 1.83666 9.07351 2.20401C10.7887 2.20401 12.5039 2.20401 14.2191 2.20401C14.3231 2.20401 14.4272 2.20401 14.5312 2.20401C14.1639 1.83666 13.7965 1.46932 13.4292 1.10197C13.4292 2.72207 13.4292 4.34214 13.4292 5.96221C13.4292 6.93834 13.4292 7.91447 13.4292 8.89063C13.4292 9.11426 13.4292 9.33788 13.4292 9.56154C13.4292 9.86763 13.5369 10.0927 13.689 10.3309C14.7327 11.9661 15.7765 13.6013 16.8202 15.2366C17.4794 16.2694 18.1386 17.3022 18.7978 18.3349C19.2726 19.0788 19.7475 19.8226 20.2222 20.5664C20.3954 20.8377 20.5685 21.1089 20.7416 21.3801C20.8432 21.5392 20.9386 21.6851 21.0127 21.8595C20.9756 21.7717 20.9386 21.6839 20.9016 21.5962C20.9675 21.7587 21.02 21.9239 21.0463 22.0975C21.0332 21.9999 21.0201 21.9022 21.007 21.8046C21.0199 21.9088 21.0225 22.0112 21.0092 22.1156C21.0223 22.018 21.0354 21.9203 21.0485 21.8226C21.0369 21.8935 21.0184 21.9607 20.9908 22.0271C21.0279 21.9393 21.0649 21.8516 21.1019 21.7638C21.0771 21.8172 21.048 21.8662 21.013 21.9135C21.0705 21.8391 21.1279 21.7648 21.1854 21.6905C21.1414 21.7451 21.0927 21.7924 21.0377 21.8359C21.112 21.7784 21.1864 21.721 21.2607 21.6636C21.1906 21.7151 21.1163 21.7565 21.0369 21.7921C21.1247 21.755 21.2125 21.718 21.3002 21.6809C21.1459 21.7451 20.9851 21.7825 20.82 21.8065C20.9177 21.7934 21.0154 21.7803 21.113 21.7671C20.9603 21.7869 20.8074 21.795 20.6536 21.7959C20.0529 21.7994 19.5516 22.2946 19.5516 22.8979C19.5516 23.4961 20.0528 24.0035 20.6536 24C21.1792 23.9969 21.6706 23.9093 22.1492 23.6952C22.341 23.6094 22.5107 23.4768 22.665 23.3359C22.899 23.1221 23.0093 22.8695 23.1274 22.5858C23.302 22.166 23.228 21.6062 23.0937 21.1886C23.0176 20.952 22.9253 20.7074 22.7908 20.4966C22.3247 19.7663 21.8585 19.036 21.3924 18.3058C20.6945 17.2125 19.9967 16.1193 19.2989 15.0261C18.1825 13.277 17.0661 11.528 15.9497 9.77891C15.7941 9.53503 15.6384 9.29118 15.4827 9.04729C15.5329 9.23268 15.583 9.4181 15.6332 9.60349C15.6332 7.98339 15.6332 6.36332 15.6332 4.74325C15.6332 3.5295 15.6332 2.31579 15.6332 1.10204C15.6332 0.501306 15.1319 0 14.5312 0C12.816 0 11.1008 0 9.38562 0C9.28153 0 9.17749 0 9.07344 0C8.47271 0 7.9714 0.501306 7.9714 1.10204C7.9714 2.72214 7.9714 4.34221 7.9714 5.96228C7.9714 7.17603 7.9714 8.38974 7.9714 9.60349C8.02157 9.41807 8.0717 9.23265 8.12187 9.04729C7.25619 10.4035 6.39055 11.7597 5.52487 13.116C4.79592 14.2581 4.067 15.4002 3.338 16.5422C2.8001 17.3849 2.2622 18.2276 1.7243 19.0703C1.47503 19.4608 1.22576 19.8513 0.97649 20.2418C0.746951 20.6014 0.561039 20.9696 0.47389 21.3957C0.363861 21.9338 0.393879 22.4648 0.662741 22.9541C0.915616 23.4142 1.37781 23.6924 1.85956 23.8558C2.2304 23.9816 2.64187 24 3.03178 24C3.46486 24 3.89798 24 4.33107 24C6.2475 24 8.16393 24 10.0803 24C12.3174 24 14.5545 24 16.7916 24C18.0537 24 19.3159 24 20.578 24C20.6032 24 20.6284 24 20.6536 24C21.2543 24 21.7556 23.4987 21.7556 22.8979C21.7556 22.2972 21.2543 21.7959 20.6536 21.7959Z" fill="#707175"/>
  <path d="M7.80126 2.20408C9.45971 2.20408 11.1182 2.20408 12.7766 2.20408C13.7887 2.20408 14.8008 2.20408 15.8129 2.20408C16.4136 2.20408 16.915 1.70277 16.915 1.10204C16.915 0.501306 16.4136 0 15.8129 0C14.1545 0 12.496 0 10.8376 0C9.82548 0 8.81339 0 7.80126 0C7.20052 0 6.69922 0.501306 6.69922 1.10204C6.69922 1.70277 7.20049 2.20408 7.80126 2.20408Z" fill="#707175"/>
  <path d="M12.7309 5.38773C13.2907 5.38773 13.8505 5.38773 14.4102 5.38773C15.011 5.38773 15.5123 4.88643 15.5123 4.28569C15.5123 3.68496 15.011 3.18365 14.4102 3.18365C13.8505 3.18365 13.2907 3.18365 12.7309 3.18365C12.1302 3.18365 11.6289 3.68496 11.6289 4.28569C11.6289 4.88643 12.1302 5.38773 12.7309 5.38773Z" fill="#707175"/>
  <path d="M12.7309 8.43137C13.2907 8.43137 13.8505 8.43137 14.4102 8.43137C15.011 8.43137 15.5123 7.93007 15.5123 7.32933C15.5123 6.7286 15.011 6.22729 14.4102 6.22729C13.8505 6.22729 13.2907 6.22729 12.7309 6.22729C12.1302 6.22729 11.6289 6.7286 11.6289 7.32933C11.6289 7.93007 12.1302 8.43137 12.7309 8.43137Z" fill="#707175"/>
  <path d="M20.6492 22.9154H2.94657C1.69059 22.9154 1.17246 22.3595 1.72208 21.1224L4.41911 16.8929L4.53141 16.9295C4.53141 16.9295 6.21071 14.7243 9.14983 16.7185C12.089 18.713 14.7132 16.7179 14.7132 16.7179C14.7132 16.7179 17.1272 15.0384 18.8069 16.5078L18.9241 16.4929L21.8737 21.1225C22.4806 22.3596 21.9052 22.9154 20.6492 22.9154Z" fill="#707175"/>
  <path d="M20.6497 22.0408C19.6364 22.0408 18.6232 22.0408 17.6099 22.0408C15.4339 22.0408 13.2579 22.0408 11.0818 22.0408C9.03863 22.0408 6.99538 22.0408 4.95216 22.0408C4.38522 22.0408 3.81825 22.0408 3.25131 22.0408C3.15233 22.0408 3.0534 22.0408 2.95446 22.0408C2.90352 22.0408 2.85268 22.0398 2.80178 22.0382C2.71173 22.0355 2.62192 22.0278 2.53243 22.0175C2.85226 22.0541 2.52792 22.0093 2.4465 21.9877C2.41141 21.9783 2.37699 21.9668 2.34263 21.9551C2.20231 21.9075 2.55219 22.0498 2.42089 21.9896C2.36324 21.9632 2.30926 21.9297 2.25751 21.8932C2.50902 22.0704 2.3412 21.9571 2.28148 21.8863C2.46193 22.1002 2.3893 22.0295 2.35047 21.9652C2.25639 21.809 2.42145 22.1604 2.37706 22.037C2.36681 22.0085 2.35981 21.9789 2.35281 21.9494C2.32003 21.8117 2.37881 22.1956 2.36495 22.0512C2.35827 21.9816 2.36184 21.9113 2.36747 21.8419C2.38014 21.6862 2.33028 22.0757 2.35911 21.9165C2.36656 21.8754 2.37674 21.8349 2.38682 21.7944C2.41306 21.6888 2.44993 21.5862 2.48894 21.4848C2.55013 21.3259 2.41491 21.6211 2.4796 21.5197C2.50262 21.4837 2.52561 21.4476 2.54863 21.4115C2.7605 21.0796 2.9724 20.7477 3.18428 20.4158C3.75321 19.5244 4.32214 18.6331 4.89111 17.7418C4.98064 17.6016 5.07013 17.4613 5.15966 17.3211C4.83699 17.4524 4.51432 17.5837 4.19168 17.715C4.22912 17.7279 4.26655 17.7409 4.30398 17.7538C4.69725 17.8897 5.04641 17.6543 5.27196 17.3599C5.00338 17.7104 5.19531 17.462 5.27248 17.3828C5.3209 17.3332 5.37163 17.2859 5.42352 17.24C5.45486 17.2121 5.48709 17.1853 5.51959 17.1589C5.57322 17.1151 5.66866 17.0438 5.41767 17.2367C5.44314 17.2171 5.46914 17.1982 5.4952 17.1794C5.5813 17.1174 5.67125 17.0609 5.76319 17.008C5.8135 16.9791 5.865 16.9523 5.91685 16.9263C5.94382 16.9128 5.97118 16.9001 5.9985 16.8874C6.17133 16.8071 5.80958 16.9639 5.93703 16.9127C6.06046 16.863 6.18784 16.824 6.3168 16.7917C6.38569 16.7744 6.45548 16.761 6.52545 16.7489C6.5921 16.7373 6.74334 16.7224 6.44355 16.7589C6.49386 16.7528 6.54438 16.749 6.59493 16.7455C6.75695 16.7342 6.91974 16.7396 7.08133 16.7539C7.14445 16.7596 7.30975 16.785 7.0262 16.7445C7.0707 16.7509 7.11496 16.759 7.15918 16.7671C7.26763 16.787 7.37465 16.8141 7.48083 16.8436C7.57823 16.8708 7.67399 16.9035 7.76904 16.9378C7.81897 16.9558 7.86819 16.9757 7.91745 16.9955C7.68592 16.9023 7.86858 16.9763 7.91497 16.9976C8.15528 17.1077 8.38444 17.241 8.60663 17.3838C9.10485 17.7039 9.60252 17.9762 10.1639 18.1746C10.64 18.343 11.1503 18.4246 11.6531 18.4544C12.4208 18.4999 13.2205 18.3566 13.936 18.0778C14.3464 17.9179 14.7583 17.7329 15.1195 17.4769C15.3304 17.3275 15.5621 17.2057 15.7951 17.0948C15.8556 17.066 15.917 17.0388 15.9785 17.0122C15.6759 17.1432 15.9368 17.0314 16.0088 17.0042C16.1678 16.944 16.3303 16.8936 16.4948 16.8506C16.5747 16.8297 16.6554 16.8123 16.7363 16.7962C16.7775 16.788 16.8188 16.7812 16.8602 16.7744C17.0253 16.7471 16.6334 16.8018 16.8003 16.7822C16.9863 16.7603 17.174 16.7572 17.3608 16.7688C17.3899 16.7708 17.4191 16.7734 17.4481 16.7763C17.6187 16.7924 17.2254 16.742 17.3951 16.7695C17.4686 16.7814 17.5412 16.7984 17.6133 16.8168C17.6867 16.8355 17.7586 16.8597 17.8299 16.8852C17.9131 16.9175 17.8877 16.906 17.7539 16.8507C17.7972 16.8692 17.8394 16.8903 17.8815 16.9113C17.9536 16.9473 18.0226 16.9893 18.0907 17.0325C18.1185 17.0505 18.1459 17.0692 18.173 17.0884C18.3237 17.1929 18.017 16.9607 18.1613 17.0794C18.3937 17.2706 18.6228 17.3877 18.9245 17.3499C18.6777 17.2084 18.431 17.0668 18.1843 16.9253C19.1059 18.3691 20.0274 19.8127 20.949 21.2565C21.0055 21.345 21.062 21.4335 21.1185 21.522C21.152 21.5745 21.1751 21.6327 21.2003 21.6895C21.086 21.4323 21.2068 21.727 21.2269 21.7943C21.2389 21.8346 21.2484 21.8755 21.2577 21.9165C21.3067 22.1307 21.2424 21.7386 21.2559 21.8784C21.2625 21.9467 21.2603 22.0154 21.254 22.0836C21.281 21.7923 21.2801 21.9045 21.262 21.9793C21.2435 22.0558 21.1665 22.1947 21.2969 21.9139C21.2846 21.9403 21.2692 21.9651 21.2539 21.9897C21.1834 22.103 21.4049 21.8073 21.3169 21.9083C21.2974 21.9307 21.2754 21.9507 21.2536 21.9706C21.1577 22.0582 21.4632 21.8256 21.3029 21.9278C21.2755 21.9453 21.2465 21.9601 21.2176 21.9751C21.089 22.0414 21.4348 21.8895 21.2964 21.943C21.2145 21.9746 21.129 21.996 21.0434 22.0148C21.0035 22.0235 20.9631 22.03 20.9228 22.0365C21.2079 21.9902 21.0446 22.0203 20.9789 22.0267C20.8696 22.0375 20.7595 22.0402 20.6497 22.0408C20.1825 22.0435 19.7925 22.4286 19.7925 22.8979C19.7925 23.3631 20.1824 23.7578 20.6497 23.7551C21.1279 23.7523 21.5849 23.6791 22.0217 23.4838C22.4498 23.2923 22.7123 22.9411 22.8873 22.5207C23.1269 21.9449 22.8946 21.1203 22.5754 20.6202C22.1093 19.89 21.6431 19.1597 21.177 18.4294C20.6728 17.6397 20.1687 16.8499 19.6646 16.0602C19.5162 15.8277 19.2218 15.5984 18.9245 15.6357C18.8854 15.6406 18.8464 15.6455 18.8073 15.6504C19.0093 15.734 19.2114 15.8177 19.4134 15.9014C18.6816 15.2741 17.7645 14.9664 16.8003 15.068C16.0535 15.1467 15.3536 15.3847 14.6905 15.7347C14.5109 15.8295 14.3443 15.9387 14.1758 16.0504C14.0267 16.1492 13.87 16.2365 13.7104 16.3171C13.6573 16.344 13.6034 16.3694 13.5494 16.3945C13.5205 16.4079 13.4914 16.4207 13.4623 16.4336C13.3313 16.4914 13.6793 16.3435 13.5443 16.3991C13.3977 16.4596 13.2478 16.512 13.0964 16.559C12.9404 16.6075 12.7818 16.6468 12.6219 16.6801C12.5367 16.6979 12.4508 16.7123 12.3648 16.7255C12.1941 16.7517 12.588 16.698 12.4145 16.718C12.3536 16.7251 12.2924 16.7301 12.2313 16.7348C12.0389 16.7496 11.8457 16.7495 11.6531 16.7402C11.5517 16.7352 11.4505 16.7252 11.3497 16.7136C11.6161 16.7444 11.427 16.7234 11.3704 16.7142C11.2998 16.7028 11.2298 16.6884 11.1598 16.6736C10.9384 16.6269 10.7217 16.5599 10.5094 16.482C10.4675 16.4666 10.2769 16.388 10.492 16.479C10.4353 16.455 10.3796 16.429 10.3238 16.403C10.1883 16.3397 10.0568 16.2682 9.92705 16.1939C9.69639 16.0618 9.48144 15.9046 9.25351 15.7679C8.98811 15.6087 8.70858 15.4821 8.4233 15.3633C7.63162 15.0336 6.76871 14.9449 5.92927 15.1229C5.3222 15.2516 4.78528 15.5625 4.30741 15.9467C4.10635 16.1083 3.94769 16.2912 3.79173 16.4947C4.1144 16.3634 4.43707 16.2321 4.7597 16.1008C4.72227 16.0879 4.68483 16.0749 4.6474 16.062C4.27691 15.9339 3.87699 16.1464 3.67942 16.4559C2.79296 17.8447 1.90647 19.2335 1.01997 20.6223C0.890948 20.8244 0.811776 21.067 0.745129 21.2965C0.633036 21.6826 0.590669 22.1661 0.745024 22.5479C0.913234 22.9641 1.19413 23.3169 1.61718 23.4971C2.04351 23.6786 2.48226 23.7551 2.94711 23.7551C3.23277 23.7551 3.51839 23.7551 3.80401 23.7551C5.5664 23.7551 7.32879 23.7551 9.09114 23.7551C11.362 23.7551 13.6329 23.7551 15.9038 23.7551C17.3876 23.7551 18.8715 23.7551 20.3553 23.7551C20.4534 23.7551 20.5515 23.7551 20.6496 23.7551C21.1168 23.7551 21.5068 23.3652 21.5068 22.898C21.5068 22.4307 21.1169 22.0408 20.6497 22.0408Z" fill="#707175"/>
</svg>