<svg width="302" height="81" viewBox="0 0 302 81" fill="none" xmlns="http://www.w3.org/2000/svg">
<rect x="0.65" y="0.65" width="300.7" height="79.7" rx="2.35" fill="#222222"/>
<path d="M56.4375 35.9688V44.5H54.9668V35.9688H56.4375ZM59.4668 35.5V36.3262C59.4668 36.5723 59.4219 36.8281 59.332 37.0938C59.2461 37.3555 59.125 37.6074 58.9688 37.8496C58.8125 38.0879 58.6328 38.2949 58.4297 38.4707L57.7207 38.0254C57.8809 37.7832 58.0098 37.5273 58.1074 37.2578C58.209 36.9844 58.2598 36.6777 58.2598 36.3379V35.5H59.4668ZM62.0098 39.4492V44.5H60.5977V38.1602H61.9277L62.0098 39.4492ZM61.7812 41.0957L61.3008 41.0898C61.3008 40.6523 61.3555 40.248 61.4648 39.877C61.5742 39.5059 61.7344 39.1836 61.9453 38.9102C62.1562 38.6328 62.418 38.4199 62.7305 38.2715C63.0469 38.1191 63.4121 38.043 63.8262 38.043C64.1152 38.043 64.3789 38.0859 64.6172 38.1719C64.8594 38.2539 65.0684 38.3848 65.2441 38.5645C65.4238 38.7441 65.5605 38.9746 65.6543 39.2559C65.752 39.5371 65.8008 39.877 65.8008 40.2754V44.5H64.3887V40.3984C64.3887 40.0898 64.3418 39.8477 64.248 39.6719C64.1582 39.4961 64.0273 39.3711 63.8555 39.2969C63.6875 39.2188 63.4863 39.1797 63.252 39.1797C62.9863 39.1797 62.7598 39.2305 62.5723 39.332C62.3887 39.4336 62.2383 39.5723 62.1211 39.748C62.0039 39.9238 61.918 40.127 61.8633 40.3574C61.8086 40.5879 61.7812 40.834 61.7812 41.0957ZM65.7129 40.7207L65.0508 40.8672C65.0508 40.4844 65.1035 40.123 65.209 39.7832C65.3184 39.4395 65.4766 39.1387 65.6836 38.8809C65.8945 38.6191 66.1543 38.4141 66.4629 38.2656C66.7715 38.1172 67.125 38.043 67.5234 38.043C67.8477 38.043 68.1367 38.0879 68.3906 38.1777C68.6484 38.2637 68.8672 38.4004 69.0469 38.5879C69.2266 38.7754 69.3633 39.0195 69.457 39.3203C69.5508 39.6172 69.5977 39.9766 69.5977 40.3984V44.5H68.1797V40.3926C68.1797 40.0723 68.1328 39.8242 68.0391 39.6484C67.9492 39.4727 67.8203 39.3516 67.6523 39.2852C67.4844 39.2148 67.2832 39.1797 67.0488 39.1797C66.8301 39.1797 66.6367 39.2207 66.4688 39.3027C66.3047 39.3809 66.166 39.4922 66.0527 39.6367C65.9395 39.7773 65.8535 39.9395 65.7949 40.123C65.7402 40.3066 65.7129 40.5059 65.7129 40.7207ZM75.4395 39.5137V44.5H74.0273V38.1602H75.3574L75.4395 39.5137ZM75.1875 41.0957L74.7305 41.0898C74.7344 40.6406 74.7969 40.2285 74.918 39.8535C75.043 39.4785 75.2148 39.1562 75.4336 38.8867C75.6562 38.6172 75.9219 38.4102 76.2305 38.2656C76.5391 38.1172 76.8828 38.043 77.2617 38.043C77.5664 38.043 77.8418 38.0859 78.0879 38.1719C78.3379 38.2539 78.5508 38.3887 78.7266 38.5762C78.9062 38.7637 79.043 39.0078 79.1367 39.3086C79.2305 39.6055 79.2773 39.9707 79.2773 40.4043V44.5H77.8594V40.3984C77.8594 40.0938 77.8145 39.8535 77.7246 39.6777C77.6387 39.498 77.5117 39.3711 77.3438 39.2969C77.1797 39.2188 76.9746 39.1797 76.7285 39.1797C76.4863 39.1797 76.2695 39.2305 76.0781 39.332C75.8867 39.4336 75.7246 39.5723 75.5918 39.748C75.4629 39.9238 75.3633 40.127 75.293 40.3574C75.2227 40.5879 75.1875 40.834 75.1875 41.0957ZM80.4492 41.4004V41.2656C80.4492 40.8086 80.5156 40.3848 80.6484 39.9941C80.7812 39.5996 80.9727 39.2578 81.2227 38.9688C81.4766 38.6758 81.7852 38.4492 82.1484 38.2891C82.5156 38.125 82.9297 38.043 83.3906 38.043C83.8555 38.043 84.2695 38.125 84.6328 38.2891C85 38.4492 85.3105 38.6758 85.5645 38.9688C85.8184 39.2578 86.0117 39.5996 86.1445 39.9941C86.2773 40.3848 86.3438 40.8086 86.3438 41.2656V41.4004C86.3438 41.8574 86.2773 42.2812 86.1445 42.6719C86.0117 43.0625 85.8184 43.4043 85.5645 43.6973C85.3105 43.9863 85.002 44.2129 84.6387 44.377C84.2754 44.5371 83.8633 44.6172 83.4023 44.6172C82.9375 44.6172 82.5215 44.5371 82.1543 44.377C81.791 44.2129 81.4824 43.9863 81.2285 43.6973C80.9746 43.4043 80.7812 43.0625 80.6484 42.6719C80.5156 42.2812 80.4492 41.8574 80.4492 41.4004ZM81.8613 41.2656V41.4004C81.8613 41.6855 81.8906 41.9551 81.9492 42.209C82.0078 42.4629 82.0996 42.6855 82.2246 42.877C82.3496 43.0684 82.5098 43.2188 82.7051 43.3281C82.9004 43.4375 83.1328 43.4922 83.4023 43.4922C83.6641 43.4922 83.8906 43.4375 84.082 43.3281C84.2773 43.2188 84.4375 43.0684 84.5625 42.877C84.6875 42.6855 84.7793 42.4629 84.8379 42.209C84.9004 41.9551 84.9316 41.6855 84.9316 41.4004V41.2656C84.9316 40.9844 84.9004 40.7188 84.8379 40.4688C84.7793 40.2148 84.6855 39.9902 84.5566 39.7949C84.4316 39.5996 84.2715 39.4473 84.0762 39.3379C83.8848 39.2246 83.6562 39.168 83.3906 39.168C83.125 39.168 82.8945 39.2246 82.6992 39.3379C82.5078 39.4473 82.3496 39.5996 82.2246 39.7949C82.0996 39.9902 82.0078 40.2148 81.9492 40.4688C81.8906 40.7188 81.8613 40.9844 81.8613 41.2656ZM90.4336 38.1602V39.1914H86.8594V38.1602H90.4336ZM87.8906 36.6074H89.3027V42.748C89.3027 42.9434 89.3301 43.0938 89.3848 43.1992C89.4434 43.3008 89.5234 43.3691 89.625 43.4043C89.7266 43.4395 89.8457 43.457 89.9824 43.457C90.0801 43.457 90.1738 43.4512 90.2637 43.4395C90.3535 43.4277 90.4258 43.416 90.4805 43.4043L90.4863 44.4824C90.3691 44.5176 90.2324 44.5488 90.0762 44.5762C89.9238 44.6035 89.748 44.6172 89.5488 44.6172C89.2246 44.6172 88.9375 44.5605 88.6875 44.4473C88.4375 44.3301 88.2422 44.1406 88.1016 43.8789C87.9609 43.6172 87.8906 43.2695 87.8906 42.8359V36.6074ZM98.0859 43.2285V40.2051C98.0859 39.9785 98.0449 39.7832 97.9629 39.6191C97.8809 39.4551 97.7559 39.3281 97.5879 39.2383C97.4238 39.1484 97.2168 39.1035 96.9668 39.1035C96.7363 39.1035 96.5371 39.1426 96.3691 39.2207C96.2012 39.2988 96.0703 39.4043 95.9766 39.5371C95.8828 39.6699 95.8359 39.8203 95.8359 39.9883H94.4297C94.4297 39.7383 94.4902 39.4961 94.6113 39.2617C94.7324 39.0273 94.9082 38.8184 95.1387 38.6348C95.3691 38.4512 95.6445 38.3066 95.9648 38.2012C96.2852 38.0957 96.6445 38.043 97.043 38.043C97.5195 38.043 97.9414 38.123 98.3086 38.2832C98.6797 38.4434 98.9707 38.6855 99.1816 39.0098C99.3965 39.3301 99.5039 39.7324 99.5039 40.2168V43.0352C99.5039 43.3242 99.5234 43.584 99.5625 43.8145C99.6055 44.041 99.666 44.2383 99.7441 44.4062V44.5H98.2969C98.2305 44.3477 98.1777 44.1543 98.1387 43.9199C98.1035 43.6816 98.0859 43.4512 98.0859 43.2285ZM98.291 40.6445L98.3027 41.5176H97.2891C97.0273 41.5176 96.7969 41.543 96.5977 41.5938C96.3984 41.6406 96.2324 41.7109 96.0996 41.8047C95.9668 41.8984 95.8672 42.0117 95.8008 42.1445C95.7344 42.2773 95.7012 42.4277 95.7012 42.5957C95.7012 42.7637 95.7402 42.918 95.8184 43.0586C95.8965 43.1953 96.0098 43.3027 96.1582 43.3809C96.3105 43.459 96.4941 43.498 96.709 43.498C96.998 43.498 97.25 43.4395 97.4648 43.3223C97.6836 43.2012 97.8555 43.0547 97.9805 42.8828C98.1055 42.707 98.1719 42.541 98.1797 42.3848L98.6367 43.0117C98.5898 43.1719 98.5098 43.3438 98.3965 43.5273C98.2832 43.7109 98.1348 43.8867 97.9512 44.0547C97.7715 44.2188 97.5547 44.3535 97.3008 44.459C97.0508 44.5645 96.7617 44.6172 96.4336 44.6172C96.0195 44.6172 95.6504 44.5352 95.3262 44.3711C95.002 44.2031 94.748 43.9785 94.5645 43.6973C94.3809 43.4121 94.2891 43.0898 94.2891 42.7305C94.2891 42.3945 94.3516 42.0977 94.4766 41.8398C94.6055 41.5781 94.793 41.3594 95.0391 41.1836C95.2891 41.0078 95.5938 40.875 95.9531 40.7852C96.3125 40.6914 96.7227 40.6445 97.1836 40.6445H98.291ZM105.387 39.3672V44.5H103.975V38.1602H105.322L105.387 39.3672ZM107.326 38.1191L107.314 39.4316C107.229 39.416 107.135 39.4043 107.033 39.3965C106.936 39.3887 106.838 39.3848 106.74 39.3848C106.498 39.3848 106.285 39.4199 106.102 39.4902C105.918 39.5566 105.764 39.6543 105.639 39.7832C105.518 39.9082 105.424 40.0605 105.357 40.2402C105.291 40.4199 105.252 40.6211 105.24 40.8438L104.918 40.8672C104.918 40.4688 104.957 40.0996 105.035 39.7598C105.113 39.4199 105.23 39.1211 105.387 38.8633C105.547 38.6055 105.746 38.4043 105.984 38.2598C106.227 38.1152 106.506 38.043 106.822 38.043C106.908 38.043 107 38.0508 107.098 38.0664C107.199 38.082 107.275 38.0996 107.326 38.1191ZM107.789 41.4004V41.2656C107.789 40.8086 107.855 40.3848 107.988 39.9941C108.121 39.5996 108.312 39.2578 108.562 38.9688C108.816 38.6758 109.125 38.4492 109.488 38.2891C109.855 38.125 110.27 38.043 110.73 38.043C111.195 38.043 111.609 38.125 111.973 38.2891C112.34 38.4492 112.65 38.6758 112.904 38.9688C113.158 39.2578 113.352 39.5996 113.484 39.9941C113.617 40.3848 113.684 40.8086 113.684 41.2656V41.4004C113.684 41.8574 113.617 42.2812 113.484 42.6719C113.352 43.0625 113.158 43.4043 112.904 43.6973C112.65 43.9863 112.342 44.2129 111.979 44.377C111.615 44.5371 111.203 44.6172 110.742 44.6172C110.277 44.6172 109.861 44.5371 109.494 44.377C109.131 44.2129 108.822 43.9863 108.568 43.6973C108.314 43.4043 108.121 43.0625 107.988 42.6719C107.855 42.2812 107.789 41.8574 107.789 41.4004ZM109.201 41.2656V41.4004C109.201 41.6855 109.23 41.9551 109.289 42.209C109.348 42.4629 109.439 42.6855 109.564 42.877C109.689 43.0684 109.85 43.2188 110.045 43.3281C110.24 43.4375 110.473 43.4922 110.742 43.4922C111.004 43.4922 111.23 43.4375 111.422 43.3281C111.617 43.2188 111.777 43.0684 111.902 42.877C112.027 42.6855 112.119 42.4629 112.178 42.209C112.24 41.9551 112.271 41.6855 112.271 41.4004V41.2656C112.271 40.9844 112.24 40.7188 112.178 40.4688C112.119 40.2148 112.025 39.9902 111.896 39.7949C111.771 39.5996 111.611 39.4473 111.416 39.3379C111.225 39.2246 110.996 39.168 110.73 39.168C110.465 39.168 110.234 39.2246 110.039 39.3379C109.848 39.4473 109.689 39.5996 109.564 39.7949C109.439 39.9902 109.348 40.2148 109.289 40.4688C109.23 40.7188 109.201 40.9844 109.201 41.2656ZM114.873 35.5H116.285V43.1465L116.15 44.5H114.873V35.5ZM120.422 41.2715V41.3945C120.422 41.8633 120.369 42.2949 120.264 42.6895C120.162 43.0801 120.006 43.4199 119.795 43.709C119.588 43.998 119.33 44.2227 119.021 44.3828C118.717 44.5391 118.363 44.6172 117.961 44.6172C117.566 44.6172 117.223 44.543 116.93 44.3945C116.637 44.2461 116.391 44.0352 116.191 43.7617C115.996 43.4883 115.838 43.1621 115.717 42.7832C115.596 42.4043 115.51 41.9863 115.459 41.5293V41.1367C115.51 40.6758 115.596 40.2578 115.717 39.8828C115.838 39.5039 115.996 39.1777 116.191 38.9043C116.391 38.627 116.635 38.4141 116.924 38.2656C117.217 38.1172 117.559 38.043 117.949 38.043C118.355 38.043 118.713 38.1211 119.021 38.2773C119.334 38.4336 119.594 38.6562 119.801 38.9453C120.008 39.2305 120.162 39.5703 120.264 39.9648C120.369 40.3594 120.422 40.7949 120.422 41.2715ZM119.01 41.3945V41.2715C119.01 40.9863 118.986 40.7188 118.939 40.4688C118.893 40.2148 118.814 39.9922 118.705 39.8008C118.6 39.6094 118.455 39.459 118.271 39.3496C118.092 39.2363 117.867 39.1797 117.598 39.1797C117.348 39.1797 117.133 39.2227 116.953 39.3086C116.773 39.3945 116.623 39.5117 116.502 39.6602C116.381 39.8086 116.285 39.9805 116.215 40.1758C116.148 40.3711 116.104 40.582 116.08 40.8086V41.8691C116.115 42.1621 116.189 42.4316 116.303 42.6777C116.42 42.9199 116.584 43.1152 116.795 43.2637C117.006 43.4082 117.277 43.4805 117.609 43.4805C117.871 43.4805 118.092 43.4277 118.271 43.3223C118.451 43.2168 118.594 43.0703 118.699 42.8828C118.809 42.6914 118.887 42.4688 118.934 42.2148C118.984 41.9609 119.01 41.6875 119.01 41.3945ZM121.348 41.4004V41.2656C121.348 40.8086 121.414 40.3848 121.547 39.9941C121.68 39.5996 121.871 39.2578 122.121 38.9688C122.375 38.6758 122.684 38.4492 123.047 38.2891C123.414 38.125 123.828 38.043 124.289 38.043C124.754 38.043 125.168 38.125 125.531 38.2891C125.898 38.4492 126.209 38.6758 126.463 38.9688C126.717 39.2578 126.91 39.5996 127.043 39.9941C127.176 40.3848 127.242 40.8086 127.242 41.2656V41.4004C127.242 41.8574 127.176 42.2812 127.043 42.6719C126.91 43.0625 126.717 43.4043 126.463 43.6973C126.209 43.9863 125.9 44.2129 125.537 44.377C125.174 44.5371 124.762 44.6172 124.301 44.6172C123.836 44.6172 123.42 44.5371 123.053 44.377C122.689 44.2129 122.381 43.9863 122.127 43.6973C121.873 43.4043 121.68 43.0625 121.547 42.6719C121.414 42.2812 121.348 41.8574 121.348 41.4004ZM122.76 41.2656V41.4004C122.76 41.6855 122.789 41.9551 122.848 42.209C122.906 42.4629 122.998 42.6855 123.123 42.877C123.248 43.0684 123.408 43.2188 123.604 43.3281C123.799 43.4375 124.031 43.4922 124.301 43.4922C124.562 43.4922 124.789 43.4375 124.98 43.3281C125.176 43.2188 125.336 43.0684 125.461 42.877C125.586 42.6855 125.678 42.4629 125.736 42.209C125.799 41.9551 125.83 41.6855 125.83 41.4004V41.2656C125.83 40.9844 125.799 40.7188 125.736 40.4688C125.678 40.2148 125.584 39.9902 125.455 39.7949C125.33 39.5996 125.17 39.4473 124.975 39.3379C124.783 39.2246 124.555 39.168 124.289 39.168C124.023 39.168 123.793 39.2246 123.598 39.3379C123.406 39.4473 123.248 39.5996 123.123 39.7949C122.998 39.9902 122.906 40.2148 122.848 40.4688C122.789 40.7188 122.76 40.9844 122.76 41.2656ZM131.332 38.1602V39.1914H127.758V38.1602H131.332ZM128.789 36.6074H130.201V42.748C130.201 42.9434 130.229 43.0938 130.283 43.1992C130.342 43.3008 130.422 43.3691 130.523 43.4043C130.625 43.4395 130.744 43.457 130.881 43.457C130.979 43.457 131.072 43.4512 131.162 43.4395C131.252 43.4277 131.324 43.416 131.379 43.4043L131.385 44.4824C131.268 44.5176 131.131 44.5488 130.975 44.5762C130.822 44.6035 130.646 44.6172 130.447 44.6172C130.123 44.6172 129.836 44.5605 129.586 44.4473C129.336 44.3301 129.141 44.1406 129 43.8789C128.859 43.6172 128.789 43.2695 128.789 42.8359V36.6074Z" fill="white"/>
<rect x="21.5" y="31" width="19" height="19" rx="0.5" fill="white" stroke="#B7B7B7"/>
<g filter="url(#filter0_i_109_456)">
<path d="M270.441 37.4069L265.356 32.8307C264.339 33.8476 262.814 35.8815 258.746 35.8815C254.678 35.8815 253.153 33.8476 251.627 32.3222L255.186 28.2544H244V40.4578L247.051 37.4069C248.576 38.9324 253.051 43.0002 258.746 43.0002C264.441 43.0002 268.746 39.1019 270.441 37.4069Z" fill="#B5B6B5"/>
</g>
<g filter="url(#filter1_i_109_456)">
<path d="M258.237 25.2034L254.678 21.1356C251.119 23.1695 250.441 26.7288 250.61 28.2542H244C244 27.2373 244.098 23.9414 245.017 21.6441C246.034 19.1017 248.237 17.4068 249.593 16.5593L246.542 13H258.237L258.237 25.2034Z" fill="#4D8DF4"/>
</g>
<g filter="url(#filter2_i_109_456)">
<path d="M262.305 27.7456L265.864 24.1864C263.831 20.6271 259.932 20.1185 258.237 20.1186V13C259.763 13 263.831 13.5085 265.864 15.0339C267.762 16.457 269.254 18.0846 269.932 19.1016L273.492 16.0507V27.7456H262.305Z" fill="#1B3CAC"/>
</g>
<path d="M262.305 27.7456L265.864 24.1864C263.831 20.6271 259.932 20.1185 258.237 20.1186V13C259.763 13 263.831 13.5085 265.864 15.0339C267.762 16.457 269.254 18.0846 269.932 19.1016L273.492 16.0507V27.7456H262.305Z" stroke="black" stroke-width="0.2"/>
<path d="M238.43 53.5781V57H237.488V52.7734H238.387L238.43 53.5781ZM239.723 52.7461L239.715 53.6211C239.658 53.6107 239.595 53.6029 239.527 53.5977C239.462 53.5924 239.397 53.5898 239.332 53.5898C239.171 53.5898 239.029 53.6133 238.906 53.6602C238.784 53.7044 238.681 53.7695 238.598 53.8555C238.517 53.9388 238.454 54.0404 238.41 54.1602C238.366 54.2799 238.34 54.4141 238.332 54.5625L238.117 54.5781C238.117 54.3125 238.143 54.0664 238.195 53.8398C238.247 53.6133 238.326 53.4141 238.43 53.2422C238.536 53.0703 238.669 52.9362 238.828 52.8398C238.99 52.7435 239.176 52.6953 239.387 52.6953C239.444 52.6953 239.505 52.7005 239.57 52.7109C239.638 52.7214 239.689 52.7331 239.723 52.7461ZM242.098 57.0781C241.785 57.0781 241.503 57.0273 241.25 56.9258C241 56.8216 240.786 56.6771 240.609 56.4922C240.435 56.3073 240.301 56.0898 240.207 55.8398C240.113 55.5898 240.066 55.3203 240.066 55.0312V54.875C240.066 54.5443 240.115 54.2448 240.211 53.9766C240.307 53.7083 240.441 53.4792 240.613 53.2891C240.785 53.0964 240.988 52.9492 241.223 52.8477C241.457 52.7461 241.711 52.6953 241.984 52.6953C242.286 52.6953 242.551 52.7461 242.777 52.8477C243.004 52.9492 243.191 53.0924 243.34 53.2773C243.491 53.4596 243.603 53.6771 243.676 53.9297C243.751 54.1823 243.789 54.4609 243.789 54.7656V55.168H240.523V54.4922H242.859V54.418C242.854 54.2487 242.82 54.0898 242.758 53.9414C242.698 53.793 242.605 53.6732 242.48 53.582C242.355 53.4909 242.189 53.4453 241.98 53.4453C241.824 53.4453 241.685 53.4792 241.562 53.5469C241.443 53.612 241.342 53.707 241.262 53.832C241.181 53.957 241.118 54.1081 241.074 54.2852C241.033 54.4596 241.012 54.6562 241.012 54.875V55.0312C241.012 55.2161 241.036 55.388 241.086 55.5469C241.138 55.7031 241.214 55.8398 241.312 55.957C241.411 56.0742 241.531 56.1667 241.672 56.2344C241.812 56.2995 241.973 56.332 242.152 56.332C242.379 56.332 242.581 56.2865 242.758 56.1953C242.935 56.1042 243.089 55.9753 243.219 55.8086L243.715 56.2891C243.624 56.4219 243.505 56.5495 243.359 56.6719C243.214 56.7917 243.035 56.8893 242.824 56.9648C242.616 57.0404 242.374 57.0781 242.098 57.0781ZM247.977 55.1484H248.953C248.922 55.5208 248.818 55.8529 248.641 56.1445C248.464 56.4336 248.215 56.6615 247.895 56.8281C247.574 56.9948 247.185 57.0781 246.727 57.0781C246.375 57.0781 246.059 57.0156 245.777 56.8906C245.496 56.763 245.255 56.5833 245.055 56.3516C244.854 56.1172 244.701 55.8346 244.594 55.5039C244.49 55.1732 244.438 54.8034 244.438 54.3945V53.9219C244.438 53.513 244.491 53.1432 244.598 52.8125C244.707 52.4818 244.863 52.1992 245.066 51.9648C245.27 51.7279 245.513 51.5469 245.797 51.4219C246.083 51.2969 246.405 51.2344 246.762 51.2344C247.215 51.2344 247.598 51.3177 247.91 51.4844C248.223 51.651 248.465 51.8815 248.637 52.1758C248.811 52.4701 248.918 52.8073 248.957 53.1875H247.98C247.954 52.9427 247.897 52.7331 247.809 52.5586C247.723 52.3841 247.595 52.2513 247.426 52.1602C247.257 52.0664 247.035 52.0195 246.762 52.0195C246.538 52.0195 246.342 52.0612 246.176 52.1445C246.009 52.2279 245.87 52.3503 245.758 52.5117C245.646 52.6732 245.561 52.8724 245.504 53.1094C245.449 53.3438 245.422 53.612 245.422 53.9141V54.3945C245.422 54.681 245.447 54.9414 245.496 55.1758C245.548 55.4076 245.626 55.6068 245.73 55.7734C245.837 55.9401 245.973 56.069 246.137 56.1602C246.301 56.2513 246.497 56.2969 246.727 56.2969C247.005 56.2969 247.23 56.2526 247.402 56.1641C247.577 56.0755 247.708 55.9466 247.797 55.7773C247.888 55.6055 247.948 55.3958 247.977 55.1484ZM252.059 52.0703L250.359 57H249.332L251.473 51.3125H252.129L252.059 52.0703ZM253.48 57L251.777 52.0703L251.703 51.3125H252.363L254.512 57H253.48ZM253.398 54.8906V55.668H250.305V54.8906H253.398ZM257.309 54.8789H255.828V54.1016H257.309C257.566 54.1016 257.775 54.0599 257.934 53.9766C258.092 53.8932 258.208 53.7786 258.281 53.6328C258.357 53.4844 258.395 53.3151 258.395 53.125C258.395 52.9453 258.357 52.7773 258.281 52.6211C258.208 52.4622 258.092 52.3346 257.934 52.2383C257.775 52.1419 257.566 52.0938 257.309 52.0938H256.129V57H255.148V51.3125H257.309C257.749 51.3125 258.122 51.3906 258.43 51.5469C258.74 51.7005 258.975 51.9141 259.137 52.1875C259.298 52.4583 259.379 52.7682 259.379 53.1172C259.379 53.4844 259.298 53.7995 259.137 54.0625C258.975 54.3255 258.74 54.5273 258.43 54.668C258.122 54.8086 257.749 54.8789 257.309 54.8789ZM262.598 51.3125V57H261.625V51.3125H262.598ZM264.383 51.3125V52.0938H259.855V51.3125H264.383ZM268.383 55.1484H269.359C269.328 55.5208 269.224 55.8529 269.047 56.1445C268.87 56.4336 268.621 56.6615 268.301 56.8281C267.98 56.9948 267.591 57.0781 267.133 57.0781C266.781 57.0781 266.465 57.0156 266.184 56.8906C265.902 56.763 265.661 56.5833 265.461 56.3516C265.26 56.1172 265.107 55.8346 265 55.5039C264.896 55.1732 264.844 54.8034 264.844 54.3945V53.9219C264.844 53.513 264.897 53.1432 265.004 52.8125C265.113 52.4818 265.27 52.1992 265.473 51.9648C265.676 51.7279 265.919 51.5469 266.203 51.4219C266.49 51.2969 266.811 51.2344 267.168 51.2344C267.621 51.2344 268.004 51.3177 268.316 51.4844C268.629 51.651 268.871 51.8815 269.043 52.1758C269.217 52.4701 269.324 52.8073 269.363 53.1875H268.387C268.361 52.9427 268.303 52.7331 268.215 52.5586C268.129 52.3841 268.001 52.2513 267.832 52.1602C267.663 52.0664 267.441 52.0195 267.168 52.0195C266.944 52.0195 266.749 52.0612 266.582 52.1445C266.415 52.2279 266.276 52.3503 266.164 52.5117C266.052 52.6732 265.967 52.8724 265.91 53.1094C265.855 53.3438 265.828 53.612 265.828 53.9141V54.3945C265.828 54.681 265.853 54.9414 265.902 55.1758C265.954 55.4076 266.033 55.6068 266.137 55.7734C266.243 55.9401 266.379 56.069 266.543 56.1602C266.707 56.2513 266.904 56.2969 267.133 56.2969C267.411 56.2969 267.637 56.2526 267.809 56.1641C267.983 56.0755 268.115 55.9466 268.203 55.7773C268.294 55.6055 268.354 55.3958 268.383 55.1484ZM274.008 53.6875V54.4648H270.988V53.6875H274.008ZM271.23 51.3125V57H270.25V51.3125H271.23ZM274.762 51.3125V57H273.785V51.3125H274.762ZM278.215 52.0703L276.516 57H275.488L277.629 51.3125H278.285L278.215 52.0703ZM279.637 57L277.934 52.0703L277.859 51.3125H278.52L280.668 57H279.637ZM279.555 54.8906V55.668H276.461V54.8906H279.555Z" fill="white"/>
<path d="M240.054 65.4092H238.943V64.8262H240.054C240.247 64.8262 240.403 64.7949 240.522 64.7324C240.642 64.6699 240.729 64.584 240.783 64.4746C240.84 64.3633 240.868 64.2363 240.868 64.0938C240.868 63.959 240.84 63.833 240.783 63.7158C240.729 63.5967 240.642 63.501 240.522 63.4287C240.403 63.3564 240.247 63.3203 240.054 63.3203H239.169V67H238.434V62.7344H240.054C240.384 62.7344 240.664 62.793 240.895 62.9102C241.127 63.0254 241.304 63.1855 241.425 63.3906C241.546 63.5938 241.606 63.8262 241.606 64.0879C241.606 64.3633 241.546 64.5996 241.425 64.7969C241.304 64.9941 241.127 65.1455 240.895 65.251C240.664 65.3564 240.384 65.4092 240.054 65.4092ZM242.904 64.4336V67H242.198V63.8301H242.872L242.904 64.4336ZM243.874 63.8096L243.868 64.4658C243.825 64.458 243.778 64.4521 243.728 64.4482C243.679 64.4443 243.63 64.4424 243.581 64.4424C243.46 64.4424 243.354 64.46 243.262 64.4951C243.17 64.5283 243.093 64.5771 243.03 64.6416C242.97 64.7041 242.923 64.7803 242.89 64.8701C242.856 64.96 242.837 65.0605 242.831 65.1719L242.67 65.1836C242.67 64.9844 242.689 64.7998 242.729 64.6299C242.768 64.46 242.826 64.3105 242.904 64.1816C242.984 64.0527 243.084 63.9521 243.203 63.8799C243.324 63.8076 243.464 63.7715 243.622 63.7715C243.665 63.7715 243.711 63.7754 243.76 63.7832C243.811 63.791 243.849 63.7998 243.874 63.8096ZM245.072 63.8301V67H244.363V63.8301H245.072ZM244.316 62.998C244.316 62.8906 244.352 62.8018 244.422 62.7314C244.494 62.6592 244.594 62.623 244.721 62.623C244.846 62.623 244.944 62.6592 245.017 62.7314C245.089 62.8018 245.125 62.8906 245.125 62.998C245.125 63.1035 245.089 63.1914 245.017 63.2617C244.944 63.332 244.846 63.3672 244.721 63.3672C244.594 63.3672 244.494 63.332 244.422 63.2617C244.352 63.1914 244.316 63.1035 244.316 62.998ZM246.877 66.4404L247.653 63.8301H248.386L247.284 67H246.827L246.877 66.4404ZM246.282 63.8301L247.073 66.4521L247.111 67H246.654L245.547 63.8301H246.282ZM250.562 66.3643V64.8525C250.562 64.7393 250.542 64.6416 250.501 64.5596C250.46 64.4775 250.397 64.4141 250.313 64.3691C250.231 64.3242 250.128 64.3018 250.003 64.3018C249.888 64.3018 249.788 64.3213 249.704 64.3604C249.62 64.3994 249.555 64.4521 249.508 64.5186C249.461 64.585 249.438 64.6602 249.438 64.7441H248.734C248.734 64.6191 248.765 64.498 248.825 64.3809C248.886 64.2637 248.974 64.1592 249.089 64.0674C249.204 63.9756 249.342 63.9033 249.502 63.8506C249.662 63.7979 249.842 63.7715 250.041 63.7715C250.279 63.7715 250.49 63.8115 250.674 63.8916C250.859 63.9717 251.005 64.0928 251.11 64.2549C251.218 64.415 251.271 64.6162 251.271 64.8584V66.2676C251.271 66.4121 251.281 66.542 251.301 66.6572C251.322 66.7705 251.353 66.8691 251.392 66.9531V67H250.668C250.635 66.9238 250.608 66.8271 250.589 66.71C250.571 66.5908 250.562 66.4756 250.562 66.3643ZM250.665 65.0723L250.671 65.5088H250.164C250.033 65.5088 249.918 65.5215 249.818 65.5469C249.719 65.5703 249.636 65.6055 249.569 65.6523C249.503 65.6992 249.453 65.7559 249.42 65.8223C249.387 65.8887 249.37 65.9639 249.37 66.0479C249.37 66.1318 249.39 66.209 249.429 66.2793C249.468 66.3477 249.524 66.4014 249.599 66.4404C249.675 66.4795 249.767 66.499 249.874 66.499C250.019 66.499 250.145 66.4697 250.252 66.4111C250.361 66.3506 250.447 66.2773 250.51 66.1914C250.572 66.1035 250.605 66.0205 250.609 65.9424L250.838 66.2559C250.814 66.3359 250.774 66.4219 250.718 66.5137C250.661 66.6055 250.587 66.6934 250.495 66.7773C250.405 66.8594 250.297 66.9268 250.17 66.9795C250.045 67.0322 249.9 67.0586 249.736 67.0586C249.529 67.0586 249.345 67.0176 249.183 66.9355C249.021 66.8516 248.894 66.7393 248.802 66.5986C248.71 66.4561 248.664 66.2949 248.664 66.1152C248.664 65.9473 248.695 65.7988 248.758 65.6699C248.822 65.5391 248.916 65.4297 249.039 65.3418C249.164 65.2539 249.316 65.1875 249.496 65.1426C249.676 65.0957 249.881 65.0723 250.111 65.0723H250.665ZM253.305 66.4961C253.42 66.4961 253.523 66.4736 253.615 66.4287C253.709 66.3818 253.784 66.3174 253.841 66.2354C253.899 66.1533 253.932 66.0586 253.938 65.9512H254.603C254.599 66.1562 254.538 66.3428 254.421 66.5107C254.304 66.6787 254.148 66.8125 253.955 66.9121C253.762 67.0098 253.548 67.0586 253.313 67.0586C253.071 67.0586 252.86 67.0176 252.681 66.9355C252.501 66.8516 252.352 66.7363 252.232 66.5898C252.113 66.4434 252.023 66.2744 251.963 66.083C251.904 65.8916 251.875 65.6865 251.875 65.4678V65.3652C251.875 65.1465 251.904 64.9414 251.963 64.75C252.023 64.5566 252.113 64.3867 252.232 64.2402C252.352 64.0938 252.501 63.9795 252.681 63.8975C252.86 63.8135 253.07 63.7715 253.311 63.7715C253.564 63.7715 253.787 63.8223 253.979 63.9238C254.17 64.0234 254.32 64.1631 254.43 64.3428C254.541 64.5205 254.599 64.7275 254.603 64.9639H253.938C253.932 64.8467 253.902 64.7412 253.85 64.6475C253.799 64.5518 253.727 64.4756 253.633 64.4189C253.541 64.3623 253.431 64.334 253.302 64.334C253.159 64.334 253.041 64.3633 252.947 64.4219C252.854 64.4785 252.78 64.5566 252.728 64.6562C252.675 64.7539 252.637 64.8643 252.613 64.9873C252.592 65.1084 252.581 65.2344 252.581 65.3652V65.4678C252.581 65.5986 252.592 65.7256 252.613 65.8486C252.635 65.9717 252.672 66.082 252.725 66.1797C252.779 66.2754 252.854 66.3525 252.947 66.4111C253.041 66.4678 253.16 66.4961 253.305 66.4961ZM256.064 66.6543L256.926 63.8301H257.682L256.41 67.4834C256.381 67.5615 256.343 67.6465 256.296 67.7383C256.249 67.8301 256.188 67.917 256.111 67.999C256.037 68.083 255.944 68.1504 255.833 68.2012C255.722 68.2539 255.587 68.2803 255.429 68.2803C255.366 68.2803 255.306 68.2744 255.247 68.2627C255.19 68.2529 255.137 68.2422 255.086 68.2305L255.083 67.6914C255.103 67.6934 255.126 67.6953 255.153 67.6973C255.183 67.6992 255.206 67.7002 255.224 67.7002C255.341 67.7002 255.438 67.6855 255.517 67.6562C255.595 67.6289 255.658 67.584 255.707 67.5215C255.758 67.459 255.801 67.375 255.836 67.2695L256.064 66.6543ZM255.578 63.8301L256.331 66.2031L256.457 66.9473L255.968 67.0732L254.816 63.8301H255.578ZM261.001 64.8965V65.459H259.451V64.8965H261.001ZM264.798 62.7344V67H264.068V62.7344H264.798ZM266.137 62.7344V63.3203H262.741V62.7344H266.137ZM267.745 67.0586C267.511 67.0586 267.299 67.0205 267.109 66.9443C266.922 66.8662 266.762 66.7578 266.629 66.6191C266.498 66.4805 266.397 66.3174 266.327 66.1299C266.257 65.9424 266.222 65.7402 266.222 65.5234V65.4062C266.222 65.1582 266.258 64.9336 266.33 64.7324C266.402 64.5312 266.503 64.3594 266.632 64.2168C266.761 64.0723 266.913 63.9619 267.089 63.8857C267.265 63.8096 267.455 63.7715 267.66 63.7715C267.887 63.7715 268.085 63.8096 268.255 63.8857C268.425 63.9619 268.565 64.0693 268.677 64.208C268.79 64.3447 268.874 64.5078 268.929 64.6973C268.985 64.8867 269.014 65.0957 269.014 65.3242V65.626H266.564V65.1191H268.316V65.0635C268.312 64.9365 268.287 64.8174 268.24 64.7061C268.195 64.5947 268.126 64.5049 268.032 64.4365C267.938 64.3682 267.813 64.334 267.657 64.334C267.54 64.334 267.436 64.3594 267.344 64.4102C267.254 64.459 267.179 64.5303 267.118 64.624C267.058 64.7178 267.011 64.8311 266.978 64.9639C266.946 65.0947 266.931 65.2422 266.931 65.4062V65.5234C266.931 65.6621 266.949 65.791 266.986 65.9102C267.025 66.0273 267.082 66.1299 267.156 66.2178C267.23 66.3057 267.32 66.375 267.426 66.4258C267.531 66.4746 267.651 66.499 267.786 66.499C267.956 66.499 268.107 66.4648 268.24 66.3965C268.373 66.3281 268.488 66.2314 268.586 66.1064L268.958 66.4668C268.89 66.5664 268.801 66.6621 268.691 66.7539C268.582 66.8438 268.448 66.917 268.29 66.9736C268.134 67.0303 267.952 67.0586 267.745 67.0586ZM270.273 64.4336V67H269.567V63.8301H270.241L270.273 64.4336ZM271.243 63.8096L271.237 64.4658C271.194 64.458 271.147 64.4521 271.097 64.4482C271.048 64.4443 270.999 64.4424 270.95 64.4424C270.829 64.4424 270.723 64.46 270.631 64.4951C270.539 64.5283 270.462 64.5771 270.399 64.6416C270.339 64.7041 270.292 64.7803 270.259 64.8701C270.226 64.96 270.206 65.0605 270.2 65.1719L270.039 65.1836C270.039 64.9844 270.059 64.7998 270.098 64.6299C270.137 64.46 270.195 64.3105 270.273 64.1816C270.354 64.0527 270.453 63.9521 270.572 63.8799C270.693 63.8076 270.833 63.7715 270.991 63.7715C271.034 63.7715 271.08 63.7754 271.129 63.7832C271.18 63.791 271.218 63.7998 271.243 63.8096ZM272.392 64.4746V67H271.686V63.8301H272.351L272.392 64.4746ZM272.277 65.2979L272.037 65.2949C272.037 65.0762 272.064 64.874 272.119 64.6885C272.174 64.5029 272.254 64.3418 272.359 64.2051C272.465 64.0664 272.596 63.96 272.752 63.8857C272.91 63.8096 273.093 63.7715 273.3 63.7715C273.444 63.7715 273.576 63.793 273.695 63.8359C273.816 63.877 273.921 63.9424 274.009 64.0322C274.099 64.1221 274.167 64.2373 274.214 64.3779C274.263 64.5186 274.287 64.6885 274.287 64.8877V67H273.581V64.9492C273.581 64.7949 273.558 64.6738 273.511 64.5859C273.466 64.498 273.4 64.4355 273.314 64.3984C273.23 64.3594 273.13 64.3398 273.013 64.3398C272.88 64.3398 272.767 64.3652 272.673 64.416C272.581 64.4668 272.506 64.5361 272.447 64.624C272.389 64.7119 272.346 64.8135 272.318 64.9287C272.291 65.0439 272.277 65.167 272.277 65.2979ZM274.243 65.1104L273.912 65.1836C273.912 64.9922 273.938 64.8115 273.991 64.6416C274.046 64.4697 274.125 64.3193 274.229 64.1904C274.334 64.0596 274.464 63.957 274.618 63.8828C274.772 63.8086 274.949 63.7715 275.148 63.7715C275.311 63.7715 275.455 63.7939 275.582 63.8389C275.711 63.8818 275.82 63.9502 275.91 64.0439C276 64.1377 276.068 64.2598 276.115 64.4102C276.162 64.5586 276.186 64.7383 276.186 64.9492V67H275.477V64.9463C275.477 64.7861 275.453 64.6621 275.406 64.5742C275.361 64.4863 275.297 64.4258 275.213 64.3926C275.129 64.3574 275.028 64.3398 274.911 64.3398C274.802 64.3398 274.705 64.3604 274.621 64.4014C274.539 64.4404 274.47 64.4961 274.413 64.5684C274.356 64.6387 274.313 64.7197 274.284 64.8115C274.257 64.9033 274.243 65.0029 274.243 65.1104ZM278.69 66.1416C278.69 66.0713 278.673 66.0078 278.638 65.9512C278.603 65.8926 278.535 65.8398 278.436 65.793C278.338 65.7461 278.193 65.7031 278.002 65.6641C277.834 65.627 277.68 65.583 277.539 65.5322C277.4 65.4795 277.281 65.416 277.182 65.3418C277.082 65.2676 277.005 65.1797 276.95 65.0781C276.896 64.9766 276.868 64.8594 276.868 64.7266C276.868 64.5977 276.896 64.4756 276.953 64.3604C277.01 64.2451 277.091 64.1436 277.196 64.0557C277.302 63.9678 277.43 63.8984 277.58 63.8477C277.732 63.7969 277.902 63.7715 278.09 63.7715C278.355 63.7715 278.583 63.8164 278.772 63.9062C278.964 63.9941 279.11 64.1143 279.212 64.2666C279.313 64.417 279.364 64.5869 279.364 64.7764H278.658C278.658 64.6924 278.637 64.6143 278.594 64.542C278.553 64.4678 278.49 64.4082 278.406 64.3633C278.322 64.3164 278.217 64.293 278.09 64.293C277.969 64.293 277.868 64.3125 277.788 64.3516C277.71 64.3887 277.651 64.4375 277.612 64.498C277.575 64.5586 277.557 64.625 277.557 64.6973C277.557 64.75 277.566 64.7979 277.586 64.8408C277.607 64.8818 277.643 64.9199 277.691 64.9551C277.74 64.9883 277.807 65.0195 277.891 65.0488C277.977 65.0781 278.084 65.1064 278.213 65.1338C278.455 65.1846 278.663 65.25 278.837 65.3301C279.013 65.4082 279.147 65.5098 279.241 65.6348C279.335 65.7578 279.382 65.9141 279.382 66.1035C279.382 66.2441 279.352 66.373 279.291 66.4902C279.232 66.6055 279.146 66.7061 279.033 66.792C278.92 66.876 278.784 66.9414 278.626 66.9883C278.47 67.0352 278.294 67.0586 278.099 67.0586C277.812 67.0586 277.568 67.0078 277.369 66.9062C277.17 66.8027 277.019 66.6709 276.915 66.5107C276.813 66.3486 276.763 66.1807 276.763 66.0068H277.445C277.453 66.1377 277.489 66.2422 277.554 66.3203C277.62 66.3965 277.702 66.4521 277.8 66.4873C277.899 66.5205 278.002 66.5371 278.107 66.5371C278.234 66.5371 278.341 66.5205 278.427 66.4873C278.513 66.4521 278.578 66.4053 278.623 66.3467C278.668 66.2861 278.69 66.2178 278.69 66.1416Z" fill="white"/>
<rect x="0.65" y="0.65" width="300.7" height="79.7" rx="2.35" stroke="#777777" stroke-width="0.7"/>
<defs>
<filter id="filter0_i_109_456" x="244" y="27.2544" width="27.4404" height="15.7456" filterUnits="userSpaceOnUse" color-interpolation-filters="sRGB">
<feFlood flood-opacity="0" result="BackgroundImageFix"/>
<feBlend mode="normal" in="SourceGraphic" in2="BackgroundImageFix" result="shape"/>
<feColorMatrix in="SourceAlpha" type="matrix" values="0 0 0 0 0 0 0 0 0 0 0 0 0 0 0 0 0 0 127 0" result="hardAlpha"/>
<feOffset dx="1" dy="-1"/>
<feGaussianBlur stdDeviation="0.5"/>
<feComposite in2="hardAlpha" operator="arithmetic" k2="-1" k3="1"/>
<feColorMatrix type="matrix" values="0 0 0 0 1 0 0 0 0 1 0 0 0 0 1 0 0 0 0.2 0"/>
<feBlend mode="normal" in2="shape" result="effect1_innerShadow_109_456"/>
</filter>
<filter id="filter1_i_109_456" x="244" y="12" width="15.2373" height="16.2544" filterUnits="userSpaceOnUse" color-interpolation-filters="sRGB">
<feFlood flood-opacity="0" result="BackgroundImageFix"/>
<feBlend mode="normal" in="SourceGraphic" in2="BackgroundImageFix" result="shape"/>
<feColorMatrix in="SourceAlpha" type="matrix" values="0 0 0 0 0 0 0 0 0 0 0 0 0 0 0 0 0 0 127 0" result="hardAlpha"/>
<feOffset dx="1" dy="-1"/>
<feGaussianBlur stdDeviation="0.5"/>
<feComposite in2="hardAlpha" operator="arithmetic" k2="-1" k3="1"/>
<feColorMatrix type="matrix" values="0 0 0 0 0 0 0 0 0 0 0 0 0 0 0 0 0 0 0.1 0"/>
<feBlend mode="normal" in2="shape" result="effect1_innerShadow_109_456"/>
</filter>
<filter id="filter2_i_109_456" x="258.138" y="11.8999" width="16.4541" height="15.9458" filterUnits="userSpaceOnUse" color-interpolation-filters="sRGB">
<feFlood flood-opacity="0" result="BackgroundImageFix"/>
<feBlend mode="normal" in="SourceGraphic" in2="BackgroundImageFix" result="shape"/>
<feColorMatrix in="SourceAlpha" type="matrix" values="0 0 0 0 0 0 0 0 0 0 0 0 0 0 0 0 0 0 127 0" result="hardAlpha"/>
<feOffset dx="1" dy="-1"/>
<feGaussianBlur stdDeviation="0.5"/>
<feComposite in2="hardAlpha" operator="arithmetic" k2="-1" k3="1"/>
<feColorMatrix type="matrix" values="0 0 0 0 0 0 0 0 0 0 0 0 0 0 0 0 0 0 0.1 0"/>
<feBlend mode="normal" in2="shape" result="effect1_innerShadow_109_456"/>
</filter>
</defs>
</svg>
