<svg width="302" height="81" viewBox="0 0 302 81" fill="none" xmlns="http://www.w3.org/2000/svg">
<rect x="0.65" y="0.65" width="300.7" height="79.7" rx="2.35" fill="#F9F9F9"/>
<path d="M55.6309 35.9688V44.5H53.8789V35.9688H55.6309ZM58.7129 35.5V36.3906C58.7129 36.6445 58.6641 36.9062 58.5664 37.1758C58.4727 37.4453 58.3457 37.7012 58.1855 37.9434C58.0254 38.1816 57.8496 38.3848 57.6582 38.5527L56.8672 38.0957C57.0117 37.8652 57.1348 37.6152 57.2363 37.3457C57.3379 37.0723 57.3887 36.7559 57.3887 36.3965V35.5H58.7129ZM61.4961 39.4727V44.5H59.8027V38.1602H61.3906L61.4961 39.4727ZM61.2617 41.1074H60.793C60.793 40.666 60.8457 40.2598 60.9512 39.8887C61.0605 39.5137 61.2188 39.1895 61.4258 38.916C61.6367 38.6387 61.8965 38.4238 62.2051 38.2715C62.5137 38.1191 62.8711 38.043 63.2773 38.043C63.5586 38.043 63.8164 38.0859 64.0508 38.1719C64.2852 38.2539 64.4863 38.3848 64.6543 38.5645C64.8262 38.7402 64.959 38.9707 65.0527 39.2559C65.1465 39.5371 65.1934 39.875 65.1934 40.2695V44.5H63.5059V40.457C63.5059 40.168 63.4668 39.9453 63.3887 39.7891C63.3105 39.6328 63.1992 39.5234 63.0547 39.4609C62.9141 39.3984 62.7441 39.3672 62.5449 39.3672C62.3262 39.3672 62.1348 39.4121 61.9707 39.502C61.8105 39.5918 61.6777 39.7168 61.5723 39.877C61.4668 40.0332 61.3887 40.2168 61.3379 40.4277C61.2871 40.6387 61.2617 40.8652 61.2617 41.1074ZM65.0352 40.9141L64.4316 40.9902C64.4316 40.5762 64.4824 40.1914 64.584 39.8359C64.6895 39.4805 64.8438 39.168 65.0469 38.8984C65.2539 38.6289 65.5098 38.4199 65.8145 38.2715C66.1191 38.1191 66.4707 38.043 66.8691 38.043C67.1738 38.043 67.4512 38.0879 67.7012 38.1777C67.9512 38.2637 68.1641 38.4023 68.3398 38.5938C68.5195 38.7812 68.6562 39.0273 68.75 39.332C68.8477 39.6367 68.8965 40.0098 68.8965 40.4512V44.5H67.2031V40.4512C67.2031 40.1582 67.1641 39.9355 67.0859 39.7832C67.0117 39.627 66.9023 39.5195 66.7578 39.4609C66.6172 39.3984 66.4492 39.3672 66.2539 39.3672C66.0508 39.3672 65.873 39.4082 65.7207 39.4902C65.5684 39.5684 65.4414 39.6777 65.3398 39.8184C65.2383 39.959 65.1621 40.123 65.1113 40.3105C65.0605 40.4941 65.0352 40.6953 65.0352 40.9141ZM74.8438 39.5137V44.5H73.1562V38.1602H74.7383L74.8438 39.5137ZM74.5977 41.1074H74.1406C74.1406 40.6387 74.2012 40.2168 74.3223 39.8418C74.4434 39.4629 74.6133 39.1406 74.832 38.875C75.0508 38.6055 75.3105 38.4004 75.6113 38.2598C75.916 38.1152 76.2559 38.043 76.6309 38.043C76.9277 38.043 77.1992 38.0859 77.4453 38.1719C77.6914 38.2578 77.9023 38.3945 78.0781 38.582C78.2578 38.7695 78.3945 39.0176 78.4883 39.3262C78.5859 39.6348 78.6348 40.0117 78.6348 40.457V44.5H76.9355V40.4512C76.9355 40.1699 76.8965 39.9512 76.8184 39.7949C76.7402 39.6387 76.625 39.5293 76.4727 39.4668C76.3242 39.4004 76.1406 39.3672 75.9219 39.3672C75.6953 39.3672 75.498 39.4121 75.3301 39.502C75.166 39.5918 75.0293 39.7168 74.9199 39.877C74.8145 40.0332 74.7344 40.2168 74.6797 40.4277C74.625 40.6387 74.5977 40.8652 74.5977 41.1074ZM79.6484 41.3945V41.2715C79.6484 40.8066 79.7148 40.3789 79.8477 39.9883C79.9805 39.5938 80.1738 39.252 80.4277 38.9629C80.6816 38.6738 80.9941 38.4492 81.3652 38.2891C81.7363 38.125 82.1621 38.043 82.6426 38.043C83.123 38.043 83.5508 38.125 83.9258 38.2891C84.3008 38.4492 84.6152 38.6738 84.8691 38.9629C85.127 39.252 85.3223 39.5938 85.4551 39.9883C85.5879 40.3789 85.6543 40.8066 85.6543 41.2715V41.3945C85.6543 41.8555 85.5879 42.2832 85.4551 42.6777C85.3223 43.0684 85.127 43.4102 84.8691 43.7031C84.6152 43.9922 84.3027 44.2168 83.9316 44.377C83.5605 44.5371 83.1348 44.6172 82.6543 44.6172C82.1738 44.6172 81.7461 44.5371 81.3711 44.377C81 44.2168 80.6855 43.9922 80.4277 43.7031C80.1738 43.4102 79.9805 43.0684 79.8477 42.6777C79.7148 42.2832 79.6484 41.8555 79.6484 41.3945ZM81.3359 41.2715V41.3945C81.3359 41.6602 81.3594 41.9082 81.4062 42.1387C81.4531 42.3691 81.5273 42.5723 81.6289 42.748C81.7344 42.9199 81.8711 43.0547 82.0391 43.1523C82.207 43.25 82.4121 43.2988 82.6543 43.2988C82.8887 43.2988 83.0898 43.25 83.2578 43.1523C83.4258 43.0547 83.5605 42.9199 83.6621 42.748C83.7637 42.5723 83.8379 42.3691 83.8848 42.1387C83.9355 41.9082 83.9609 41.6602 83.9609 41.3945V41.2715C83.9609 41.0137 83.9355 40.7715 83.8848 40.5449C83.8379 40.3145 83.7617 40.1113 83.6562 39.9355C83.5547 39.7559 83.4199 39.6152 83.252 39.5137C83.084 39.4121 82.8809 39.3613 82.6426 39.3613C82.4043 39.3613 82.2012 39.4121 82.0332 39.5137C81.8691 39.6152 81.7344 39.7559 81.6289 39.9355C81.5273 40.1113 81.4531 40.3145 81.4062 40.5449C81.3594 40.7715 81.3359 41.0137 81.3359 41.2715ZM89.7969 38.1602V39.3555H86.1055V38.1602H89.7969ZM87.0195 36.5957H88.707V42.5898C88.707 42.7734 88.7305 42.9141 88.7773 43.0117C88.8281 43.1094 88.9023 43.1777 89 43.2168C89.0977 43.252 89.2207 43.2695 89.3691 43.2695C89.4746 43.2695 89.5684 43.2656 89.6504 43.2578C89.7363 43.2461 89.8086 43.2344 89.8672 43.2227L89.873 44.4648C89.7285 44.5117 89.5723 44.5488 89.4043 44.5762C89.2363 44.6035 89.0508 44.6172 88.8477 44.6172C88.4766 44.6172 88.1523 44.5566 87.875 44.4355C87.6016 44.3105 87.3906 44.1113 87.2422 43.8379C87.0938 43.5645 87.0195 43.2051 87.0195 42.7598V36.5957ZM97.168 43.0703V40.2461C97.168 40.043 97.1348 39.8691 97.0684 39.7246C97.002 39.5762 96.8984 39.4609 96.7578 39.3789C96.6211 39.2969 96.4434 39.2559 96.2246 39.2559C96.0371 39.2559 95.875 39.2891 95.7383 39.3555C95.6016 39.418 95.4961 39.5098 95.4219 39.6309C95.3477 39.748 95.3105 39.8867 95.3105 40.0469H93.623C93.623 39.7773 93.6855 39.5215 93.8105 39.2793C93.9355 39.0371 94.1172 38.8242 94.3555 38.6406C94.5938 38.4531 94.877 38.3066 95.2051 38.2012C95.5371 38.0957 95.9082 38.043 96.3184 38.043C96.8105 38.043 97.248 38.125 97.6309 38.2891C98.0137 38.4531 98.3145 38.6992 98.5332 39.0273C98.7559 39.3555 98.8672 39.7656 98.8672 40.2578V42.9707C98.8672 43.3184 98.8887 43.6035 98.9316 43.8262C98.9746 44.0449 99.0371 44.2363 99.1191 44.4004V44.5H97.4141C97.332 44.3281 97.2695 44.1133 97.2266 43.8555C97.1875 43.5938 97.168 43.332 97.168 43.0703ZM97.3906 40.6387L97.4023 41.5938H96.459C96.2363 41.5938 96.043 41.6191 95.8789 41.6699C95.7148 41.7207 95.5801 41.793 95.4746 41.8867C95.3691 41.9766 95.291 42.082 95.2402 42.2031C95.1934 42.3242 95.1699 42.457 95.1699 42.6016C95.1699 42.7461 95.2031 42.877 95.2695 42.9941C95.3359 43.1074 95.4316 43.1973 95.5566 43.2637C95.6816 43.3262 95.8281 43.3574 95.9961 43.3574C96.25 43.3574 96.4707 43.3066 96.6582 43.2051C96.8457 43.1035 96.9902 42.9785 97.0918 42.8301C97.1973 42.6816 97.252 42.541 97.2559 42.4082L97.7012 43.123C97.6387 43.2832 97.5527 43.4492 97.4434 43.6211C97.3379 43.793 97.2031 43.9551 97.0391 44.1074C96.875 44.2559 96.6777 44.3789 96.4473 44.4766C96.2168 44.5703 95.9434 44.6172 95.627 44.6172C95.2246 44.6172 94.8594 44.5371 94.5312 44.377C94.207 44.2129 93.9492 43.9883 93.7578 43.7031C93.5703 43.4141 93.4766 43.0859 93.4766 42.7188C93.4766 42.3867 93.5391 42.0918 93.6641 41.834C93.7891 41.5762 93.9727 41.3594 94.2148 41.1836C94.4609 41.0039 94.7676 40.8691 95.1348 40.7793C95.502 40.6855 95.9277 40.6387 96.4121 40.6387H97.3906ZM104.844 39.543V44.5H103.156V38.1602H104.744L104.844 39.543ZM106.754 38.1191L106.725 39.6836C106.643 39.6719 106.543 39.6621 106.426 39.6543C106.312 39.6426 106.209 39.6367 106.115 39.6367C105.877 39.6367 105.67 39.668 105.494 39.7305C105.322 39.7891 105.178 39.877 105.061 39.9941C104.947 40.1113 104.861 40.2539 104.803 40.4219C104.748 40.5898 104.717 40.7812 104.709 40.9961L104.369 40.8906C104.369 40.4805 104.41 40.1035 104.492 39.7598C104.574 39.4121 104.693 39.1094 104.85 38.8516C105.01 38.5938 105.205 38.3945 105.436 38.2539C105.666 38.1133 105.93 38.043 106.227 38.043C106.32 38.043 106.416 38.0508 106.514 38.0664C106.611 38.0781 106.691 38.0957 106.754 38.1191ZM107.105 41.3945V41.2715C107.105 40.8066 107.172 40.3789 107.305 39.9883C107.438 39.5938 107.631 39.252 107.885 38.9629C108.139 38.6738 108.451 38.4492 108.822 38.2891C109.193 38.125 109.619 38.043 110.1 38.043C110.58 38.043 111.008 38.125 111.383 38.2891C111.758 38.4492 112.072 38.6738 112.326 38.9629C112.584 39.252 112.779 39.5938 112.912 39.9883C113.045 40.3789 113.111 40.8066 113.111 41.2715V41.3945C113.111 41.8555 113.045 42.2832 112.912 42.6777C112.779 43.0684 112.584 43.4102 112.326 43.7031C112.072 43.9922 111.76 44.2168 111.389 44.377C111.018 44.5371 110.592 44.6172 110.111 44.6172C109.631 44.6172 109.203 44.5371 108.828 44.377C108.457 44.2168 108.143 43.9922 107.885 43.7031C107.631 43.4102 107.438 43.0684 107.305 42.6777C107.172 42.2832 107.105 41.8555 107.105 41.3945ZM108.793 41.2715V41.3945C108.793 41.6602 108.816 41.9082 108.863 42.1387C108.91 42.3691 108.984 42.5723 109.086 42.748C109.191 42.9199 109.328 43.0547 109.496 43.1523C109.664 43.25 109.869 43.2988 110.111 43.2988C110.346 43.2988 110.547 43.25 110.715 43.1523C110.883 43.0547 111.018 42.9199 111.119 42.748C111.221 42.5723 111.295 42.3691 111.342 42.1387C111.393 41.9082 111.418 41.6602 111.418 41.3945V41.2715C111.418 41.0137 111.393 40.7715 111.342 40.5449C111.295 40.3145 111.219 40.1113 111.113 39.9355C111.012 39.7559 110.877 39.6152 110.709 39.5137C110.541 39.4121 110.338 39.3613 110.1 39.3613C109.861 39.3613 109.658 39.4121 109.49 39.5137C109.326 39.6152 109.191 39.7559 109.086 39.9355C108.984 40.1113 108.91 40.3145 108.863 40.5449C108.816 40.7715 108.793 41.0137 108.793 41.2715ZM114.148 35.5H115.836V43.0469L115.666 44.5H114.148V35.5ZM119.85 41.2656V41.3887C119.85 41.8613 119.799 42.2949 119.697 42.6895C119.6 43.084 119.447 43.4258 119.24 43.7148C119.033 44 118.775 44.2227 118.467 44.3828C118.162 44.5391 117.803 44.6172 117.389 44.6172C117.002 44.6172 116.666 44.5391 116.381 44.3828C116.1 44.2266 115.863 44.0059 115.672 43.7207C115.48 43.4355 115.326 43.1016 115.209 42.7188C115.092 42.3359 115.004 41.918 114.945 41.4648V41.1953C115.004 40.7422 115.092 40.3242 115.209 39.9414C115.326 39.5586 115.48 39.2246 115.672 38.9395C115.863 38.6543 116.1 38.4336 116.381 38.2773C116.662 38.1211 116.994 38.043 117.377 38.043C117.795 38.043 118.158 38.123 118.467 38.2832C118.779 38.4395 119.037 38.6621 119.24 38.9512C119.447 39.2363 119.6 39.5762 119.697 39.9707C119.799 40.3613 119.85 40.793 119.85 41.2656ZM118.162 41.3887V41.2656C118.162 41.0078 118.143 40.7656 118.104 40.5391C118.068 40.3086 118.006 40.1074 117.916 39.9355C117.826 39.7598 117.703 39.6211 117.547 39.5195C117.395 39.418 117.197 39.3672 116.955 39.3672C116.725 39.3672 116.529 39.4062 116.369 39.4844C116.209 39.5625 116.076 39.6719 115.971 39.8125C115.869 39.9531 115.793 40.1211 115.742 40.3164C115.691 40.5078 115.66 40.7188 115.648 40.9492V41.7168C115.66 42.0254 115.711 42.2988 115.801 42.5371C115.895 42.7715 116.035 42.957 116.223 43.0938C116.414 43.2266 116.662 43.293 116.967 43.293C117.205 43.293 117.402 43.2461 117.559 43.1523C117.715 43.0586 117.836 42.9258 117.922 42.7539C118.012 42.582 118.074 42.3809 118.109 42.1504C118.145 41.916 118.162 41.6621 118.162 41.3887ZM120.629 41.3945V41.2715C120.629 40.8066 120.695 40.3789 120.828 39.9883C120.961 39.5938 121.154 39.252 121.408 38.9629C121.662 38.6738 121.975 38.4492 122.346 38.2891C122.717 38.125 123.143 38.043 123.623 38.043C124.104 38.043 124.531 38.125 124.906 38.2891C125.281 38.4492 125.596 38.6738 125.85 38.9629C126.107 39.252 126.303 39.5938 126.436 39.9883C126.568 40.3789 126.635 40.8066 126.635 41.2715V41.3945C126.635 41.8555 126.568 42.2832 126.436 42.6777C126.303 43.0684 126.107 43.4102 125.85 43.7031C125.596 43.9922 125.283 44.2168 124.912 44.377C124.541 44.5371 124.115 44.6172 123.635 44.6172C123.154 44.6172 122.727 44.5371 122.352 44.377C121.98 44.2168 121.666 43.9922 121.408 43.7031C121.154 43.4102 120.961 43.0684 120.828 42.6777C120.695 42.2832 120.629 41.8555 120.629 41.3945ZM122.316 41.2715V41.3945C122.316 41.6602 122.34 41.9082 122.387 42.1387C122.434 42.3691 122.508 42.5723 122.609 42.748C122.715 42.9199 122.852 43.0547 123.02 43.1523C123.188 43.25 123.393 43.2988 123.635 43.2988C123.869 43.2988 124.07 43.25 124.238 43.1523C124.406 43.0547 124.541 42.9199 124.643 42.748C124.744 42.5723 124.818 42.3691 124.865 42.1387C124.916 41.9082 124.941 41.6602 124.941 41.3945V41.2715C124.941 41.0137 124.916 40.7715 124.865 40.5449C124.818 40.3145 124.742 40.1113 124.637 39.9355C124.535 39.7559 124.4 39.6152 124.232 39.5137C124.064 39.4121 123.861 39.3613 123.623 39.3613C123.385 39.3613 123.182 39.4121 123.014 39.5137C122.85 39.6152 122.715 39.7559 122.609 39.9355C122.508 40.1113 122.434 40.3145 122.387 40.5449C122.34 40.7715 122.316 41.0137 122.316 41.2715ZM130.777 38.1602V39.3555H127.086V38.1602H130.777ZM128 36.5957H129.688V42.5898C129.688 42.7734 129.711 42.9141 129.758 43.0117C129.809 43.1094 129.883 43.1777 129.98 43.2168C130.078 43.252 130.201 43.2695 130.35 43.2695C130.455 43.2695 130.549 43.2656 130.631 43.2578C130.717 43.2461 130.789 43.2344 130.848 43.2227L130.854 44.4648C130.709 44.5117 130.553 44.5488 130.385 44.5762C130.217 44.6035 130.031 44.6172 129.828 44.6172C129.457 44.6172 129.133 44.5566 128.855 44.4355C128.582 44.3105 128.371 44.1113 128.223 43.8379C128.074 43.5645 128 43.2051 128 42.7598V36.5957Z" fill="black"/>
<rect x="20.5" y="31" width="19" height="19" rx="0.5" fill="white" stroke="#B7B7B7"/>
<g filter="url(#filter0_i_29_18945)">
<path d="M270.441 37.4068L265.356 32.8305C264.339 33.8475 262.814 35.8814 258.746 35.8814C254.678 35.8814 253.153 33.8475 251.627 32.322L255.186 28.2542H244V40.4576L247.051 37.4068C248.576 38.9322 253.051 43 258.746 43C264.441 43 268.746 39.1017 270.441 37.4068Z" fill="#B5B6B5"/>
</g>
<g filter="url(#filter1_i_29_18945)">
<path d="M258.237 25.2034L254.678 21.1356C251.119 23.1695 250.441 26.7288 250.61 28.2542H244C244 27.2373 244.098 23.9414 245.017 21.6441C246.034 19.1017 248.237 17.4068 249.593 16.5593L246.542 13H258.237L258.237 25.2034Z" fill="#4D8DF4"/>
</g>
<g filter="url(#filter2_i_29_18945)">
<path d="M262.305 27.7456L265.864 24.1864C263.831 20.6271 259.932 20.1185 258.237 20.1186V13C259.763 13 263.831 13.5085 265.864 15.0339C267.762 16.457 269.254 18.0846 269.932 19.1016L273.492 16.0507V27.7456H262.305Z" fill="#1B3CAC"/>
</g>
<path d="M262.305 27.7456L265.864 24.1864C263.831 20.6271 259.932 20.1185 258.237 20.1186V13C259.763 13 263.831 13.5085 265.864 15.0339C267.762 16.457 269.254 18.0846 269.932 19.1016L273.492 16.0507V27.7456H262.305Z" stroke="black" stroke-width="0.2"/>
<path d="M238.562 53.6953V57H237.438V52.7734H238.496L238.562 53.6953ZM239.836 52.7461L239.816 53.7891C239.762 53.7812 239.695 53.7747 239.617 53.7695C239.542 53.7617 239.473 53.7578 239.41 53.7578C239.251 53.7578 239.113 53.7786 238.996 53.8203C238.882 53.8594 238.785 53.918 238.707 53.9961C238.632 54.0742 238.574 54.1693 238.535 54.2812C238.499 54.3932 238.478 54.5208 238.473 54.6641L238.246 54.5938C238.246 54.3203 238.273 54.069 238.328 53.8398C238.383 53.6081 238.462 53.4062 238.566 53.2344C238.673 53.0625 238.803 52.9297 238.957 52.8359C239.111 52.7422 239.286 52.6953 239.484 52.6953C239.547 52.6953 239.611 52.7005 239.676 52.7109C239.741 52.7188 239.794 52.7305 239.836 52.7461ZM242.234 57.0781C241.906 57.0781 241.612 57.026 241.352 56.9219C241.091 56.8151 240.87 56.668 240.688 56.4805C240.508 56.293 240.37 56.0755 240.273 55.8281C240.177 55.5781 240.129 55.3125 240.129 55.0312V54.875C240.129 54.5547 240.174 54.2617 240.266 53.9961C240.357 53.7305 240.487 53.5 240.656 53.3047C240.828 53.1094 241.036 52.9596 241.281 52.8555C241.526 52.7487 241.802 52.6953 242.109 52.6953C242.409 52.6953 242.674 52.7448 242.906 52.8438C243.138 52.9427 243.332 53.0833 243.488 53.2656C243.647 53.4479 243.767 53.6667 243.848 53.9219C243.928 54.1745 243.969 54.4557 243.969 54.7656V55.2344H240.609V54.4844H242.863V54.3984C242.863 54.2422 242.835 54.1029 242.777 53.9805C242.723 53.8555 242.639 53.7565 242.527 53.6836C242.415 53.6107 242.272 53.5742 242.098 53.5742C241.949 53.5742 241.822 53.6068 241.715 53.6719C241.608 53.737 241.521 53.8281 241.453 53.9453C241.388 54.0625 241.339 54.2005 241.305 54.3594C241.273 54.5156 241.258 54.6875 241.258 54.875V55.0312C241.258 55.2005 241.281 55.3568 241.328 55.5C241.378 55.6432 241.447 55.7669 241.535 55.8711C241.626 55.9753 241.736 56.056 241.863 56.1133C241.993 56.1706 242.141 56.1992 242.305 56.1992C242.508 56.1992 242.697 56.1602 242.871 56.082C243.048 56.0013 243.201 55.8802 243.328 55.7188L243.875 56.3125C243.786 56.4401 243.665 56.5625 243.512 56.6797C243.361 56.7969 243.178 56.8932 242.965 56.9688C242.751 57.0417 242.508 57.0781 242.234 57.0781ZM247.977 55.1133H249.145C249.121 55.4961 249.016 55.8359 248.828 56.1328C248.643 56.4297 248.384 56.6615 248.051 56.8281C247.72 56.9948 247.322 57.0781 246.855 57.0781C246.491 57.0781 246.164 57.0156 245.875 56.8906C245.586 56.763 245.339 56.5807 245.133 56.3438C244.93 56.1068 244.775 55.8203 244.668 55.4844C244.561 55.1484 244.508 54.7721 244.508 54.3555V53.9609C244.508 53.5443 244.562 53.168 244.672 52.832C244.784 52.4935 244.943 52.2057 245.148 51.9688C245.357 51.7318 245.605 51.5495 245.895 51.4219C246.184 51.2943 246.507 51.2305 246.863 51.2305C247.337 51.2305 247.737 51.3164 248.062 51.4883C248.391 51.6602 248.645 51.8971 248.824 52.1992C249.007 52.5013 249.116 52.8451 249.152 53.2305H247.98C247.967 53.0013 247.922 52.8073 247.844 52.6484C247.766 52.487 247.647 52.3659 247.488 52.2852C247.332 52.2018 247.124 52.1602 246.863 52.1602C246.668 52.1602 246.497 52.1966 246.352 52.2695C246.206 52.3424 246.083 52.4531 245.984 52.6016C245.885 52.75 245.811 52.9375 245.762 53.1641C245.715 53.388 245.691 53.651 245.691 53.9531V54.3555C245.691 54.6497 245.714 54.9089 245.758 55.1328C245.802 55.3542 245.87 55.5417 245.961 55.6953C246.055 55.8464 246.174 55.9609 246.32 56.0391C246.469 56.1146 246.647 56.1523 246.855 56.1523C247.1 56.1523 247.302 56.1133 247.461 56.0352C247.62 55.957 247.741 55.8411 247.824 55.6875C247.91 55.5339 247.961 55.3424 247.977 55.1133ZM252.227 52.2852L250.68 57H249.434L251.547 51.3125H252.34L252.227 52.2852ZM253.512 57L251.961 52.2852L251.836 51.3125H252.637L254.762 57H253.512ZM253.441 54.8828V55.8008H250.438V54.8828H253.441ZM257.504 54.9727H256.055V54.0586H257.504C257.728 54.0586 257.91 54.0221 258.051 53.9492C258.191 53.8737 258.294 53.7695 258.359 53.6367C258.424 53.5039 258.457 53.3542 258.457 53.1875C258.457 53.0182 258.424 52.8607 258.359 52.7148C258.294 52.569 258.191 52.4518 258.051 52.3633C257.91 52.2747 257.728 52.2305 257.504 52.2305H256.461V57H255.289V51.3125H257.504C257.949 51.3125 258.331 51.3932 258.648 51.5547C258.969 51.7135 259.214 51.9336 259.383 52.2148C259.552 52.4961 259.637 52.8177 259.637 53.1797C259.637 53.5469 259.552 53.8646 259.383 54.1328C259.214 54.401 258.969 54.6081 258.648 54.7539C258.331 54.8997 257.949 54.9727 257.504 54.9727ZM262.988 51.3125V57H261.82V51.3125H262.988ZM264.738 51.3125V52.2305H260.098V51.3125H264.738ZM268.594 55.1133H269.762C269.738 55.4961 269.633 55.8359 269.445 56.1328C269.26 56.4297 269.001 56.6615 268.668 56.8281C268.337 56.9948 267.939 57.0781 267.473 57.0781C267.108 57.0781 266.781 57.0156 266.492 56.8906C266.203 56.763 265.956 56.5807 265.75 56.3438C265.547 56.1068 265.392 55.8203 265.285 55.4844C265.178 55.1484 265.125 54.7721 265.125 54.3555V53.9609C265.125 53.5443 265.18 53.168 265.289 52.832C265.401 52.4935 265.56 52.2057 265.766 51.9688C265.974 51.7318 266.223 51.5495 266.512 51.4219C266.801 51.2943 267.124 51.2305 267.48 51.2305C267.954 51.2305 268.354 51.3164 268.68 51.4883C269.008 51.6602 269.262 51.8971 269.441 52.1992C269.624 52.5013 269.733 52.8451 269.77 53.2305H268.598C268.585 53.0013 268.539 52.8073 268.461 52.6484C268.383 52.487 268.264 52.3659 268.105 52.2852C267.949 52.2018 267.741 52.1602 267.48 52.1602C267.285 52.1602 267.115 52.1966 266.969 52.2695C266.823 52.3424 266.701 52.4531 266.602 52.6016C266.503 52.75 266.428 52.9375 266.379 53.1641C266.332 53.388 266.309 53.651 266.309 53.9531V54.3555C266.309 54.6497 266.331 54.9089 266.375 55.1328C266.419 55.3542 266.487 55.5417 266.578 55.6953C266.672 55.8464 266.792 55.9609 266.938 56.0391C267.086 56.1146 267.264 56.1523 267.473 56.1523C267.717 56.1523 267.919 56.1133 268.078 56.0352C268.237 55.957 268.358 55.8411 268.441 55.6875C268.527 55.5339 268.578 55.3424 268.594 55.1133ZM274.324 53.6289V54.543H271.355V53.6289H274.324ZM271.703 51.3125V57H270.531V51.3125H271.703ZM275.16 51.3125V57H273.992V51.3125H275.16ZM278.562 52.2852L277.016 57H275.77L277.883 51.3125H278.676L278.562 52.2852ZM279.848 57L278.297 52.2852L278.172 51.3125H278.973L281.098 57H279.848ZM279.777 54.8828V55.8008H276.773V54.8828H279.777Z" fill="#B2B2B2"/>
<path d="M240.042 65.4795H238.955V64.7939H240.042C240.21 64.7939 240.347 64.7666 240.452 64.7119C240.558 64.6553 240.635 64.5771 240.684 64.4775C240.732 64.3779 240.757 64.2656 240.757 64.1406C240.757 64.0137 240.732 63.8955 240.684 63.7861C240.635 63.6768 240.558 63.5889 240.452 63.5225C240.347 63.4561 240.21 63.4229 240.042 63.4229H239.26V67H238.381V62.7344H240.042C240.376 62.7344 240.662 62.7949 240.9 62.916C241.141 63.0352 241.324 63.2002 241.451 63.4111C241.578 63.6221 241.642 63.8633 241.642 64.1348C241.642 64.4102 241.578 64.6484 241.451 64.8496C241.324 65.0508 241.141 65.2061 240.9 65.3154C240.662 65.4248 240.376 65.4795 240.042 65.4795ZM243.039 64.5215V67H242.195V63.8301H242.989L243.039 64.5215ZM243.994 63.8096L243.979 64.5918C243.938 64.5859 243.889 64.5811 243.83 64.5771C243.773 64.5713 243.722 64.5684 243.675 64.5684C243.556 64.5684 243.452 64.584 243.364 64.6152C243.278 64.6445 243.206 64.6885 243.147 64.7471C243.091 64.8057 243.048 64.877 243.019 64.9609C242.991 65.0449 242.976 65.1406 242.972 65.248L242.802 65.1953C242.802 64.9902 242.822 64.8018 242.863 64.6299C242.904 64.4561 242.964 64.3047 243.042 64.1758C243.122 64.0469 243.22 63.9473 243.335 63.877C243.45 63.8066 243.582 63.7715 243.73 63.7715C243.777 63.7715 243.825 63.7754 243.874 63.7832C243.923 63.7891 243.963 63.7979 243.994 63.8096ZM245.283 63.8301V67H244.437V63.8301H245.283ZM244.384 63.0039C244.384 62.8809 244.427 62.7793 244.513 62.6992C244.599 62.6191 244.714 62.5791 244.858 62.5791C245.001 62.5791 245.115 62.6191 245.201 62.6992C245.289 62.7793 245.333 62.8809 245.333 63.0039C245.333 63.127 245.289 63.2285 245.201 63.3086C245.115 63.3887 245.001 63.4287 244.858 63.4287C244.714 63.4287 244.599 63.3887 244.513 63.3086C244.427 63.2285 244.384 63.127 244.384 63.0039ZM247.059 66.3848L247.762 63.8301H248.644L247.574 67H247.041L247.059 66.3848ZM246.575 63.8301L247.281 66.3877L247.296 67H246.76L245.69 63.8301H246.575ZM250.686 66.2852V64.873C250.686 64.7715 250.669 64.6846 250.636 64.6123C250.603 64.5381 250.551 64.4805 250.48 64.4395C250.412 64.3984 250.323 64.3779 250.214 64.3779C250.12 64.3779 250.039 64.3945 249.971 64.4277C249.902 64.459 249.85 64.5049 249.812 64.5654C249.775 64.624 249.757 64.6934 249.757 64.7734H248.913C248.913 64.6387 248.944 64.5107 249.007 64.3896C249.069 64.2686 249.16 64.1621 249.279 64.0703C249.398 63.9766 249.54 63.9033 249.704 63.8506C249.87 63.7979 250.056 63.7715 250.261 63.7715C250.507 63.7715 250.726 63.8125 250.917 63.8945C251.108 63.9766 251.259 64.0996 251.368 64.2637C251.479 64.4277 251.535 64.6328 251.535 64.8789V66.2354C251.535 66.4092 251.546 66.5518 251.567 66.6631C251.589 66.7725 251.62 66.8682 251.661 66.9502V67H250.809C250.768 66.9141 250.736 66.8066 250.715 66.6777C250.695 66.5469 250.686 66.416 250.686 66.2852ZM250.797 65.0693L250.803 65.5469H250.331C250.22 65.5469 250.123 65.5596 250.041 65.585C249.959 65.6104 249.892 65.6465 249.839 65.6934C249.786 65.7383 249.747 65.791 249.722 65.8516C249.698 65.9121 249.687 65.9785 249.687 66.0508C249.687 66.123 249.703 66.1885 249.736 66.2471C249.77 66.3037 249.817 66.3486 249.88 66.3818C249.942 66.4131 250.016 66.4287 250.1 66.4287C250.227 66.4287 250.337 66.4033 250.431 66.3525C250.524 66.3018 250.597 66.2393 250.647 66.165C250.7 66.0908 250.728 66.0205 250.729 65.9541L250.952 66.3115C250.921 66.3916 250.878 66.4746 250.823 66.5605C250.771 66.6465 250.703 66.7275 250.621 66.8037C250.539 66.8779 250.44 66.9395 250.325 66.9883C250.21 67.0352 250.073 67.0586 249.915 67.0586C249.714 67.0586 249.531 67.0186 249.367 66.9385C249.205 66.8564 249.076 66.7441 248.98 66.6016C248.887 66.457 248.84 66.293 248.84 66.1094C248.84 65.9434 248.871 65.7959 248.934 65.667C248.996 65.5381 249.088 65.4297 249.209 65.3418C249.332 65.252 249.485 65.1846 249.669 65.1396C249.853 65.0928 250.065 65.0693 250.308 65.0693H250.797ZM253.495 66.3994C253.599 66.3994 253.69 66.3799 253.771 66.3408C253.851 66.2998 253.913 66.2432 253.958 66.1709C254.005 66.0967 254.029 66.0098 254.031 65.9102H254.825C254.823 66.1328 254.764 66.3311 254.646 66.5049C254.529 66.6768 254.372 66.8125 254.175 66.9121C253.978 67.0098 253.757 67.0586 253.513 67.0586C253.267 67.0586 253.052 67.0176 252.868 66.9355C252.687 66.8535 252.535 66.7402 252.414 66.5957C252.293 66.4492 252.202 66.2793 252.142 66.0859C252.081 65.8906 252.051 65.6816 252.051 65.459V65.374C252.051 65.1494 252.081 64.9404 252.142 64.7471C252.202 64.5518 252.293 64.3818 252.414 64.2373C252.535 64.0908 252.687 63.9766 252.868 63.8945C253.05 63.8125 253.263 63.7715 253.507 63.7715C253.767 63.7715 253.994 63.8213 254.189 63.9209C254.387 64.0205 254.541 64.1631 254.652 64.3486C254.766 64.5322 254.823 64.75 254.825 65.002H254.031C254.029 64.8965 254.007 64.8008 253.964 64.7148C253.923 64.6289 253.862 64.5605 253.782 64.5098C253.704 64.457 253.607 64.4307 253.492 64.4307C253.369 64.4307 253.269 64.457 253.19 64.5098C253.112 64.5605 253.052 64.6309 253.009 64.7207C252.966 64.8086 252.936 64.9092 252.918 65.0225C252.902 65.1338 252.895 65.251 252.895 65.374V65.459C252.895 65.582 252.902 65.7002 252.918 65.8135C252.934 65.9268 252.963 66.0273 253.006 66.1152C253.051 66.2031 253.112 66.2725 253.19 66.3232C253.269 66.374 253.37 66.3994 253.495 66.3994ZM256.255 66.6426L257.096 63.8301H258.001L256.727 67.4775C256.699 67.5576 256.662 67.6436 256.615 67.7354C256.57 67.8271 256.509 67.9141 256.431 67.9961C256.354 68.0801 256.258 68.1484 256.141 68.2012C256.025 68.2539 255.884 68.2803 255.716 68.2803C255.636 68.2803 255.57 68.2754 255.52 68.2656C255.469 68.2559 255.408 68.2422 255.338 68.2246V67.6064C255.359 67.6064 255.382 67.6064 255.405 67.6064C255.429 67.6084 255.451 67.6094 255.473 67.6094C255.584 67.6094 255.675 67.5967 255.745 67.5713C255.815 67.5459 255.872 67.5068 255.915 67.4541C255.958 67.4033 255.992 67.3369 256.018 67.2549L256.255 66.6426ZM255.903 63.8301L256.592 66.127L256.712 67.0205L256.138 67.082L254.998 63.8301H255.903ZM261.496 64.8379V65.5H259.841V64.8379H261.496ZM265.495 62.7344V67H264.619V62.7344H265.495ZM266.808 62.7344V63.4229H263.327V62.7344H266.808ZM268.439 67.0586C268.193 67.0586 267.973 67.0195 267.777 66.9414C267.582 66.8613 267.416 66.751 267.279 66.6104C267.145 66.4697 267.041 66.3066 266.969 66.1211C266.896 65.9336 266.86 65.7344 266.86 65.5234V65.4062C266.86 65.166 266.895 64.9463 266.963 64.7471C267.031 64.5479 267.129 64.375 267.256 64.2285C267.385 64.082 267.541 63.9697 267.725 63.8916C267.908 63.8115 268.115 63.7715 268.346 63.7715C268.57 63.7715 268.77 63.8086 268.943 63.8828C269.117 63.957 269.263 64.0625 269.38 64.1992C269.499 64.3359 269.589 64.5 269.649 64.6914C269.71 64.8809 269.74 65.0918 269.74 65.3242V65.6758H267.221V65.1133H268.911V65.0488C268.911 64.9316 268.89 64.8271 268.847 64.7354C268.806 64.6416 268.743 64.5674 268.659 64.5127C268.575 64.458 268.468 64.4307 268.337 64.4307C268.226 64.4307 268.13 64.4551 268.05 64.5039C267.97 64.5527 267.904 64.6211 267.854 64.709C267.805 64.7969 267.768 64.9004 267.742 65.0195C267.719 65.1367 267.707 65.2656 267.707 65.4062V65.5234C267.707 65.6504 267.725 65.7676 267.76 65.875C267.797 65.9824 267.849 66.0752 267.915 66.1533C267.983 66.2314 268.065 66.292 268.161 66.335C268.259 66.3779 268.369 66.3994 268.492 66.3994C268.645 66.3994 268.786 66.3701 268.917 66.3115C269.05 66.251 269.164 66.1602 269.26 66.0391L269.67 66.4844C269.604 66.5801 269.513 66.6719 269.397 66.7598C269.284 66.8477 269.147 66.9199 268.987 66.9766C268.827 67.0312 268.645 67.0586 268.439 67.0586ZM271.064 64.5215V67H270.221V63.8301H271.015L271.064 64.5215ZM272.02 63.8096L272.005 64.5918C271.964 64.5859 271.914 64.5811 271.855 64.5771C271.799 64.5713 271.747 64.5684 271.7 64.5684C271.581 64.5684 271.478 64.584 271.39 64.6152C271.304 64.6445 271.231 64.6885 271.173 64.7471C271.116 64.8057 271.073 64.877 271.044 64.9609C271.017 65.0449 271.001 65.1406 270.997 65.248L270.827 65.1953C270.827 64.9902 270.848 64.8018 270.889 64.6299C270.93 64.4561 270.989 64.3047 271.067 64.1758C271.147 64.0469 271.245 63.9473 271.36 63.877C271.476 63.8066 271.607 63.7715 271.756 63.7715C271.803 63.7715 271.851 63.7754 271.899 63.7832C271.948 63.7891 271.988 63.7979 272.02 63.8096ZM273.262 64.4863V67H272.415V63.8301H273.209L273.262 64.4863ZM273.145 65.3037H272.91C272.91 65.083 272.937 64.8799 272.989 64.6943C273.044 64.5068 273.123 64.3447 273.227 64.208C273.332 64.0693 273.462 63.9619 273.616 63.8857C273.771 63.8096 273.949 63.7715 274.152 63.7715C274.293 63.7715 274.422 63.793 274.539 63.8359C274.656 63.877 274.757 63.9424 274.841 64.0322C274.927 64.1201 274.993 64.2354 275.04 64.3779C275.087 64.5186 275.11 64.6875 275.11 64.8848V67H274.267V64.9785C274.267 64.834 274.247 64.7227 274.208 64.6445C274.169 64.5664 274.113 64.5117 274.041 64.4805C273.971 64.4492 273.886 64.4336 273.786 64.4336C273.677 64.4336 273.581 64.4561 273.499 64.501C273.419 64.5459 273.353 64.6084 273.3 64.6885C273.247 64.7666 273.208 64.8584 273.183 64.9639C273.157 65.0693 273.145 65.1826 273.145 65.3037ZM275.031 65.207L274.729 65.2451C274.729 65.0381 274.755 64.8457 274.806 64.668C274.858 64.4902 274.936 64.334 275.037 64.1992C275.141 64.0645 275.269 63.96 275.421 63.8857C275.573 63.8096 275.749 63.7715 275.948 63.7715C276.101 63.7715 276.239 63.7939 276.364 63.8389C276.489 63.8818 276.596 63.9512 276.684 64.0469C276.773 64.1406 276.842 64.2637 276.889 64.416C276.938 64.5684 276.962 64.7549 276.962 64.9756V67H276.115V64.9756C276.115 64.8291 276.096 64.7178 276.057 64.6416C276.02 64.5635 275.965 64.5098 275.893 64.4805C275.822 64.4492 275.738 64.4336 275.641 64.4336C275.539 64.4336 275.45 64.4541 275.374 64.4951C275.298 64.5342 275.234 64.5889 275.184 64.6592C275.133 64.7295 275.095 64.8115 275.069 64.9053C275.044 64.9971 275.031 65.0977 275.031 65.207ZM279.329 66.124C279.329 66.0635 279.312 66.0088 279.276 65.96C279.241 65.9111 279.176 65.8662 279.08 65.8252C278.986 65.7822 278.851 65.7432 278.673 65.708C278.513 65.6729 278.363 65.6289 278.225 65.5762C278.088 65.5215 277.969 65.4561 277.867 65.3799C277.768 65.3037 277.689 65.2139 277.633 65.1104C277.576 65.0049 277.548 64.8848 277.548 64.75C277.548 64.6172 277.576 64.4922 277.633 64.375C277.691 64.2578 277.774 64.1543 277.882 64.0645C277.991 63.9727 278.124 63.9014 278.28 63.8506C278.438 63.7979 278.616 63.7715 278.813 63.7715C279.089 63.7715 279.325 63.8154 279.522 63.9033C279.722 63.9912 279.874 64.1123 279.979 64.2666C280.087 64.4189 280.141 64.5928 280.141 64.7881H279.297C279.297 64.7061 279.279 64.6328 279.244 64.5684C279.211 64.502 279.158 64.4502 279.086 64.4131C279.016 64.374 278.924 64.3545 278.811 64.3545C278.717 64.3545 278.636 64.3711 278.567 64.4043C278.499 64.4355 278.446 64.4785 278.409 64.5332C278.374 64.5859 278.356 64.6445 278.356 64.709C278.356 64.7578 278.366 64.8018 278.386 64.8408C278.407 64.8779 278.441 64.9121 278.488 64.9434C278.535 64.9746 278.596 65.0039 278.67 65.0312C278.746 65.0566 278.84 65.0801 278.951 65.1016C279.18 65.1484 279.384 65.21 279.563 65.2861C279.743 65.3604 279.886 65.4619 279.991 65.5908C280.097 65.7178 280.149 65.8848 280.149 66.0918C280.149 66.2324 280.118 66.3613 280.056 66.4785C279.993 66.5957 279.903 66.6982 279.786 66.7861C279.669 66.8721 279.528 66.9395 279.364 66.9883C279.202 67.0352 279.02 67.0586 278.816 67.0586C278.521 67.0586 278.271 67.0059 278.066 66.9004C277.863 66.7949 277.709 66.6611 277.604 66.499C277.5 66.335 277.448 66.167 277.448 65.9951H278.248C278.252 66.1104 278.281 66.2031 278.336 66.2734C278.393 66.3438 278.464 66.3945 278.55 66.4258C278.638 66.457 278.732 66.4727 278.834 66.4727C278.943 66.4727 279.034 66.458 279.106 66.4287C279.179 66.3975 279.233 66.3564 279.271 66.3057C279.31 66.2529 279.329 66.1924 279.329 66.124Z" fill="#B2B2B2"/>
<rect x="0.65" y="0.65" width="300.7" height="79.7" rx="2.35" stroke="#D3D3D3" stroke-width="0.7"/>
<defs>
<filter id="filter0_i_29_18945" x="244" y="27.2542" width="27.4407" height="15.7458" filterUnits="userSpaceOnUse" color-interpolation-filters="sRGB">
<feFlood flood-opacity="0" result="BackgroundImageFix"/>
<feBlend mode="normal" in="SourceGraphic" in2="BackgroundImageFix" result="shape"/>
<feColorMatrix in="SourceAlpha" type="matrix" values="0 0 0 0 0 0 0 0 0 0 0 0 0 0 0 0 0 0 127 0" result="hardAlpha"/>
<feOffset dx="1" dy="-1"/>
<feGaussianBlur stdDeviation="0.5"/>
<feComposite in2="hardAlpha" operator="arithmetic" k2="-1" k3="1"/>
<feColorMatrix type="matrix" values="0 0 0 0 1 0 0 0 0 1 0 0 0 0 1 0 0 0 0.2 0"/>
<feBlend mode="normal" in2="shape" result="effect1_innerShadow_29_18945"/>
</filter>
<filter id="filter1_i_29_18945" x="244" y="12" width="15.2373" height="16.2542" filterUnits="userSpaceOnUse" color-interpolation-filters="sRGB">
<feFlood flood-opacity="0" result="BackgroundImageFix"/>
<feBlend mode="normal" in="SourceGraphic" in2="BackgroundImageFix" result="shape"/>
<feColorMatrix in="SourceAlpha" type="matrix" values="0 0 0 0 0 0 0 0 0 0 0 0 0 0 0 0 0 0 127 0" result="hardAlpha"/>
<feOffset dx="1" dy="-1"/>
<feGaussianBlur stdDeviation="0.5"/>
<feComposite in2="hardAlpha" operator="arithmetic" k2="-1" k3="1"/>
<feColorMatrix type="matrix" values="0 0 0 0 0 0 0 0 0 0 0 0 0 0 0 0 0 0 0.1 0"/>
<feBlend mode="normal" in2="shape" result="effect1_innerShadow_29_18945"/>
</filter>
<filter id="filter2_i_29_18945" x="258.137" y="11.9" width="16.4542" height="15.9456" filterUnits="userSpaceOnUse" color-interpolation-filters="sRGB">
<feFlood flood-opacity="0" result="BackgroundImageFix"/>
<feBlend mode="normal" in="SourceGraphic" in2="BackgroundImageFix" result="shape"/>
<feColorMatrix in="SourceAlpha" type="matrix" values="0 0 0 0 0 0 0 0 0 0 0 0 0 0 0 0 0 0 127 0" result="hardAlpha"/>
<feOffset dx="1" dy="-1"/>
<feGaussianBlur stdDeviation="0.5"/>
<feComposite in2="hardAlpha" operator="arithmetic" k2="-1" k3="1"/>
<feColorMatrix type="matrix" values="0 0 0 0 0 0 0 0 0 0 0 0 0 0 0 0 0 0 0.1 0"/>
<feBlend mode="normal" in2="shape" result="effect1_innerShadow_29_18945"/>
</filter>
</defs>
</svg>
