<svg width="31" height="33" viewBox="0 0 31 33" fill="none" xmlns="http://www.w3.org/2000/svg">
<path d="M15.6923 5.66406H5.62207L5.61849 7.42481L5.61266 9.18735L5.15511 9.19318L4.69531 9.19721V12.6528H5.62207L5.61849 15.62L5.61266 18.5894L5.15511 18.5952L4.69531 18.5992V22.0356L5.15511 22.0392L5.61266 22.045L5.61849 23.9312L5.62207 25.8192H25.7584V5.66406H15.6923ZM24.1581 15.7419V24.2171L15.6882 24.2131L7.21835 24.2073V22.045L7.67814 22.0392L8.1357 22.0356V18.5988L7.67814 18.5947L7.21835 18.5889L7.21253 15.6195L7.20894 12.6524H8.13211V9.19676L7.67456 9.19273L7.21477 9.1869L7.20894 8.25073C7.20894 7.73492 7.20894 7.30247 7.21477 7.28902C7.22059 7.27558 8.93518 7.26617 15.69 7.26617H24.1559L24.1581 15.7419Z" fill="white" stroke="white" stroke-width="1.2" stroke-miterlimit="10"/>
<path d="M30.6096 1H1V30.6074H3.09372V32.1257H7.69748V30.6074H23.6634V32.3278H28.2685V30.6074H30.6096V1ZM28.4339 28.4316H3.17573V3.17528H28.4316L28.4339 28.4316Z" fill="white" stroke="white" stroke-width="0.672212" stroke-linejoin="round"/>
<path d="M16.1334 13.9968C15.9284 13.9413 15.5453 13.9341 15.3353 13.9791C15.0234 14.0482 14.7366 14.2019 14.5062 14.4234C14.2757 14.6449 14.1107 14.9255 14.029 15.2347C13.9711 15.4948 13.9649 15.7639 14.0109 16.0264C14.0849 16.364 14.2581 16.6718 14.5083 16.91C14.7584 17.1482 15.0741 17.306 15.4147 17.3631C15.5852 17.3921 15.97 17.3774 16.1174 17.3378C16.4265 17.2569 16.7075 17.0925 16.9297 16.8626C17.1519 16.6328 17.3068 16.3463 17.3775 16.0344C17.4195 15.8511 17.4195 15.4625 17.3775 15.2897C17.3058 14.982 17.1523 14.6994 16.9333 14.4718C16.7143 14.2442 16.4379 14.0801 16.1334 13.9968Z" fill="white" stroke="white" stroke-width="0.3"/>
<path d="M21.6044 14.5968C21.3331 13.1231 20.523 11.8028 19.3315 10.8924C18.4843 10.2425 17.4776 9.83215 16.417 9.7045C16.1996 9.67512 15.4646 9.6534 15.286 9.66958C15.0303 9.69343 14.702 9.73899 14.5017 9.77901C13.3641 10.0106 12.3176 10.5651 11.4878 11.376C10.6579 12.187 10.08 13.2198 9.8232 14.3507C9.71535 14.8352 9.69531 15.0119 9.69531 15.6442C9.69531 16.2543 9.70426 16.3655 9.78824 16.8028C9.88534 17.3178 10.0536 17.817 10.2883 18.2858C10.5245 18.7784 10.829 19.2354 11.1928 19.6432C12.0336 20.5924 13.1535 21.2517 14.3921 21.5268C15.3105 21.7232 16.2616 21.7086 17.1736 21.4843C19.3903 20.9193 21.13 19.0939 21.5788 16.8602C21.725 16.1136 21.7337 15.3465 21.6044 14.5968ZM19.6235 16.0721H20.167L20.1525 16.2033C20.0857 16.7319 19.927 17.2449 19.6836 17.7191C19.5426 17.9812 19.381 18.2316 19.2002 18.468L19.1362 18.5408L18.7526 18.1576L18.3689 17.7744L18.0863 18.0567L17.8032 18.3403L18.1869 18.7235L18.574 19.1101L18.4661 19.1952C17.8644 19.6667 17.1527 19.9777 16.3978 20.0992C16.272 20.1192 16.1514 20.1354 16.1296 20.1354H16.087V19.0603H15.286V19.5976C15.286 20.1333 15.286 20.135 15.2477 20.135C15.1147 20.135 14.6385 20.0383 14.3738 19.9604C13.8575 19.8037 13.2548 19.4848 12.8711 19.162L12.8166 19.1165L13.2002 18.7333L13.5839 18.3501L13.2957 18.0639L13.0092 17.7761L12.6299 18.1551C12.4218 18.3628 12.2462 18.5323 12.2394 18.5323C12.2142 18.5323 11.9461 18.1589 11.8199 17.9456C11.6 17.5667 11.4325 17.1597 11.322 16.7359C11.2764 16.5377 11.2429 16.337 11.2218 16.1347V16.0725H12.2944V15.2525H11.2129L11.2257 15.1196C11.2683 14.673 11.4814 13.9862 11.7163 13.5583C11.8587 13.2977 12.2014 12.7919 12.236 12.7919C12.2436 12.7919 12.4184 12.9622 12.6264 13.1691L13.0058 13.5481L13.2885 13.2658L13.5715 12.9835L13.1879 12.6003L12.8042 12.2171L12.9849 12.0804C13.5891 11.6286 14.2959 11.3333 15.0422 11.2207C15.1334 11.2058 15.2246 11.1952 15.2485 11.193H15.2886V12.286H16.0909V11.7363C16.0909 11.3957 16.0985 11.1896 16.1092 11.1896C16.3217 11.2132 16.5325 11.2497 16.7405 11.2991C17.3396 11.4404 17.9024 11.7054 18.3928 12.077L18.5774 12.2136L18.1903 12.5998L17.8066 12.983L18.0927 13.2709L18.3808 13.557L18.7645 13.1738L19.1482 12.7906L19.2569 12.9328C19.7449 13.5726 20.0545 14.33 20.1542 15.1281L20.167 15.2521H19.08V16.0717L19.6235 16.0721Z" fill="white" stroke="white" stroke-width="0.3"/>
</svg>
