<svg width="31" height="32" viewBox="0 0 31 32" fill="none" xmlns="http://www.w3.org/2000/svg">
<path d="M29.446 29.7681L29.446 29.7681C29.5599 29.7821 29.6367 29.783 29.6855 29.7796C29.6981 29.7222 29.7096 29.6284 29.7096 29.4836C29.6934 20.0256 29.6934 10.5512 29.7097 1.07678C29.7096 0.925326 29.6998 0.830142 29.6881 0.771784C29.6357 0.760789 29.5471 0.750123 29.4056 0.750001C25.8681 0.774504 22.3297 0.771438 18.7946 0.768375C17.6168 0.767355 16.4393 0.766334 15.2624 0.766334H15.2349H15.2075H15.1801H15.1526H15.1252H15.0978H15.0704H15.0429H15.0155H14.9881H14.9606H14.9332H14.9058H14.8784H14.8509H14.8235H14.7961H14.7687H14.7412H14.7138H14.6864H14.6589H14.6315H14.6041H14.5767H14.5492H14.5218H14.4944H14.4669H14.4395H14.4121H14.3847H14.3572H14.3298H14.3024H14.2749H14.2475H14.2201H14.1927H14.1652H14.1378H14.1104H14.0829H14.0555H14.0281H14.0006H13.9732H13.9458H13.9184H13.8909H13.8635H13.8361H13.8086H13.7812H13.7538H13.7264H13.6989H13.6715H13.6441H13.6166H13.5892H13.5618H13.5344H13.5069H13.4795H13.4521H13.4246H13.3972H13.3698H13.3423H13.3149H13.2875H13.2601H13.2326H13.2052H13.1778H13.1503H13.1229H13.0955H13.068H13.0406H13.0132H12.9857H12.9583H12.9309H12.9035H12.876H12.8486H12.8212H12.7937H12.7663H12.7389H12.7114H12.684H12.6566H12.6291H12.6017H12.5743H12.5468H12.5194H12.492H12.4645H12.4371H12.4097H12.3823H12.3548H12.3274H12.3H12.2725H12.2451H12.2177H12.1902H12.1628H12.1354H12.1079H12.0805H12.0531H12.0256H11.9982H11.9708H11.9433H11.9159H11.8885H11.861H11.8336H11.8062H11.7787H11.7513H11.7239H11.6964H11.669H11.6416H11.6141H11.5867H11.5592H11.5318H11.5044H11.4769H11.4495H11.4221H11.3946H11.3672H11.3398H11.3123H11.2849H11.2575H11.23H11.2026H11.1751H11.1477H11.1203H11.0928H11.0654H11.038H11.0105H10.9831H10.9557H10.9282H10.9008H10.8733H10.8459H10.8185H10.791H10.7636H10.7362H10.7087H10.6813H10.6538H10.6264H10.599H10.5715H10.5441H10.5166H10.4892H10.4618H10.4343H10.4069H10.3794H10.352H10.3246H10.2971H10.2697H10.2422H10.2148H10.1874H10.1599H10.1325H10.105H10.0776H10.0502H10.0227H9.99528H9.96784H9.94039H9.91295H9.88551H9.85807H9.83062H9.80318H9.77574H9.7483H9.72085H9.69341H9.66597H9.63852H9.61108H9.58364H9.55619H9.52875H9.5013H9.47386H9.44641H9.41897H9.39153H9.36408H9.33664H9.30919H9.28174H9.2543H9.22685H9.19941H9.17196H9.14452H9.11707H9.08962H9.06218H9.03473H9.00728H8.97983H8.95239H8.92494H8.89749H8.87004H8.8426H8.81515H8.7877H8.76025H8.7328H8.70535H8.6779H8.65045H8.623H8.59556H8.5681H8.54066H8.5132H8.48575H8.4583H8.43085H8.4034H8.37595H8.3485H8.32105H8.2936H8.26615H8.23869H8.21124H8.18379H8.15634H8.12888H8.10143H8.07398H8.04652H8.01907H7.99162H7.96416H7.93671H7.90926H7.8818H7.85435H7.82689H7.79944H7.77198H7.74453H7.71707H7.68961H7.66216H7.6347H7.60724H7.57979H7.55233H7.52487H7.49742H7.46996H7.4425H7.41504H7.38759H7.36013H7.33267H7.30521H7.27775H7.25029H7.22283H7.19537H7.16791H7.14045H7.11299H7.08553H7.05807H7.03061H7.00315H6.97569H6.94823H6.92077H6.8933H6.86584H6.83838H6.81092H6.78345H6.75599H6.72853H6.70106H6.6736H6.64614H6.61867H6.59121H6.56374H6.53628H6.50881H6.48135H6.45388H6.42642H6.39895H6.37148H6.34402H6.31655H6.28908H6.26162H6.23415H6.20668H6.17921H6.15175H6.12428H6.09681H6.06934H6.04187H6.0144H5.98693H5.95946H5.93199H5.90452H5.87705H5.84958H5.82211H5.79464H5.76717H5.73969H5.71222H5.68475H5.65728H5.6298H5.60233H5.57486H5.54738H5.51991H5.49243H5.46496H5.43749H5.41001H5.38254H5.35506H5.32758H5.30011H5.27263H5.24516H5.21768H5.1902H5.16272H5.13525H5.10777H5.08029H5.05281H5.02533H4.99785H4.97038H4.9429H4.91542H4.88794H4.86046H4.83297H4.80549H4.77801H4.75053H4.72305H4.69557H4.66809H4.6406H4.61312H4.58564H4.55815H4.53067H4.50319H4.4757H4.44822H4.42073H4.39325H4.36576H4.33828H4.31079H4.2833H4.25582H4.22833H4.20084H4.17336H4.14587H4.11838H4.09089H4.0634H4.03591H4.00843H3.98094H3.95345H3.92596H3.89847H3.87098H3.84348H3.81599H3.7885H3.76101H3.73352H3.70602H3.67853H3.65104H3.62355H3.59605H3.56856H3.54106H3.51357H3.48607H3.45858H3.43108H3.40359H3.37609H3.34859H3.3211H3.2936H3.2661H3.23861H3.21111H3.18361H3.15611H3.12861H3.10111H3.07361H3.04611H3.01861H2.99111H2.96361H2.93611H2.90861H2.8811H2.8536H2.8261H2.7986H2.77109H2.74359H2.71609H2.68858H2.66108H2.63357H2.60607H2.57856H2.55105H2.52355H2.49604H2.46853H2.44103H2.41352H2.38601H2.3585H2.33099H2.30349H2.27598H2.24847H2.22096H2.19345H2.16594H2.13842H2.11091H2.0834H2.05589H2.02838H2.00086H1.97335H1.94584H1.91832H1.89081H1.86329H1.83578H1.80826H1.78075H1.75323H1.72572H1.6982H1.67068H1.64316H1.61565H1.58813H1.56061H1.53309H1.50557H1.47805H1.45053H1.42301H1.39549H1.36797H1.34045H1.31293H1.2854H1.25788H1.23036H1.20284C1.0047 0.766334 0.86196 0.766767 0.75406 0.770239C0.750489 0.879449 0.750055 1.02404 0.750055 1.22507V1.27934V1.33361V1.38787V1.44214V1.4964V1.55067V1.60493V1.6592V1.71346V1.76772V1.82199V1.87625V1.93051V1.98477V2.03904V2.0933V2.14756V2.20182V2.25608V2.31034V2.3646V2.41886V2.47312V2.52737V2.58163V2.63589V2.69015V2.74441V2.79866V2.85292V2.90718V2.96143V3.01569V3.06994V3.1242V3.17845V3.23271V3.28696V3.34121V3.39547V3.44972V3.50397V3.55822V3.61248V3.66673V3.72098V3.77523V3.82948V3.88373V3.93798V3.99223V4.04648V4.10073V4.15498V4.20923V4.26348V4.31773V4.37197V4.42622V4.48047V4.53472V4.58896V4.64321V4.69745V4.7517V4.80595V4.86019V4.91444V4.96868V5.02292V5.07717V5.13141V5.18566V5.2399V5.29414V5.34839V5.40263V5.45687V5.51111V5.56535V5.6196V5.67384V5.72808V5.78232V5.83656V5.8908V5.94504V5.99928V6.05352V6.10776V6.162V6.21624V6.27048V6.32471V6.37895V6.43319V6.48743V6.54167V6.5959V6.65014V6.70438V6.75861V6.81285V6.86708V6.92132V6.97556V7.02979V7.08403V7.13826V7.1925V7.24673V7.30097V7.3552V7.40943V7.46367V7.5179V7.57213V7.62637V7.6806V7.73483V7.78906V7.8433V7.89753V7.95176V8.00599V8.06022V8.11446V8.16869V8.22292V8.27715V8.33138V8.38561V8.43984V8.49407V8.5483V8.60253V8.65676V8.71099V8.76522V8.81945V8.87367V8.9279V8.98213V9.03636V9.09059V9.14482V9.19904V9.25327V9.3075V9.36173V9.41595V9.47018V9.52441V9.57863V9.63286V9.68709V9.74131V9.79554V9.84977V9.90399V9.95822V10.0124V10.0667V10.1209V10.1751V10.2293V10.2836V10.3378V10.392V10.4462V10.5005V10.5547V10.6089V10.6631V10.7174V10.7716V10.8258V10.88V10.9343V10.9885V11.0427V11.0969V11.1512V11.2054V11.2596V11.3138V11.368V11.4223V11.4765V11.5307V11.5849V11.6392V11.6934V11.7476V11.8018V11.856V11.9103V11.9645V12.0187V12.0729V12.1271V12.1814V12.2356V12.2898V12.344V12.3983V12.4525V12.5067V12.5609V12.6151V12.6694V12.7236V12.7778V12.832V12.8862V12.9405V12.9947V13.0489V13.1031V13.1573V13.2116V13.2658V13.32V13.3742V13.4284V13.4827V13.5369V13.5911V13.6453V13.6995V13.7538V13.808V13.8622V13.9164V13.9706V14.0249V14.0791V14.1333V14.1875V14.2417V14.2959V14.3502V14.4044V14.4586V14.5128V14.567V14.6213V14.6755V14.7297V14.7839V14.8381V14.8924V14.9466V15.0008V15.055V15.1092V15.1635V15.2177V15.2719V15.3261V15.3803V15.4346V15.4888V15.543V15.5972V15.6514V15.7056V15.7599V15.8141V15.8683V15.9225V15.9767V16.031V16.0852V16.1394V16.1936V16.2478V16.3021V16.3563V16.4105V16.4647V16.5189V16.5732V16.6274V16.6816V16.7358V16.79V16.8443V16.8985V16.9527V17.0069V17.0611V17.1154V17.1696V17.2238V17.278V17.3322V17.3865V17.4407V17.4949V17.5491V17.6033V17.6576V17.7118V17.766V17.8202V17.8744V17.9287V17.9829V18.0371V18.0913V18.1455V18.1998V18.254V18.3082V18.3624V18.4167V18.4709V18.5251V18.5793V18.6335V18.6878V18.742V18.7962V18.8504V18.9047V18.9589V19.0131V19.0673V19.1215V19.1758V19.23V19.2842V19.3384V19.3927V19.4469V19.5011V19.5553V19.6096V19.6638V19.718V19.7722V19.8265V19.8807V19.9349V19.9891V20.0434V20.0976V20.1518V20.206V20.2603V20.3145V20.3687V20.4229V20.4772V20.5314V20.5856V20.6398V20.6941V20.7483V20.8025V20.8567V20.911V20.9652V21.0194V21.0737V21.1279V21.1821V21.2363V21.2906V21.3448V21.399V21.4533V21.5075V21.5617V21.6159V21.6702V21.7244V21.7786V21.8329V21.8871V21.9413V21.9956V22.0498V22.104V22.1582V22.2125V22.2667V22.3209V22.3752V22.4294V22.4836V22.5379V22.5921V22.6463V22.7006V22.7548V22.809V22.8633V22.9175V22.9717V23.026V23.0802V23.1344V23.1887V23.2429V23.2972V23.3514V23.4056V23.4599V23.5141V23.5683V23.6226V23.6768V23.731V23.7853V23.8395V23.8938V23.948V24.0022V24.0565V24.1107V24.165V24.2192V24.2734V24.3277V24.3819V24.4362V24.4904V24.5446V24.5989V24.6531V24.7074V24.7616V24.8158V24.8701V24.9243V24.9786V25.0328V25.0871V25.1413V25.1955V25.2498V25.304V25.3583V25.4125V25.4668V25.521V25.5753V25.6295V25.6838V25.738V25.7923V25.8465V25.9007V25.955V26.0092V26.0635V26.1177V26.172V26.2262V26.2805V26.3347V26.389V26.4432V26.4975V26.5517V26.606V26.6602V26.7145V26.7688V26.823V26.8773V26.9315V26.9858V27.04V27.0943V27.1485V27.2028V27.257V27.3113V27.3656V27.4198V27.4741V27.5283V27.5826V27.6368V27.6911V27.7454V27.7996V27.8539V27.9081V27.9624V28.0167V28.0709V28.1252V28.1794V28.2337V28.288V28.3422V28.3965V28.4508V28.505V28.5593V28.6135V28.6678V28.7221V28.7763V28.8306V28.8849V28.9391V28.9934L0.750046 29.075C0.749994 29.3951 0.749961 29.6134 0.758052 29.7741C0.843489 29.7745 0.941102 29.7723 1.06236 29.7697C1.17508 29.7672 1.30824 29.7643 1.47105 29.7625L1.47915 29.7624V29.7625C1.71643 29.7625 2.15233 29.7681 2.51018 30.0078C2.96319 30.3113 3.07133 30.8035 3.04127 31.2498C3.06337 31.2502 3.08784 31.25 3.11488 31.2492L3.12579 31.2489L3.12579 31.249L3.14978 31.2486C4.22798 31.2325 5.30975 31.2162 6.41028 31.2493M29.446 29.7681L7.18423 31.2475L6.51102 31.2691M29.446 29.7681L29.4395 29.7673C29.2464 29.7453 29.0254 29.7275 28.8065 29.7397C28.5898 29.7517 28.3261 29.7954 28.0759 29.9333C27.571 30.2117 27.3807 30.7042 27.3635 31.2325C27.015 31.2321 26.6638 31.2306 26.3112 31.229C25.5472 31.2256 24.7762 31.2221 24.0094 31.2307C24.0269 30.8593 23.9534 30.4157 23.5879 30.0966C23.2501 29.8016 22.822 29.7625 22.5278 29.7625L22.5253 29.7625C17.6508 29.7788 12.7764 29.7788 7.90191 29.7625H7.89939C7.54978 29.7625 7.11228 29.8332 6.78932 30.1752C6.4773 30.5055 6.42637 30.9273 6.434 31.2497M29.446 29.7681L6.434 31.2497M6.41028 31.2493L6.38779 31.9989L6.40995 31.2492C6.41006 31.2492 6.41017 31.2492 6.41028 31.2493ZM6.41028 31.2493C6.41853 31.2495 6.42644 31.2496 6.434 31.2497M6.434 31.2497C6.43418 31.2571 6.43438 31.2644 6.43461 31.2716L6.51102 31.2691M6.51102 31.2691C6.50547 31.2734 6.49973 31.2782 6.4939 31.2835C6.474 31.3017 6.458 31.3216 6.44628 31.3407C6.43486 31.3592 6.43012 31.3726 6.42888 31.3766C6.42777 31.3801 6.42999 31.3743 6.43205 31.356C6.43412 31.3377 6.43572 31.3095 6.43455 31.2695L6.51363 31.2672C6.51276 31.2678 6.51189 31.2685 6.51102 31.2691ZM2.29184 31.2149L2.95867 31.2673M2.29184 31.2149L3.03965 31.2721L2.95683 31.2658M2.29184 31.2149L2.95683 31.2658M2.29184 31.2149L2.95683 31.2658M2.95867 31.2673C2.979 31.2838 2.9979 31.3042 3.01326 31.3269C3.02881 31.3498 3.03632 31.3686 3.03935 31.378C3.04029 31.3809 3.04069 31.3826 3.04075 31.3828C3.04087 31.3834 3.03965 31.3783 3.03861 31.3665C3.03704 31.3486 3.03615 31.3182 3.03961 31.2726C3.03959 31.2729 3.03956 31.2733 3.03954 31.2736L2.95867 31.2673ZM2.95867 31.2673C2.95808 31.2668 2.95748 31.2663 2.95688 31.2658C2.95687 31.2658 2.95685 31.2658 2.95683 31.2658M5.17601 3.26824L5.17601 3.26828C7.70764 3.29274 10.2471 3.28968 12.7867 3.28662C13.6336 3.2856 14.4806 3.28457 15.3274 3.28457C15.9884 3.28457 16.6496 3.28523 17.3109 3.28588C19.9543 3.28849 22.5992 3.2911 25.2451 3.25202C25.6325 3.24403 26.1765 3.26286 26.5845 3.62411C27.015 4.00524 27.0812 4.56614 27.0812 5.03097V5.03462C27.0487 11.7129 27.0487 18.3749 27.0812 25.0368L27.0812 25.0405C27.0812 25.4135 27.0472 25.9128 26.7213 26.302C26.3726 26.7184 25.8628 26.8161 25.4221 26.8351C24.3625 26.8843 23.2668 26.9191 22.1612 26.8337C21.6795 26.7964 21.1881 26.8069 20.6661 26.8291C20.548 26.8341 20.4272 26.8398 20.3045 26.8456C19.8992 26.8647 19.473 26.8848 19.0518 26.8849C19.051 26.8849 19.0503 26.8849 19.0495 26.8849V26.1349C16.8649 26.148 14.6804 26.1192 12.4959 26.0905L5.17601 3.26824ZM5.17601 3.26824H5.16876C4.80403 3.26824 4.30497 3.31506 3.9378 3.6735C3.55215 4.04999 3.51443 4.56344 3.54273 4.96675L5.17601 3.26824ZM24.0149 31.4153C24.0149 31.4153 24.0148 31.4148 24.0146 31.414L24.0149 31.4153ZM0.536296 29.7614C0.536342 29.7613 0.537529 29.7616 0.539724 29.7621C0.537348 29.7617 0.53625 29.7614 0.536296 29.7614ZM0.781926 29.9909C0.781899 29.991 0.781526 29.9898 0.780886 29.9874C0.781634 29.9896 0.781953 29.9909 0.781926 29.9909ZM0.773522 0.551422C0.773567 0.551501 0.773181 0.553225 0.772229 0.556353C0.773001 0.552906 0.773477 0.551342 0.773522 0.551422ZM0.540135 0.78827C0.536989 0.789225 0.535255 0.789611 0.535175 0.789566C0.535095 0.789521 0.536668 0.789043 0.540135 0.78827Z" stroke="white" stroke-width="1.5"/>
<path d="M6.85706 10.4687C6.85706 10.4992 6.85724 10.5296 6.85741 10.56C6.86016 11.0326 6.86271 11.47 6.19066 11.5467C5.89809 11.5794 5.86558 11.8571 5.86558 12.1184V17.7538C5.86558 18.0151 5.93059 18.2765 6.22316 18.3091L6.85706 10.4687ZM6.85706 10.4687C6.84623 10.142 6.84984 9.81528 6.85345 9.48859C6.85525 9.32525 6.85706 9.16191 6.85706 8.99856C6.85706 8.95233 6.8577 8.90622 6.85833 8.8605C6.86483 8.38935 6.87075 7.95939 6.1744 7.85516L6.85706 10.4687ZM24.2526 6.50418L24.2525 6.50418L24.2525 6.51434C24.2362 12.2647 24.2362 17.9988 24.2525 23.7491C24.2524 23.8801 24.2381 23.9593 24.2237 24.0043C24.2169 24.0256 24.2108 24.0369 24.2078 24.0418C24.205 24.0463 24.2036 24.0474 24.2035 24.0476C24.2028 24.0482 24.1457 24.0977 23.8762 24.0978C18.1542 24.0815 12.4484 24.0815 6.72631 24.0978C6.42958 24.0977 6.35923 24.0379 6.35526 24.034C6.35445 24.0332 6.35296 24.0318 6.35053 24.0273C6.34786 24.0224 6.34249 24.011 6.33725 23.9896C6.32612 23.9442 6.31792 23.8634 6.33073 23.7314L6.33076 23.7314L6.33121 23.7262C6.34974 23.512 6.34931 23.2988 6.34727 23.1061C6.34696 23.0771 6.34662 23.0487 6.34629 23.0207C6.34432 22.8557 6.34254 22.7073 6.34886 22.5613L6.34933 22.5505V22.5397C6.34933 22.5067 6.35036 22.4781 6.35231 22.4535C6.5289 22.4286 6.6956 22.377 6.84303 22.2859C7.03326 22.1684 7.15736 22.0062 7.23192 21.8307C7.30195 21.6659 7.32481 21.4978 7.33408 21.3609C7.34168 21.2485 7.34128 21.1285 7.34094 21.0283C7.34087 21.0086 7.34081 20.9896 7.34081 20.9716C7.34081 20.7707 7.33894 20.575 7.33709 20.3822C7.33351 20.0077 7.33003 19.6438 7.34056 19.2722C7.34852 19.0392 7.35058 18.7054 7.20516 18.4131C7.04232 18.0858 6.74665 17.8963 6.36856 17.8263C6.36669 17.8059 6.36558 17.7817 6.36558 17.7538V17.7427V17.7317V17.7207V17.7097V17.6987V17.6877V17.6767V17.6657V17.6547V17.6437V17.6327V17.6217V17.6107V17.5997V17.5887V17.5776V17.5666V17.5556V17.5446V17.5336V17.5226V17.5116V17.5006V17.4896V17.4786V17.4676V17.4566V17.4456V17.4346V17.4236V17.4126V17.4015V17.3905V17.3795V17.3685V17.3575V17.3465V17.3355V17.3245V17.3135V17.3025V17.2915V17.2805V17.2695V17.2585V17.2475V17.2364V17.2254V17.2144V17.2034V17.1924V17.1814V17.1704V17.1594V17.1484V17.1374V17.1264V17.1154V17.1044V17.0934V17.0824V17.0713V17.0603V17.0493V17.0383V17.0273V17.0163V17.0053V16.9943V16.9833V16.9723V16.9613V16.9503V16.9393V16.9283V16.9173V16.9063V16.8952V16.8842V16.8732V16.8622V16.8512V16.8402V16.8292V16.8182V16.8072V16.7962V16.7852V16.7742V16.7632V16.7522V16.7412V16.7301V16.7191V16.7081V16.6971V16.6861V16.6751V16.6641V16.6531V16.6421V16.6311V16.6201V16.6091V16.5981V16.5871V16.5761V16.5651V16.554V16.543V16.532V16.521V16.51V16.499V16.488V16.477V16.466V16.455V16.444V16.433V16.422V16.411V16.4V16.3889V16.3779V16.3669V16.3559V16.3449V16.3339V16.3229V16.3119V16.3009V16.2899V16.2789V16.2679V16.2569V16.2459V16.2349V16.2238V16.2128V16.2018V16.1908V16.1798V16.1688V16.1578V16.1468V16.1358V16.1248V16.1138V16.1028V16.0918V16.0808V16.0698V16.0588V16.0477V16.0367V16.0257V16.0147V16.0037V15.9927V15.9817V15.9707V15.9597V15.9487V15.9377V15.9267V15.9157V15.9047V15.8937V15.8826V15.8716V15.8606V15.8496V15.8386V15.8276V15.8166V15.8056V15.7946V15.7836V15.7726V15.7616V15.7506V15.7396V15.7286V15.7175V15.7065V15.6955V15.6845V15.6735V15.6625V15.6515V15.6405V15.6295V15.6185V15.6075V15.5965V15.5855V15.5745V15.5635V15.5525V15.5414V15.5304V15.5194V15.5084V15.4974V15.4864V15.4754V15.4644V15.4534V15.4424V15.4314V15.4204V15.4094V15.3984V15.3874V15.3763V15.3653V15.3543V15.3433V15.3323V15.3213V15.3103V15.2993V15.2883V15.2773V15.2663V15.2553V15.2443V15.2333V15.2223V15.2112V15.2002V15.1892V15.1782V15.1672V15.1562V15.1452V15.1342V15.1232V15.1122V15.1012V15.0902V15.0792V15.0682V15.0572V15.0462V15.0351V15.0241V15.0131V15.0021V14.9911V14.9801V14.9691V14.9581V14.9471V14.9361V14.9251V14.9141V14.9031V14.8921V14.8811V14.87V14.859V14.848V14.837V14.826V14.815V14.804V14.793V14.782V14.771V14.76V14.749V14.738V14.727V14.716V14.7049V14.6939V14.6829V14.6719V14.6609V14.6499V14.6389V14.6279V14.6169V14.6059V14.5949V14.5839V14.5729V14.5619V14.5509V14.5399V14.5288V14.5178V14.5068V14.4958V14.4848V14.4738V14.4628V14.4518V14.4408V14.4298V14.4188V14.4078V14.3968V14.3858V14.3748V14.3637V14.3527V14.3417V14.3307V14.3197V14.3087V14.2977V14.2867V14.2757V14.2647V14.2537V14.2427V14.2317V14.2207V14.2097V14.1986V14.1876V14.1766V14.1656V14.1546V14.1436V14.1326V14.1216V14.1106V14.0996V14.0886V14.0776V14.0666V14.0556V14.0446V14.0336V14.0225V14.0115V14.0005V13.9895V13.9785V13.9675V13.9565V13.9455V13.9345V13.9235V13.9125V13.9015V13.8905V13.8795V13.8685V13.8574V13.8464V13.8354V13.8244V13.8134V13.8024V13.7914V13.7804V13.7694V13.7584V13.7474V13.7364V13.7254V13.7144V13.7034V13.6923V13.6813V13.6703V13.6593V13.6483V13.6373V13.6263V13.6153V13.6043V13.5933V13.5823V13.5713V13.5603V13.5493V13.5383V13.5273V13.5162V13.5052V13.4942V13.4832V13.4722V13.4612V13.4502V13.4392V13.4282V13.4172V13.4062V13.3952V13.3842V13.3732V13.3622V13.3511V13.3401V13.3291V13.3181V13.3071V13.2961V13.2851V13.2741V13.2631V13.2521V13.2411V13.2301V13.2191V13.2081V13.1971V13.186V13.175V13.164V13.153V13.142V13.131V13.12V13.109V13.098V13.087V13.076V13.065V13.054V13.043V13.032V13.021V13.0099V12.9989V12.9879V12.9769V12.9659V12.9549V12.9439V12.9329V12.9219V12.9109V12.8999V12.8889V12.8779V12.8669V12.8559V12.8448V12.8338V12.8228V12.8118V12.8008V12.7898V12.7788V12.7678V12.7568V12.7458V12.7348V12.7238V12.7128V12.7018V12.6908V12.6797V12.6687V12.6577V12.6467V12.6357V12.6247V12.6137V12.6027V12.5917V12.5807V12.5697V12.5587V12.5477V12.5367V12.5257V12.5147V12.5036V12.4926V12.4816V12.4706V12.4596V12.4486V12.4376V12.4266V12.4156V12.4046V12.3936V12.3826V12.3716V12.3606V12.3496V12.3385V12.3275V12.3165V12.3055V12.2945V12.2835V12.2725V12.2615V12.2505V12.2395V12.2285V12.2175V12.2065V12.1955V12.1845V12.1734V12.1624V12.1514V12.1404V12.1294V12.1184C6.36558 12.0828 6.36633 12.0523 6.36791 12.0259C6.55464 11.9925 6.72766 11.9306 6.87782 11.8284C7.06668 11.6998 7.18648 11.5299 7.25726 11.3502C7.32413 11.1804 7.34486 11.0083 7.35273 10.8671C7.35869 10.7601 7.35798 10.644 7.35739 10.5461C7.35722 10.5186 7.35706 10.4926 7.35706 10.4687V10.4604L7.35679 10.4521C7.3463 10.1359 7.34974 9.82871 7.35331 9.50922C7.35517 9.34331 7.35706 9.17408 7.35706 8.99856C7.35706 8.96683 7.35756 8.92861 7.3581 8.88703C7.3593 8.79588 7.3607 8.68856 7.35751 8.5979C7.35248 8.45473 7.33596 8.27803 7.27197 8.10249C7.20406 7.9162 7.08566 7.73943 6.89511 7.60251C6.73722 7.48905 6.55147 7.41852 6.34771 7.37793C6.34716 7.34353 6.34837 7.30073 6.35136 7.24642C6.35233 7.22879 6.35363 7.20829 6.35505 7.1859C6.35968 7.11302 6.36558 7.02003 6.36558 6.94044H6.36572L6.36544 6.9286C6.35706 6.575 6.35349 6.35048 6.36785 6.19243C6.37169 6.15011 6.37637 6.11982 6.3805 6.09889C6.39906 6.09497 6.42491 6.09055 6.45992 6.08652C6.61045 6.06918 6.82352 6.06836 7.16438 6.06836C9.87983 6.08469 12.6275 6.08469 15.3572 6.08469H15.3578C16.0586 6.08469 16.7611 6.08571 17.4644 6.08673C19.5783 6.0898 21.7005 6.09287 23.8125 6.06836C24.1382 6.06871 24.2004 6.1308 24.201 6.13134C24.2019 6.13228 24.2048 6.13523 24.2092 6.14344C24.2139 6.15227 24.2213 6.16901 24.2288 6.19757C24.2445 6.25787 24.2561 6.35417 24.2526 6.50418ZM6.24614 12.0436L6.24626 12.0436L6.24614 12.0436ZM7.83616 15.2873C7.83616 19.4307 11.1615 22.7644 15.2483 22.7293C19.3483 22.6943 22.6031 19.3617 22.6031 15.2219C22.6031 11.1198 19.222 7.7956 15.1292 7.81252C11.1021 7.81312 7.83616 11.2024 7.83616 15.2873Z" stroke="white"/>
<path d="M14.3682 10.4802C13.786 10.5741 13.358 10.7301 12.9588 10.976L12.9502 10.9813L12.9414 10.9862C12.9146 11.0013 12.8888 11.0157 12.8639 11.0296C12.7486 11.0939 12.6524 11.1476 12.5661 11.2052C12.5074 11.2445 12.4702 11.2749 12.4474 11.2962C12.4744 11.3376 12.532 11.4094 12.6503 11.5119L12.6559 11.5169L12.6615 11.522C12.8605 11.7053 12.9752 11.9608 12.9409 12.2422C12.9102 12.4943 12.769 12.6935 12.6116 12.8305C12.4279 13.0064 12.178 13.106 11.9041 13.0456C11.662 12.9922 11.4945 12.8322 11.3952 12.7075L11.3886 12.6992L11.3887 12.6992C11.3239 12.6141 11.2727 12.5596 11.2357 12.5253C11.2313 12.5309 11.2267 12.537 11.2219 12.5436C11.1642 12.6218 11.1015 12.7303 11.0262 12.8736L11.0252 12.8755L11.0252 12.8755C10.7772 13.3427 10.5852 13.7923 10.4682 14.2774L10.4665 14.2845L10.4665 14.2845C10.4454 14.3665 10.4366 14.4257 10.4343 14.4664C10.4604 14.4712 10.4978 14.4756 10.5491 14.4771L10.5599 14.4774L10.5706 14.4782C10.5952 14.4799 10.6121 14.4801 10.6382 14.4803C10.6598 14.4805 10.6877 14.4807 10.7316 14.4819C10.8025 14.484 10.9145 14.4894 11.0306 14.5212C11.1533 14.5548 11.3067 14.6249 11.4279 14.774C11.5492 14.9232 11.5957 15.099 11.6032 15.2646L11.6033 15.2681L11.6033 15.2681C11.61 15.4423 11.5797 15.6389 11.4566 15.8099C11.3301 15.9856 11.1572 16.0629 11.0223 16.0968C10.8964 16.1285 10.7736 16.1298 10.6995 16.1295C10.6605 16.1293 10.6327 16.1289 10.611 16.1285C10.5775 16.1279 10.5586 16.1276 10.5357 16.1291L10.5336 16.1293L10.5336 16.1293C10.489 16.1321 10.4567 16.1371 10.4343 16.142C10.435 16.1755 10.4402 16.2249 10.4549 16.2937L10.4558 16.2976L10.4557 16.2976C10.5549 16.7816 10.7709 17.2528 11.0283 17.754L11.0312 17.7597L11.0312 17.7597C11.0986 17.8951 11.1569 17.9935 11.2082 18.06C11.2112 18.0639 11.2141 18.0676 11.2169 18.0711C11.2519 18.0412 11.3012 17.9922 11.3644 17.9138L11.3661 17.9117L11.3661 17.9117C11.4744 17.7787 11.6566 17.6094 11.9197 17.5634C12.2163 17.5115 12.4741 17.638 12.6609 17.8257L12.6679 17.8328L12.6747 17.8402C12.8358 18.0156 12.9577 18.2532 12.9348 18.5301C12.912 18.8045 12.7558 19.0112 12.5806 19.1451C12.4973 19.2113 12.4462 19.2624 12.4156 19.298C12.4283 19.3087 12.444 19.3212 12.4632 19.3354C12.5468 19.3969 12.6557 19.461 12.7951 19.5392L12.7993 19.5416L12.7993 19.5416C13.195 19.7689 13.6254 19.9012 14.1186 20.0499C14.2227 20.0782 14.3018 20.0933 14.3605 20.0986C14.3629 20.0659 14.3636 20.0206 14.3594 19.96L14.8583 19.9262M14.3682 10.4802L16.0875 10.4827C16.1236 10.4856 16.1684 10.4916 16.2234 10.5017C16.6937 10.6028 17.133 10.7915 17.5965 11.04L17.5979 11.0407C17.7354 11.1139 17.8434 11.175 17.9253 11.2336C17.9406 11.2446 17.9536 11.2546 17.9646 11.2634C17.9332 11.2994 17.8817 11.3504 17.7988 11.4159L17.7987 11.4158L17.788 11.4247C17.6503 11.54 17.4744 11.7326 17.4435 12.0124C17.4104 12.3117 17.5581 12.5512 17.7221 12.7161C17.8787 12.8735 18.1047 13.0141 18.3869 13.0018C18.6691 12.9894 18.8785 12.8297 19.0141 12.6662L19.0162 12.6637C19.0922 12.5707 19.1491 12.5179 19.1864 12.4888C19.1977 12.5014 19.2112 12.5175 19.2268 12.5382C19.2861 12.6168 19.3497 12.7238 19.4245 12.8624L19.4256 12.8643C19.6735 13.3186 19.8389 13.8111 19.9622 14.3372C19.973 14.3856 19.9792 14.4237 19.9825 14.4532C19.959 14.4563 19.9295 14.4589 19.8928 14.4604C19.8915 14.4603 19.8898 14.4602 19.8878 14.4601C19.881 14.4596 19.872 14.4588 19.8599 14.4574C19.8424 14.4555 19.8295 14.4539 19.8135 14.4518C19.8005 14.4502 19.7854 14.4483 19.7641 14.4457C19.6957 14.4375 19.5701 14.4231 19.4395 14.4403C19.2982 14.459 19.1006 14.5215 18.955 14.7101C18.8198 14.8851 18.7906 15.091 18.7956 15.2637C18.7969 15.4177 18.8313 15.5793 18.9254 15.7247C19.0229 15.8752 19.1565 15.9651 19.2812 16.0167C19.4808 16.0993 19.7066 16.0982 19.8113 16.0977C19.8188 16.0976 19.8257 16.0976 19.832 16.0976C19.9066 16.0976 19.9577 16.1034 19.9909 16.1096C19.9875 16.1678 19.9721 16.2529 19.9372 16.3719L19.9367 16.3735C19.7978 16.8546 19.631 17.294 19.4077 17.7133C19.3335 17.8505 19.2707 17.9552 19.2126 18.031C19.1987 18.0492 19.1865 18.0637 19.1763 18.0751C19.1379 18.0455 19.079 17.9911 18.9999 17.8945L18.9999 17.8945L18.9978 17.8919C18.8622 17.7284 18.6529 17.5687 18.3706 17.5564C18.0885 17.5441 17.8625 17.6847 17.7059 17.8421C17.5341 18.0147 17.3911 18.2634 17.4382 18.5673C17.4802 18.8388 17.6576 19.0242 17.788 19.1334L17.7936 19.1381L17.7992 19.1425C17.883 19.2087 17.934 19.2601 17.9641 19.2959C17.9613 19.2982 17.9584 19.3006 17.9553 19.3031C17.8935 19.3523 17.7991 19.4097 17.6663 19.4748C17.5594 19.5245 17.4575 19.573 17.359 19.62C17.0442 19.77 16.7627 19.9041 16.457 20.0067C16.3223 20.0505 16.212 20.0826 16.1195 20.0989C16.1 20.1024 16.0833 20.1048 16.0691 20.1064C16.0649 20.0635 16.0634 19.9984 16.0716 19.9043L16.0717 19.9043L16.0724 19.8939C16.0854 19.6977 16.0529 19.4423 15.8739 19.2333C15.682 19.0093 15.4094 18.9391 15.1555 18.9533C14.8564 18.97 14.6023 19.1144 14.4637 19.3748C14.3498 19.5887 14.3494 19.8187 14.3596 19.9616L14.8583 19.9262M14.3682 10.4802C14.3707 10.5089 14.3728 10.541 14.3745 10.5768C14.3745 10.5823 14.3744 10.5884 14.3743 10.595C14.3731 10.6945 14.3705 10.912 14.4392 11.1009C14.4843 11.2251 14.5664 11.3625 14.7114 11.4676C14.8523 11.5698 15.0128 11.6124 15.1676 11.621C15.3303 11.633 15.5066 11.6137 15.6698 11.5266C15.8429 11.4341 15.9506 11.2925 16.0118 11.1517C16.1126 10.9195 16.0969 10.6555 16.0895 10.5324C16.0893 10.5286 16.0891 10.525 16.0889 10.5216L14.3682 10.4802ZM14.8583 19.9262C14.842 19.6975 14.8908 19.4688 15.1834 19.4525C15.4759 19.4362 15.5897 19.6158 15.5735 19.8608L13.9806 20.5305L13.9806 20.5306C14.517 20.6776 14.9071 20.6449 14.8583 19.9262ZM17.6013 15.2947L17.6013 15.2947V15.2872C17.6013 14.589 17.3725 13.9695 16.9306 13.5227C16.4883 13.0755 15.8739 12.8435 15.1834 12.8435C13.8839 12.8435 12.7633 13.9659 12.7817 15.2748C12.7839 16.5815 13.904 17.682 15.1996 17.682C16.5874 17.682 17.5811 16.653 17.6013 15.2947Z" stroke="white"/>
</svg>
