<svg width="35" height="35" viewBox="0 0 35 35" fill="none" xmlns="http://www.w3.org/2000/svg">
<rect x="0.7" y="0.7" width="33.6" height="33.6" rx="3.5" fill="#DB0000" stroke="#1E1111" stroke-width="1.4"/>
<path d="M23.316 13.196C23.316 14.2413 23.0733 15.0907 22.588 15.744C22.1213 16.3973 21.524 16.9107 20.796 17.284C20.0867 17.6387 19.3493 17.9093 18.584 18.096V18.208C18.9013 18.3947 19.256 18.7213 19.648 19.188C20.0587 19.636 20.5813 20.308 21.216 21.204C21.8507 22.0813 22.6813 23.2573 23.708 24.732C24.156 25.348 24.5853 25.74 24.996 25.908C25.4253 26.076 25.9573 26.16 26.592 26.16V27H21.972C21.2067 25.8427 20.5627 24.8813 20.04 24.116C19.536 23.332 19.1067 22.6787 18.752 22.156C18.3973 21.6147 18.08 21.1387 17.8 20.728C17.52 20.3173 17.24 19.9067 16.96 19.496C16.68 19.0667 16.4187 18.8053 16.176 18.712C15.952 18.6187 15.588 18.572 15.084 18.572H14.3V23.528C14.3 24.2933 14.3653 24.872 14.496 25.264C14.6267 25.6373 14.888 25.88 15.28 25.992C15.672 26.104 16.2693 26.16 17.072 26.16V27H9.204V26.16C9.91333 26.16 10.4453 26.104 10.8 25.992C11.1547 25.88 11.388 25.6373 11.5 25.264C11.6307 24.8907 11.696 24.312 11.696 23.528V11.516C11.696 10.9933 11.64 10.5827 11.528 10.284C11.4347 9.98533 11.2107 9.77067 10.856 9.64C10.5013 9.50933 9.95067 9.444 9.204 9.444V8.604H16.092C17.492 8.604 18.7333 8.744 19.816 9.024C20.9173 9.28533 21.776 9.752 22.392 10.424C23.008 11.0773 23.316 12.0013 23.316 13.196ZM14.3 9.78V17.48L15.364 17.508C16.9133 17.4333 18.1547 17.088 19.088 16.472C20.0213 15.8373 20.488 14.7827 20.488 13.308C20.488 12.188 20.1427 11.3107 19.452 10.676C18.7613 10.0227 17.66 9.696 16.148 9.696C15.5133 9.696 14.8973 9.724 14.3 9.78Z" fill="white"/>
</svg>
